<?xml version="1.0" encoding="UTF-8"?>
<svg width="100px" height="130px" viewBox="0 0 100 130" version="1.1" xmlns="http://www.w3.org/2000/svg" xmlns:xlink="http://www.w3.org/1999/xlink">
    <!-- Generator: sketchtool 41.2 (35397) - http://www.bohemiancoding.com/sketch -->
    <title>BF02D155-3472-49B1-88CE-26CF4B2EAD2C</title>
    <desc>Created with sketchtool.</desc>
    <defs>
        <rect id="path-1" x="0" y="0" width="100" height="130" rx="4"></rect>
        <mask id="mask-2" maskContentUnits="userSpaceOnUse" maskUnits="objectBoundingBox" x="0" y="0" width="100" height="130" fill="white">
            <use xlink:href="#path-1"></use>
        </mask>
        <mask id="mask-3" maskContentUnits="userSpaceOnUse" maskUnits="objectBoundingBox" x="0" y="0" width="100" height="130" fill="white">
            <use xlink:href="#path-1"></use>
        </mask>
    </defs>
    <g id="Symbols" stroke="none" stroke-width="1" fill="none" fill-rule="evenodd">
        <g id="Акция" transform="translate(-1140.000000, -168.000000)">
            <g id="Дарим-сертификат-на">
                <g transform="translate(940.000000, 168.000000)">
                    <g id="ico_certificate" transform="translate(200.000000, 0.000000)">
                        <g id="Rectangle-4">
                            <use stroke="#DC0E85" mask="url(#mask-2)" stroke-width="8" fill="#FFFFFF" fill-rule="evenodd" xlink:href="#path-1"></use>
                            <use stroke="#FFFFFF" mask="url(#mask-3)" stroke-width="4" xlink:href="#path-1"></use>
                        </g>
                        <path d="M26.356531,20.116167 C26.356531,19.2828694 26.6472163,18.759636 27.5192719,18.759636 C27.8293362,18.759636 28.0812634,18.837152 28.3235011,18.9921842 L28.4203961,19.0503212 C28.5463597,19.1278373 28.6141863,19.1956638 28.837045,19.1956638 C29.2052463,19.1956638 29.4765525,18.9243576 29.4765525,18.6142934 C29.4765525,18.0523019 28.4979122,17.5775161 27.4708244,17.5775161 C25.7751606,17.5775161 25,18.5852248 25,20.116167 L25,22.0346895 C25,23.5656317 25.7751606,24.5733405 27.4708244,24.5733405 C28.4979122,24.5733405 29.4765525,24.0985546 29.4765525,23.5365632 C29.4765525,23.2264989 29.2052463,22.9551927 28.837045,22.9551927 C28.6141863,22.9551927 28.5463597,23.0230193 28.4203961,23.1005353 L28.3235011,23.1586724 C28.0812634,23.3137045 27.8293362,23.3912206 27.5192719,23.3912206 C26.6472163,23.3912206 26.356531,22.8679872 26.356531,22.0346895 L26.356531,20.116167 Z M32.2380621,22.6451285 C33.5461456,22.6451285 34.1178266,22.1025161 34.1178266,21.1723233 C34.1178266,20.1936831 33.4880086,19.5251071 32.2186831,19.5251071 C30.8718415,19.5251071 30.154818,20.2711991 30.154818,21.2498394 L30.154818,22.8679872 C30.154818,23.8272484 30.8912206,24.563651 32.1702355,24.563651 C32.790364,24.563651 34.030621,24.3892398 34.030621,23.7109743 C34.030621,23.4881156 33.8949679,23.1780514 33.4298715,23.1780514 C33.2651499,23.1780514 33.1779443,23.2168094 33.1391863,23.2361884 C32.8291221,23.3718415 32.5771949,23.4493576 32.2671306,23.4493576 C31.7438972,23.4493576 31.49197,23.2361884 31.49197,22.9067452 L31.49197,22.5869914 C31.7729657,22.6257495 31.9861349,22.6451285 32.2380621,22.6451285 L32.2380621,22.6451285 Z M32.790364,21.1044968 C32.790364,21.5211456 32.5578158,21.6471092 32.1896146,21.6471092 C32.0927195,21.6471092 31.8020343,21.6374197 31.49197,21.6083512 L31.49197,21.1917024 C31.49197,20.8041221 31.7438972,20.5618844 32.2089936,20.5618844 C32.5868844,20.5618844 32.790364,20.7169165 32.790364,21.1044968 L32.790364,21.1044968 Z M37.2475375,24.5539615 C38.6428266,24.5539615 39.0982334,23.6915953 39.0982334,22.5482334 L39.0982334,21.4242505 C39.0982334,20.3002677 38.4490364,19.5251071 37.334743,19.5251071 C36.8211991,19.5251071 36.4336188,19.6898287 35.9685225,19.9514454 C35.8328694,19.7867238 35.6681478,19.6801392 35.4646681,19.6801392 C35.1546039,19.6801392 34.8251606,19.9126874 34.8251606,20.2711991 C34.8251606,20.4068522 34.8832976,20.4843683 34.9608137,20.5812634 C35.0383298,20.6975375 35.0673983,20.8138116 35.0673983,21.0366702 L35.0673983,25.95894 C35.0673983,26.2786938 35.309636,26.55 35.7359743,26.55 C36.1623126,26.55 36.4045503,26.2883833 36.4045503,25.95894 L36.4045503,24.3601713 C36.7533726,24.5248929 36.9859208,24.5539615 37.2475375,24.5539615 L37.2475375,24.5539615 Z M36.4045503,21.0366702 C36.4045503,20.9785332 36.3948608,20.9203961 36.3851713,20.8525696 C36.685546,20.7169165 36.9277837,20.6490899 37.1312634,20.6490899 C37.5479122,20.6490899 37.7610814,20.9203961 37.7610814,21.4242505 L37.7610814,22.5482334 C37.7610814,23.1586724 37.5866702,23.4493576 37.1118844,23.4493576 C36.9374732,23.4493576 36.6952355,23.4105996 36.4045503,23.323394 L36.4045503,21.0366702 Z M42.3829764,20.765364 L43.1,20.765364 C43.4585118,20.765364 43.7395075,20.5134368 43.7395075,20.1839936 C43.7395075,19.8545503 43.4585118,19.6026231 43.1,19.6026231 L40.3288009,19.6026231 C39.9702891,19.6026231 39.6892934,19.8545503 39.6892934,20.1839936 C39.6892934,20.5134368 39.9702891,20.765364 40.3288009,20.765364 L41.0458244,20.765364 L41.0458244,23.9629015 C41.0458244,24.3020343 41.3365096,24.563651 41.7144004,24.563651 C42.0922912,24.563651 42.3829764,24.3020343 42.3829764,23.9629015 L42.3829764,20.765364 Z M45.2123126,24.58303 C45.4642398,24.58303 45.696788,24.4570664 45.8421306,24.2632762 L47.4505889,21.7827623 L47.4505889,23.9629015 C47.4505889,24.2923448 47.7412741,24.58303 48.1191649,24.58303 C48.4970557,24.58303 48.7877409,24.2923448 48.7877409,23.9629015 L48.7877409,20.1839936 C48.7877409,19.8157923 48.5067452,19.5444861 48.0900964,19.5444861 C47.8284797,19.5444861 47.5765525,19.6607602 47.4505889,19.8739293 L45.8324411,22.3738223 L45.8324411,20.1549251 C45.8324411,19.8254818 45.5223769,19.5444861 45.1541756,19.5444861 C44.7762848,19.5444861 44.4952891,19.8254818 44.4952891,20.1549251 L44.4952891,23.9435225 C44.4952891,24.2923448 44.7859743,24.58303 45.2123126,24.58303 L45.2123126,24.58303 Z M51.9465203,25.9492505 C51.9465203,26.2883833 52.2372056,26.55 52.6150964,26.55 C52.9929872,26.55 53.2836724,26.2883833 53.2836724,25.9492505 L53.2836724,24.5442719 C54.688651,24.4473769 55.4056745,23.5268737 55.4056745,22.3350642 L55.4056745,21.6761777 C55.4056745,20.5328158 54.688651,19.6413812 53.2836724,19.5444861 L53.2836724,18.1007495 C53.2836724,17.7616167 52.9929872,17.5 52.6150964,17.5 C52.2372056,17.5 51.9465203,17.7809957 51.9465203,18.1007495 L51.9465203,19.5444861 C50.5512313,19.6510707 49.8438972,20.5425054 49.8438972,21.6761777 L49.8438972,22.3350642 C49.8438972,23.5268737 50.5512313,24.4376874 51.9465203,24.5442719 L51.9465203,25.9492505 Z M54.1654176,21.6664882 L54.1654176,22.3350642 C54.1654176,22.9067452 53.8747323,23.2943255 53.2836724,23.3912206 L53.2836724,20.6975375 C53.8747323,20.784743 54.1654176,21.1432548 54.1654176,21.6664882 L54.1654176,21.6664882 Z M51.0841542,22.3350642 L51.0841542,21.6664882 C51.0841542,21.1529443 51.3651499,20.8041221 51.9465203,20.707227 L51.9465203,23.3912206 C51.3651499,23.2749465 51.0841542,22.8970557 51.0841542,22.3350642 L51.0841542,22.3350642 Z M57.1691649,24.58303 C57.4210921,24.58303 57.6536403,24.4570664 57.7989829,24.2632762 L59.4074411,21.7827623 L59.4074411,23.9629015 C59.4074411,24.2923448 59.6981263,24.58303 60.0760171,24.58303 C60.4539079,24.58303 60.7445931,24.2923448 60.7445931,23.9629015 L60.7445931,20.1839936 C60.7445931,19.8157923 60.4635974,19.5444861 60.0469486,19.5444861 C59.7853319,19.5444861 59.5334047,19.6607602 59.4074411,19.8739293 L57.7892934,22.3738223 L57.7892934,20.1549251 C57.7892934,19.8254818 57.4792291,19.5444861 57.1110278,19.5444861 C56.733137,19.5444861 56.4521413,19.8254818 56.4521413,20.1549251 L56.4521413,23.9435225 C56.4521413,24.2923448 56.7428266,24.58303 57.1691649,24.58303 L57.1691649,24.58303 Z M63.4479657,22.693576 L64.6300857,24.2923448 C64.7657388,24.4764454 64.9401499,24.563651 65.1823876,24.563651 C65.5408994,24.563651 65.8122056,24.3504818 65.8315846,24.0210385 C65.8315846,23.914454 65.7928266,23.7691113 65.725,23.6722163 L64.5041221,22.063758 L65.725,20.4552998 C65.7928266,20.3584047 65.8315846,20.2130621 65.8315846,20.1064775 C65.8122056,19.7770343 65.5408994,19.5638651 65.1823876,19.5638651 C64.9401499,19.5638651 64.7657388,19.6510707 64.6300857,19.8351713 L63.4479657,21.43394 L63.3123126,21.43394 L63.3123126,20.1452355 C63.3123126,19.8254818 63.0216274,19.5541756 62.6437366,19.5541756 C62.2658458,19.5541756 61.9751606,19.8254818 61.9751606,20.1452355 L61.9751606,23.9629015 C61.9751606,24.3020343 62.2658458,24.563651 62.6437366,24.563651 C63.0216274,24.563651 63.3123126,24.3020343 63.3123126,23.9629015 L63.3123126,22.693576 L63.4479657,22.693576 Z M70.4534797,21.5308351 C70.4534797,20.2227516 69.8817987,19.5251071 68.4768201,19.5251071 C67.672591,19.5251071 66.8199143,19.7576552 66.8199143,20.3293362 C66.8199143,20.5715739 66.9749465,20.8913276 67.3819058,20.8913276 C67.5660064,20.8913276 67.672591,20.8235011 67.7501071,20.7944325 C67.9438972,20.707227 68.1086188,20.6394004 68.3799251,20.6394004 C68.8740899,20.6394004 69.1163276,20.8525696 69.1163276,21.3079764 L69.1163276,21.6180407 C68.8644004,21.5405246 68.6124732,21.5211456 68.3508565,21.5211456 C67.0718415,21.5211456 66.432334,22.0153105 66.432334,23.0036403 L66.432334,23.0327088 C66.432334,23.953212 67.0330835,24.563651 68.1570664,24.563651 C68.6996788,24.563651 69.1066381,24.4183084 69.4651499,24.1276231 C69.6880086,24.4376874 69.9302463,24.5345824 70.288758,24.5345824 C70.8023019,24.5345824 70.9864026,24.3407923 70.9864026,24.0307281 C70.9864026,23.8272484 70.9088865,23.7206638 70.7635439,23.6625268 C70.5988223,23.5947002 70.4534797,23.6237687 70.4534797,23.3330835 L70.4534797,21.5308351 Z M68.4283726,22.4610278 C68.6221627,22.4610278 68.8740899,22.4900964 69.1163276,22.5385439 L69.1163276,23.2361884 C68.8644004,23.4299786 68.6124732,23.4881156 68.360546,23.4881156 C67.9438972,23.4881156 67.7597966,23.362152 67.7597966,23.0423983 L67.7597966,23.0133298 C67.7597966,22.7226445 67.8663812,22.4610278 68.4283726,22.4610278 L68.4283726,22.4610278 Z M73.8835653,20.765364 L74.6005889,20.765364 C74.9591006,20.765364 75.2400964,20.5134368 75.2400964,20.1839936 C75.2400964,19.8545503 74.9591006,19.6026231 74.6005889,19.6026231 L71.8293897,19.6026231 C71.4708779,19.6026231 71.1898822,19.8545503 71.1898822,20.1839936 C71.1898822,20.5134368 71.4708779,20.765364 71.8293897,20.765364 L72.5464133,20.765364 L72.5464133,23.9629015 C72.5464133,24.3020343 72.8370985,24.563651 73.2149893,24.563651 C73.5928801,24.563651 73.8835653,24.3020343 73.8835653,23.9629015 L73.8835653,20.765364 Z" id="Сертификат" fill="#000000"></path>
                        <path d="M28.3458153,43.6233786 C28.3458153,42.907273 27.7320105,42.3548487 26.9340642,42.3548487 L22.3714484,42.3548487 C23.4762971,40.8407968 25.2767912,39.5722668 26.647622,38.1400556 C27.5887894,37.1579679 28.2639747,36.0121989 28.2639747,34.2730852 C28.2639747,31.9610871 26.524861,30.1196726 23.5376776,30.1196726 C21.8804046,30.1196726 18.9546016,30.7539376 18.9546016,32.2475293 C18.9546016,33.0045553 19.6502471,33.4955991 20.3458925,33.4955991 C20.9392372,33.4955991 21.3484404,33.1273162 21.7985639,32.9431748 C22.2896078,32.7385732 22.821572,32.6158122 23.5172174,32.6158122 C24.7857474,32.6158122 25.4404725,33.4342187 25.4404725,34.4776868 C25.4404725,35.9917387 23.8036597,37.1579679 22.6783508,38.1809759 C21.2256794,39.4904262 19.7320877,40.7998765 18.9136813,42.6003706 C18.7704602,42.907273 18.75,43.2755559 18.75,43.5619981 C18.75,44.3190241 19.3433447,44.9123687 20.2026714,44.9123687 L26.9340642,44.9123687 C27.7320105,44.9123687 28.3458153,44.3394842 28.3458153,43.6233786 L28.3458153,43.6233786 Z M40.7446726,32.6158122 C42.0950432,32.6158122 42.6270074,33.5365195 42.6270074,34.8459697 L42.6270074,40.615735 C42.6270074,41.7819642 41.9722823,42.5799104 40.7446726,42.5799104 C39.517063,42.5799104 38.8623379,41.7819642 38.8623379,40.615735 L38.8623379,34.8459697 C38.8623379,33.5365195 39.394302,32.6158122 40.7446726,32.6158122 L40.7446726,32.6158122 Z M40.7446726,30.1196726 C37.4505868,30.1196726 36.0183755,32.2884497 36.0183755,34.9891909 L36.0183755,40.615735 C36.0183755,43.1118746 37.6961087,45.0965102 40.7446726,45.0965102 C43.7932366,45.0965102 45.4709697,43.1118746 45.4709697,40.615735 L45.4709697,34.9891909 C45.4709697,32.2884497 44.0387585,30.1196726 40.7446726,30.1196726 L40.7446726,30.1196726 Z M51.7931594,32.6158122 C53.14353,32.6158122 53.6754941,33.5365195 53.6754941,34.8459697 L53.6754941,40.615735 C53.6754941,41.7819642 53.020769,42.5799104 51.7931594,42.5799104 C50.5655497,42.5799104 49.9108246,41.7819642 49.9108246,40.615735 L49.9108246,34.8459697 C49.9108246,33.5365195 50.4427888,32.6158122 51.7931594,32.6158122 L51.7931594,32.6158122 Z M51.7931594,30.1196726 C48.4990735,30.1196726 47.0668623,32.2884497 47.0668623,34.9891909 L47.0668623,40.615735 C47.0668623,43.1118746 48.7445954,45.0965102 51.7931594,45.0965102 C54.8417233,45.0965102 56.5194565,43.1118746 56.5194565,40.615735 L56.5194565,34.9891909 C56.5194565,32.2884497 55.0872452,30.1196726 51.7931594,30.1196726 L51.7931594,30.1196726 Z M62.8416461,32.6158122 C64.1920167,32.6158122 64.7239809,33.5365195 64.7239809,34.8459697 L64.7239809,40.615735 C64.7239809,41.7819642 64.0692557,42.5799104 62.8416461,42.5799104 C61.6140364,42.5799104 60.9593113,41.7819642 60.9593113,40.615735 L60.9593113,34.8459697 C60.9593113,33.5365195 61.4912755,32.6158122 62.8416461,32.6158122 L62.8416461,32.6158122 Z M62.8416461,30.1196726 C59.5475602,30.1196726 58.115349,32.2884497 58.115349,34.9891909 L58.115349,40.615735 C58.115349,43.1118746 59.7930821,45.0965102 62.8416461,45.0965102 C65.89021,45.0965102 67.5679432,43.1118746 67.5679432,40.615735 L67.5679432,34.9891909 C67.5679432,32.2884497 66.1357319,30.1196726 62.8416461,30.1196726 L62.8416461,30.1196726 Z M79.782659,39.592727 C82.9539839,39.592727 85,38.0582149 85,35.2756331 C85,32.7794935 83.6291692,30.4879555 79.782659,30.4879555 L77.5934219,30.4879555 C76.7340951,30.4879555 75.9975293,31.1631408 75.9975293,31.9610871 L75.9975293,37.9968345 L75.5064855,37.9968345 C75.0972823,37.9968345 74.7085392,38.324197 74.7085392,38.7538604 C74.7085392,39.1835238 75.056362,39.5108863 75.5064855,39.5108863 L75.9975293,39.5108863 L75.9975293,40.6566553 L75.5064855,40.6566553 C75.0972823,40.6566553 74.7085392,40.9840179 74.7085392,41.4136813 C74.7085392,41.8433447 75.056362,42.1707072 75.5064855,42.1707072 L75.9975293,42.1707072 L75.9975293,43.7461396 C75.9975293,44.4827054 76.6727146,45.0965102 77.4297406,45.0965102 C78.2072267,45.0965102 78.8619518,44.4622452 78.8619518,43.7461396 L78.8619518,42.1707072 L80.9898085,42.1707072 C81.4399321,42.1707072 81.7877548,41.8433447 81.7877548,41.4136813 C81.7877548,40.9840179 81.3990117,40.6566553 80.9898085,40.6566553 L78.8619518,40.6566553 L78.8619518,39.592727 L79.782659,39.592727 Z M78.8619518,33.0863959 L79.782659,33.0863959 C81.7059141,33.0863959 82.1355775,34.1912446 82.1355775,35.2551729 C82.1355775,36.7283045 81.2967109,37.4034898 79.782659,37.4034898 L78.8619518,37.4034898 L78.8619518,33.0863959 Z" id="2-000-₽" fill="#000000"></path>
                        <path d="M34.8579745,97.0384839 C34.7109254,96.6640482 34.5834514,96.0339485 34.5731882,95.6285455 L34.4764753,91.8083199 C34.4662411,91.4040681 34.7380777,90.9232411 35.0804928,90.7360824 L36.2774353,90.0818526 C36.6212589,89.8939239 37.1458142,89.9482593 37.4476313,90.2020111 L40.1889037,92.5067276 C40.4913612,92.761018 40.8865207,93.2556426 41.0720234,93.6124772 L43.7403568,98.7453045 C43.9256327,99.1017027 43.7912229,99.5322815 43.4411663,99.7065205 L42.208224,100.320211 C41.8577097,100.494678 41.4160575,100.351072 41.2232403,100.002126 L40.5214997,98.7321686 L38.5444478,99.6855698 L39.0642201,100.914318 C39.2205402,101.283861 39.0651581,101.730281 38.7188154,101.910566 L37.730337,102.425107 C37.3832553,102.605777 36.9825077,102.448252 36.835634,102.074262 L34.8579745,97.0384839 L34.8579745,97.0384839 Z M37.5255137,96.4680175 C37.6556137,96.7393778 37.9784989,96.861615 38.2455967,96.7415371 L38.750053,96.514751 C39.0176438,96.3944515 39.134045,96.0727988 39.0041018,95.8027772 C39.0041018,95.8027772 38.1128657,93.6414919 37.2703189,94.032836 C36.427772,94.4241801 37.5255137,96.4680175 37.5255137,96.4680175 Z M26.087107,101.402159 C24.8798941,98.8535479 24.6564531,96.3863463 24.6564531,96.3863463 C24.6040118,95.991839 24.8503755,95.5288471 25.2052243,95.3529674 L29.5965959,93.1763976 C29.863015,93.0443478 30.2623256,93.0938752 30.4879093,93.2865318 L32.1633287,94.717401 C32.3891685,94.9102763 32.5711328,95.3088797 32.5697493,95.6095822 L32.5611245,97.4839011 C32.5597447,97.7837639 32.7688893,98.1420167 33.0315153,98.2858631 L34.6099731,99.1504211 C34.9569433,99.3404648 35.2181965,99.8178296 35.193628,100.214555 L35.0381458,102.725217 C35.0135192,103.122878 34.705946,103.58416 34.3472501,103.757409 L30.1465569,105.786327 C29.7896124,105.958729 29.273841,105.867975 29.0038497,105.579609 C29.0038497,105.579609 27.2943198,103.95077 26.087107,101.402159 Z M31.4245648,102.348541 C31.1480399,102.457287 30.816863,102.327425 30.6854052,102.059596 L30.289647,101.253289 C30.1579452,100.984963 30.2640168,100.658226 30.5304961,100.521484 L30.9533974,100.304475 C31.2181164,100.168637 31.5367683,100.275479 31.6667491,100.546498 L32.1214034,101.494485 C32.2506576,101.763989 32.1317565,102.07043 31.8547463,102.179367 L31.4245648,102.348541 Z M28.6667912,98.0869865 C28.8009839,98.354154 29.1324857,98.4762702 29.4052452,98.3605787 L29.7449197,98.216505 C30.0185639,98.1004383 30.138186,97.7879144 30.0117879,97.5177892 L29.6074891,96.6537645 C29.4812322,96.3839412 29.1599506,96.2658809 28.8907889,96.3896546 L28.5043427,96.5673613 C28.2347771,96.6913208 28.1249206,97.0081626 28.2592284,97.2755595 L28.6667912,98.0869865 Z M37.7751881,106.383816 C37.6974137,106.195043 37.6300215,105.878467 37.6245854,105.673784 L37.5921508,104.452544 C37.5867496,104.249178 37.7306756,104.007048 37.9116738,103.912747 L38.2022177,103.761371 C38.3840865,103.666616 38.6612428,103.693762 38.8207996,103.821632 L39.7334038,104.552999 C39.8931683,104.681036 40.1019175,104.930114 40.2004263,105.11074 L41.1428196,106.838712 C41.2409844,107.018707 41.1707321,107.23571 40.9858634,107.323422 L40.682704,107.467257 C40.4978545,107.55496 40.2652563,107.483312 40.1626941,107.306388 L40.1244091,107.240344 C40.0220648,107.063796 39.7872831,106.990461 39.6020572,107.075603 L39.5077173,107.118968 C39.3215746,107.204532 39.2383819,107.426465 39.3212075,107.613103 L39.3321753,107.637818 C39.4153115,107.825157 39.3346633,108.050482 39.1502825,108.141968 L38.9424199,108.245106 C38.758827,108.336201 38.5474814,108.258315 38.4691725,108.068245 L37.7751881,106.383816 Z M38.7831221,106.099757 C38.8290069,106.190398 38.9410748,106.231793 39.0380335,106.190243 L39.2670764,106.092091 C39.3619753,106.051424 39.4030333,105.941996 39.3579564,105.851994 C39.3579564,105.851994 39.0029324,105.034659 38.675459,105.179646 C38.3479856,105.324633 38.7831221,106.099757 38.7831221,106.099757 Z M44.1250719,94.7152816 C43.6759633,94.9135482 43.1385737,94.7130708 42.9249008,94.2677567 L40.5411521,89.2998057 C40.370252,88.9436341 40.5094467,88.4998214 40.8532879,88.3078324 L42.1378139,87.5905976 C42.481102,87.3989174 42.9040864,87.5303543 43.0812773,87.8815953 L44.5070741,90.7079163 C44.6407175,90.9728343 44.9706892,91.0989538 45.2451386,90.9891914 L46.0170287,90.6804839 C46.291007,90.5709098 46.4100299,90.2665954 46.2818436,89.9986248 L44.9038875,87.1180424 C44.7337607,86.7623967 44.8898707,86.3538915 45.2548597,86.2046841 L46.5219136,85.6867129 C46.885877,85.5379248 47.3188864,85.7062052 47.4884565,86.0612987 L51.0556231,93.5312348 C51.2254666,93.886901 51.3004898,94.4887002 51.2231874,94.8754137 L50.9568626,96.2077322 C50.8795623,96.5944355 50.5175997,97.0205358 50.1519104,97.1581317 L46.3915754,98.5730118 C45.8404769,98.7803705 45.1735391,98.5217185 44.9023816,97.9961752 L44.2818281,96.7934508 C44.1009397,96.4428624 44.2514096,96.0426072 44.6159247,95.9002321 L47.2455613,94.8731286 C47.6109661,94.7304059 47.771252,94.3264817 47.6027307,93.9691587 L47.5991417,93.9615492 C47.4309961,93.6050231 47.0018224,93.4452916 46.6436946,93.6033932 L44.1250719,94.7152816 Z M52.8221453,90.8832301 C52.452729,91.0250937 52.007994,90.8578839 51.828699,90.5095572 L49.17147,85.3472 C48.992221,84.9989626 49.1456646,84.5988563 49.512841,84.4540719 L51.2675053,83.7621749 C51.6352883,83.6171513 52.121599,83.7567868 52.3524764,84.0723725 L55.9263246,88.9574537 C56.1577547,89.2737948 56.0472405,89.6447262 55.6764784,89.7871066 L52.8221453,90.8832301 Z M53.4836117,93.6727404 C53.3105297,93.322173 53.4562661,92.9165597 53.8088327,92.7669009 L56.2962095,91.7110504 C56.6489063,91.5613364 57.0645115,91.7314081 57.2229856,92.0875358 L57.9027069,93.6150249 C58.0618546,93.972666 57.9037519,94.3754632 57.5466849,94.5158335 L55.1368134,95.4632034 C54.7810402,95.6030651 54.3523599,95.4323387 54.1792364,95.081687 L53.4836117,93.6727404 Z M64.2033154,91.9967631 C63.2685769,95.1701041 62.5871519,96.8870185 62.5871519,96.8870185 C62.0741799,98.2947225 61.3489861,98.2609437 60.9405792,96.8166232 C60.9405792,96.8166232 60.0596234,92.9847641 58.1765214,89.3865314 C56.2934194,85.7882987 54.4213893,84.1003343 54.4213893,84.1003343 C53.4751219,83.0766086 53.8265923,82.3611401 55.2070519,82.522817 C55.2070519,82.522817 57.1741894,82.6534055 60.0960431,83.3351738 C63.0178969,84.0169422 64.2532081,84.6277667 64.2532081,84.6277667 C64.9887711,84.92751 65.4972684,85.8140108 65.3769686,86.602878 C65.3769686,86.602878 65.138054,88.8234221 64.2033154,91.9967631 Z M27.2220505,116.138726 C27.2665224,115.742732 27.5952869,115.282198 27.9543686,115.111047 L37.5943076,110.516305 C37.954284,110.344727 38.2530078,110.527115 38.2615619,110.925339 L38.3108233,113.218639 C38.3193615,113.61612 38.0700704,114.133283 37.751691,114.375524 L27.3157101,122.315798 C26.8402273,122.677572 26.5087723,122.490014 26.5753415,121.897258 L27.2220505,116.138726 Z M18.0999152,95.5347745 C18.6285671,95.7935383 19.4997021,95.8272581 20.0490258,95.6087468 L28.6178271,92.2002273 C28.9839493,92.0545902 29.0731231,91.6955518 28.8188656,91.4004557 L26.887595,89.1589852 C26.6325032,88.8629207 26.115483,88.6980236 25.7314754,88.7909977 L12.7935438,91.9234667 C12.0281052,92.108791 11.9794242,92.5389244 12.6857999,92.8846803 L18.0999152,95.5347745 Z M57.0086169,84.9131066 C57.0569836,85.2470051 58.1534038,85.5527222 59.5964837,85.8961051 C61.4515408,86.3375187 63.6408921,86.7016989 62.3901147,85.7928228 C60.1663366,84.1769168 56.8980757,84.1499867 57.0086169,84.9131066 Z M62.8905818,86.3196727 C62.3417107,86.967188 63.6606292,87.2338645 63.9065504,86.9878851 C64.1524717,86.7419056 63.4394528,85.6721574 62.8905818,86.3196727 Z M10.1358891,107.004939 C9.58209363,106.927108 8.7000153,108.207041 8.19349735,107.663924 C7.68697936,107.120808 8.96804901,106.626035 8.80661853,105.76261 C8.64518804,104.899185 7.24524622,104.695298 7.54085778,104.173225 C7.83646935,103.651153 9.1131774,104.389379 9.60529333,104.167002 C10.0974092,103.944624 10.1114426,102.433815 10.7654019,102.525723 C11.4193613,102.617631 11.0176303,103.987001 11.4281721,104.423191 C11.8387139,104.85938 13.1896451,104.375417 13.4109194,104.998209 C13.6321937,105.621 12.1583123,105.373581 11.7560983,106.177132 C11.3538844,106.980683 12.4635884,107.832463 11.8213949,108.173792 C11.1792015,108.515121 10.6896846,107.08277 10.1358891,107.004939 Z M17.0122015,113.640738 C16.6053775,113.405858 15.4648548,114.213093 15.2583314,113.601147 C15.051808,112.989201 16.2296447,112.964696 16.4060169,112.188769 C16.5823892,111.412841 15.5564815,110.813081 15.9713783,110.464186 C16.3862751,110.115292 17.1281123,111.126993 17.5919085,111.090389 C18.0557047,111.053785 18.5967518,109.786767 19.0771572,110.06413 C19.5575626,110.341492 18.7622145,111.370909 18.9310144,111.863523 C19.0998143,112.356137 20.3286241,112.362097 20.2835873,112.953841 C20.2385504,113.545586 19.1699527,112.886579 18.5727358,113.439724 C17.9755188,113.99287 18.5466001,115.049043 17.9234231,115.139838 C17.3002461,115.230634 17.4190255,113.875618 17.0122015,113.640738 Z M25.4110872,111.654681 C25.0133931,111.591693 24.3676055,112.468587 24.0080127,112.082477 C23.6484199,111.696366 24.5743215,111.372352 24.4657878,110.768773 C24.357254,110.165195 23.3519845,110.000997 23.5692268,109.642299 C23.7864691,109.2836 24.6983901,109.817778 25.0543543,109.670817 C25.4103186,109.523856 25.4336997,108.472441 25.9033238,108.546822 C26.3729479,108.621203 26.0719164,109.567997 26.363408,109.878151 C26.6548996,110.188305 27.6309618,109.872927 27.7846609,110.309958 C27.9383601,110.746989 26.8802842,110.551314 26.5838809,111.104246 C26.2874778,111.657179 27.0782643,112.267741 26.6132941,112.495113 C26.1483242,112.722485 25.8087812,111.71767 25.4110872,111.654681 Z M20.3856199,104.791369 C19.7075799,104.399903 17.8671538,105.640601 17.502629,104.655884 C17.1381043,103.671168 19.0721113,103.68065 19.329867,102.450134 C19.5876226,101.219619 17.8774692,100.22055 18.5446971,99.6810909 C19.2119251,99.1416316 20.4723797,100.786129 21.232821,100.746863 C21.9932623,100.707598 22.8298745,98.7087148 23.6305502,99.1709851 C24.4312259,99.6332554 23.1670351,101.242621 23.4646642,102.035419 C23.7622933,102.828216 25.7812981,102.8884 25.7317121,103.830516 C25.6821261,104.772632 23.8993959,103.677291 22.9410652,104.535061 C21.9827343,105.392831 22.9644951,107.101229 21.9444486,107.22037 C20.9244022,107.339511 21.0636599,105.182836 20.3856199,104.791369 Z M13.8639265,101.295181 C14.3934075,101.295181 14.8226367,100.863648 14.8226367,100.331325 C14.8226367,99.7990027 14.3934075,99.3674699 13.8639265,99.3674699 C13.3344454,99.3674699 12.9052163,99.7990027 12.9052163,100.331325 C12.9052163,100.863648 13.3344454,101.295181 13.8639265,101.295181 Z M22.1328018,118.403614 C22.9932085,118.403614 23.6907059,117.702374 23.6907059,116.837349 C23.6907059,115.972325 22.9932085,115.271084 22.1328018,115.271084 C21.2723952,115.271084 20.5748978,115.972325 20.5748978,116.837349 C20.5748978,117.702374 21.2723952,118.403614 22.1328018,118.403614 Z M8.59102043,117.680723 C9.12050145,117.680723 9.54973062,117.24919 9.54973062,116.716867 C9.54973062,116.184545 9.12050145,115.753012 8.59102043,115.753012 C8.06153942,115.753012 7.63231025,116.184545 7.63231025,116.716867 C7.63231025,117.24919 8.06153942,117.680723 8.59102043,117.680723 Z M10.9877959,113.10241 C11.5172769,113.10241 11.9465061,112.670877 11.9465061,112.138554 C11.9465061,111.606232 11.5172769,111.174699 10.9877959,111.174699 C10.4583149,111.174699 10.0290857,111.606232 10.0290857,112.138554 C10.0290857,112.670877 10.4583149,113.10241 10.9877959,113.10241 Z M16.3805407,109.006024 C17.2409474,109.006024 17.9384448,108.304783 17.9384448,107.439759 C17.9384448,106.574735 17.2409474,105.873494 16.3805407,105.873494 C15.5201341,105.873494 14.8226367,106.574735 14.8226367,107.439759 C14.8226367,108.304783 15.5201341,109.006024 16.3805407,109.006024 Z M14.7027979,120.331325 C15.6955748,120.331325 16.5003795,119.522201 16.5003795,118.524096 C16.5003795,117.525991 15.6955748,116.716867 14.7027979,116.716867 C13.710021,116.716867 12.9052163,117.525991 12.9052163,118.524096 C12.9052163,119.522201 13.710021,120.331325 14.7027979,120.331325 Z M31.8103368,111.389249 C31.6301353,111.463808 31.4172514,111.375341 31.3336953,111.189083 L29.9567497,108.119683 C29.8737095,107.934575 29.9459247,107.711631 30.1192193,107.621111 L32.4692604,106.393579 C32.6420302,106.303333 32.850948,106.378466 32.9366683,106.563066 L34.4405666,109.801736 C34.5259389,109.985587 34.4526755,110.203079 34.2764882,110.287729 L33.712934,110.55849 C33.5369437,110.643045 33.3257207,110.562361 33.2410496,110.37805 L32.1650762,108.035877 C32.080452,107.851668 31.8688338,107.768178 31.6912516,107.849933 L31.4779931,107.948112 C31.3009311,108.029627 31.2305896,108.242147 31.3209925,108.423013 L32.4698066,110.721396 C32.5601596,110.902162 32.487839,111.10893 32.3071213,111.183703 L31.8103368,111.389249 Z M35.9091455,109.46633 C35.72619,109.532921 35.5102749,109.440489 35.4272135,109.260587 L34.0308096,106.236132 C33.9476012,106.055913 34.0223763,105.842992 34.1992032,105.759914 L35.8908327,104.965138 C36.0670424,104.88235 36.3472722,104.891682 36.5130741,104.996496 C36.5130741,104.996496 36.9211451,105.169571 37.2600311,105.729865 C37.5989172,106.290159 37.5902817,106.793893 37.5902817,106.793893 C37.6082635,106.9913 37.4833493,107.227983 37.3120126,107.322137 L36.450942,107.795315 C36.2792766,107.889649 36.2244968,108.10342 36.3269868,108.270179 L36.6644923,108.819327 C36.7676992,108.987253 36.7027873,109.177462 36.5200951,109.243958 L35.9091455,109.46633 Z M35.8459605,106.938453 C36.1378975,106.938453 36.3745593,106.736643 36.3745593,106.487698 C36.3745593,106.238752 36.1378975,106.036942 35.8459605,106.036942 C35.5540235,106.036942 35.3173617,106.238752 35.3173617,106.487698 C35.3173617,106.736643 35.5540235,106.938453 35.8459605,106.938453 Z M40.45921,102.993669 C40.2612069,103.067099 40.1734995,103.267617 40.2643249,103.443502 L40.4164328,103.738062 C40.506804,103.913068 40.7337395,103.978626 40.9203907,103.885938 L41.5350434,103.58071 C41.7230006,103.487374 41.8766672,103.568131 41.8782733,103.761733 L41.8854184,104.62313 C41.8862233,104.720154 41.9656234,104.831344 42.0629929,104.871575 L42.9265488,105.22838 C43.1203458,105.308453 43.1189948,105.433859 42.9188682,105.510263 L41.9834695,105.867377 C41.7854306,105.942983 41.7134069,106.138517 41.8233078,106.305187 L42.053572,106.654394 C42.163156,106.820583 42.4085377,106.884999 42.598412,106.799725 L44.2363248,106.064118 C44.4276477,105.978193 44.5636044,105.75336 44.5399871,105.561896 L44.5012577,105.247921 C44.4776429,105.056477 44.3113064,104.817562 44.1295109,104.714162 L43.4416692,104.322938 C43.3509729,104.271353 43.2846141,104.153312 43.2938599,104.054952 L43.3591663,103.3602 C43.3772936,103.167356 43.2926246,102.884829 43.1677527,102.726238 L42.9428138,102.440559 C42.8189717,102.283276 42.5587581,102.215043 42.3600612,102.28873 L40.45921,102.993669 Z M45.0222945,104.669859 C44.8358273,104.749424 44.732026,104.967188 44.7914273,105.159419 L45.0813193,106.097554 C45.1402818,106.288366 45.3469348,106.397043 45.5424073,106.340433 L45.9937061,106.209732 C46.1893952,106.153059 46.3097234,105.951 46.2621107,105.756971 L46.2196727,105.584029 C46.1722191,105.390649 46.2818287,105.163541 46.4648586,105.076595 L48.1136295,104.293369 C48.2964954,104.206501 48.4883013,104.290452 48.5422964,104.481788 L48.562452,104.553211 C48.6163322,104.744139 48.8087171,104.827414 48.9912635,104.739638 L49.3666617,104.559132 C49.5496078,104.471164 49.6271671,104.254464 49.5402679,104.075885 L49.1035471,103.178414 C49.0164813,102.999492 48.8060443,102.939275 48.6309987,103.045448 L48.8336788,102.922514 C48.6597634,103.028001 48.4474037,102.969774 48.3578643,102.789448 L47.2404232,100.538997 C47.1515536,100.360019 46.9274094,100.282008 46.7420282,100.363764 L44.2634687,101.45685 C44.0770823,101.539049 44.0092366,101.746874 44.1096735,101.91721 L44.9262105,103.302022 C45.0276583,103.474073 45.1239682,103.7758 45.1411424,103.973842 L45.1638615,104.235826 C45.1811176,104.434812 45.0447181,104.660291 44.8574778,104.740186 L45.0222945,104.669859 Z M46.9241602,103.605285 C46.7400601,103.688973 46.5339995,103.605806 46.4630315,103.417192 L45.9945122,102.171987 C45.9239378,101.984418 46.017682,101.762849 46.2011489,101.678364 L46.2608533,101.65087 C46.44555,101.565818 46.6728281,101.638792 46.7696929,101.816057 L47.409179,102.986333 C47.5055065,103.162616 47.432814,103.374062 47.2502532,103.45705 L46.9241602,103.605285 Z M49.9849884,103.196978 C49.7916094,103.270559 49.5618501,103.181907 49.472857,103.001103 L47.9347764,99.8762416 C47.8453129,99.694482 47.9253959,99.4783443 48.1128699,99.3938346 L48.6772668,99.1394153 C48.8650887,99.0547488 49.0813396,99.139079 49.1587273,99.3240678 L49.5830007,100.338257 C49.661082,100.524905 49.8715575,100.595971 50.052385,100.497384 L50.2639822,100.382022 C50.4451344,100.283258 50.5217712,100.055621 50.4343364,99.8718605 L49.9887767,98.9354329 C49.9017082,98.7524425 49.9865624,98.5380707 50.1753532,98.4578733 L50.7970524,98.1937785 C50.9871641,98.11302 51.211664,98.194617 51.2995249,98.3781993 L52.8968628,101.715782 C52.984259,101.898394 52.8997384,102.110272 52.7098261,102.18831 L52.0459703,102.461096 C51.8552768,102.539455 51.634606,102.450739 51.554351,102.265853 L51.2295304,101.517554 C51.1487102,101.331366 50.9274033,101.242139 50.736557,101.317734 L50.4466396,101.432571 C50.2551982,101.508402 50.1801716,101.714866 50.2787929,101.893233 L50.6444968,102.554647 C50.743239,102.733233 50.6679175,102.937123 50.4731419,103.011235 L49.9849884,103.196978 Z M53.5353638,101.565057 L52.0080853,98.3470688 C51.9192502,98.1598925 52.0027928,97.9478726 52.1992,97.8717586 L52.7235124,97.668571 C52.9178971,97.5932407 53.1441484,97.6845511 53.2283589,97.8714091 L53.6964146,98.9099969 C53.7808489,99.0973516 53.8726676,99.0835261 53.9016041,98.8783597 L54.1012697,97.4626908 C54.1301584,97.2578634 54.3057886,97.0216186 54.4947677,96.934462 L54.890717,96.7518515 C55.0791512,96.6649462 55.3040423,96.7456974 55.3922026,96.9304893 L56.9708989,100.239583 C57.0594274,100.425148 56.9744546,100.632011 56.7779977,100.702745 L56.0702626,100.957563 C55.8751975,101.027795 55.6431666,100.934866 55.5519947,100.749976 L55.0153757,99.6617474 C54.9242092,99.4768677 54.8450104,99.4943464 54.8385147,99.6997049 L54.7974058,100.999309 C54.7908946,101.205152 54.6341397,101.445986 54.4468943,101.537417 L54.0349362,101.738574 C53.8478651,101.829919 53.6248649,101.753636 53.5353638,101.565057 Z M57.7795028,100.297691 C57.6065181,100.381295 57.3965935,100.303785 57.3100746,100.123424 L55.8446773,97.0685937 C55.758404,96.8887447 55.8272643,96.6720542 55.9995802,96.5840406 L56.4732685,96.3420951 C56.6450924,96.2543328 56.8506645,96.3326948 56.931658,96.5153874 L57.2790521,97.2989855 C57.3603898,97.4824545 57.4601467,97.4720479 57.5023884,97.2732793 L57.7812616,95.9610415 C57.823269,95.7633753 58.0005346,95.5457493 58.1800708,95.473808 L58.6300309,95.2935063 C58.8082797,95.2220809 58.9781771,95.3269965 59.0094217,95.5272937 L59.125282,96.2700275 C59.1565651,96.4705701 59.1155383,96.7827032 59.034517,96.9652349 L58.9044589,97.2582408 C58.8230477,97.4416506 58.9108828,97.5903336 59.1015609,97.5903336 L59.2842182,97.5903336 C59.4744857,97.5903336 59.7084821,97.731345 59.8067459,97.9050827 L60.314924,98.8035807 C60.4132405,98.9774118 60.3503964,99.1784465 60.1743411,99.2526958 L59.6677832,99.4663305 C59.491825,99.5405388 59.2200409,99.5104925 59.0604344,99.3990091 L58.2110621,98.805732 C58.0515909,98.6943431 57.9786965,98.7568656 58.048058,98.9448653 L58.3052613,99.6419983 C58.3747078,99.8302283 58.290727,100.050616 58.1177887,100.134197 L57.7795028,100.297691 Z" id="Combined-Shape" fill="#DC0E85"></path>
                        <path d="M16.973877,57.5658978 L18.7341309,57.5658978 C18.880616,57.5658978 19.0096023,57.5797323 19.1210938,57.6074017 C19.2325852,57.6350712 19.3290198,57.6725057 19.4104004,57.7197064 C19.491781,57.7669072 19.5601397,57.8214314 19.6154785,57.8832807 C19.6708173,57.9451299 19.7147622,58.0098265 19.7473145,58.0773725 C19.7798667,58.1449184 19.8030598,58.2136839 19.8168945,58.2836713 C19.8307292,58.3536586 19.8376465,58.4203897 19.8376465,58.4838666 C19.8376465,58.5750129 19.8295085,58.6567992 19.8132324,58.7292279 C19.7969563,58.8016567 19.7713218,58.867574 19.7363281,58.9269818 C19.7013345,58.9863897 19.655762,59.0401001 19.5996094,59.0881146 C19.5434568,59.1361292 19.4763187,59.1796672 19.3981934,59.2187299 C19.5186367,59.264303 19.6154781,59.3204548 19.6887207,59.3871869 C19.7619633,59.453919 19.818115,59.5259398 19.8571777,59.6032514 C19.8962404,59.6805629 19.9222818,59.7603147 19.9353027,59.8425092 C19.9483236,59.9247036 19.954834,60.0040485 19.954834,60.0805463 C19.954834,60.2547008 19.923096,60.4085079 19.8596191,60.5419721 C19.7961423,60.6754363 19.7066249,60.7873329 19.5910645,60.8776654 C19.475504,60.9679979 19.3351245,61.0367635 19.1699219,61.0839642 C19.0047192,61.131165 18.8212087,61.154765 18.6193848,61.154765 L16.973877,61.154765 L16.973877,57.5658978 Z M17.6940918,60.5346478 L18.6291504,60.5346478 C18.7121586,60.5346478 18.7886552,60.5248823 18.8586426,60.505351 C18.9286299,60.4858196 18.9892576,60.4561161 19.0405273,60.4162396 C19.0917971,60.3763631 19.131673,60.3259079 19.1601562,60.2648725 C19.1886395,60.203837 19.2028809,60.1318162 19.2028809,60.048808 C19.2028809,59.9446408 19.1857912,59.8612269 19.1516113,59.7985639 C19.1174315,59.7359008 19.0722659,59.68748 19.0161133,59.6533002 C18.9599607,59.6191203 18.8964847,59.596741 18.8256836,59.5861615 C18.7548825,59.575582 18.6828617,59.5702924 18.6096191,59.5702924 L17.6940918,59.5702924 L17.6940918,60.5346478 Z M17.6940918,58.9794721 L18.6193848,58.9794721 C18.6844893,58.9794721 18.7471514,58.9721479 18.807373,58.9574994 C18.8675947,58.9428509 18.9208982,58.918844 18.9672852,58.8854779 C19.0136721,58.8521119 19.0506997,58.8093877 19.0783691,58.7573041 C19.1060385,58.7052205 19.119873,58.6425584 19.119873,58.5693158 C19.119873,58.492818 19.1072592,58.429749 19.0820312,58.3801068 C19.0568033,58.3304646 19.022217,58.2909956 18.9782715,58.2616986 C18.934326,58.2324016 18.8830569,58.2120568 18.8244629,58.2006635 C18.7658688,58.1892702 18.7040205,58.1835736 18.638916,58.1835736 L17.6940918,58.1835736 L17.6940918,58.9794721 Z M23.1726074,58.4936322 L23.8635254,58.4936322 L23.8635254,61.154765 L23.1726074,61.154765 L23.1726074,58.4936322 Z M20.5041504,58.4936322 L21.1950684,58.4936322 L21.1950684,59.4189252 L21.8225098,59.4189252 C21.9868986,59.4189252 22.1337884,59.4360149 22.2631836,59.4701947 C22.3925788,59.5043746 22.5020341,59.5572712 22.5915527,59.6288861 C22.6810714,59.7005011 22.7494301,59.7912391 22.7966309,59.9011029 C22.8438316,60.0109667 22.8674316,60.1407669 22.8674316,60.2905072 C22.8674316,60.425599 22.8479006,60.5411578 22.8088379,60.6371869 C22.7697752,60.733216 22.7197269,60.8133747 22.6586914,60.8776654 C22.5976559,60.9419561 22.5297042,60.9924113 22.454834,61.0290326 C22.3799638,61.0656539 22.3067224,61.0933229 22.2351074,61.1120404 C22.1634925,61.130758 22.0971683,61.142558 22.0361328,61.1474408 C21.9750974,61.1523236 21.9283042,61.154765 21.895752,61.154765 L20.5041504,61.154765 L20.5041504,58.4936322 Z M21.1950684,60.6347455 L21.7004395,60.6347455 C21.7541507,60.6347455 21.8074542,60.6302696 21.8603516,60.6213178 C21.913249,60.6123659 21.9612628,60.5952762 22.0043945,60.5700482 C22.0475263,60.5448202 22.0821125,60.5098271 22.1081543,60.4650678 C22.1341961,60.4203084 22.1472168,60.3621222 22.1472168,60.2905072 C22.1472168,60.2205199 22.1337892,60.1627405 22.1069336,60.1171674 C22.080078,60.0715942 22.0434573,60.0357873 21.9970703,60.0097455 C21.9506834,59.9837037 21.896973,59.9653933 21.8359375,59.9548139 C21.774902,59.9442344 21.7102054,59.9389447 21.6418457,59.9389447 L21.1950684,59.9389447 L21.1950684,60.6347455 Z M24.2932129,60.595683 L24.5690918,60.595683 C24.6341963,60.4736121 24.6883136,60.3454395 24.7314453,60.2111615 C24.774577,60.0768835 24.8091633,59.9413868 24.8352051,59.8046674 C24.8612469,59.6679479 24.8799641,59.5340788 24.8913574,59.403056 C24.9027507,59.2720333 24.9108886,59.1487435 24.9157715,59.033183 C24.9206543,58.9176225 24.9226888,58.8134569 24.921875,58.720683 C24.9210612,58.6279091 24.9214681,58.5522263 24.9230957,58.4936322 L27.0031738,58.4936322 L27.0031738,60.595683 L27.3376465,60.595683 L27.3376465,61.7944135 L26.6882324,61.7944135 L26.6882324,61.154765 L24.942627,61.154765 L24.942627,61.7944135 L24.2932129,61.7944135 L24.2932129,60.595683 Z M26.3146973,60.595683 L26.3146973,59.0551557 L25.5236816,59.0551557 C25.5236816,59.103984 25.5232747,59.1642048 25.5224609,59.2358197 C25.5216471,59.3074347 25.518392,59.3867796 25.5126953,59.4738568 C25.5069987,59.5609341 25.4988607,59.6532997 25.4882812,59.7509564 C25.4777018,59.8486132 25.4622397,59.9462684 25.4418945,60.0439252 C25.4215494,60.1415819 25.3971356,60.2376096 25.3686523,60.3320111 C25.3401691,60.4264126 25.3047691,60.5143024 25.2624512,60.595683 L26.3146973,60.595683 Z M29.8693848,60.6298627 C29.8693848,60.7096157 29.8738606,60.7751261 29.8828125,60.8263959 C29.8917644,60.8776657 29.9035644,60.9183554 29.9182129,60.9484662 C29.9328614,60.978577 29.9495442,61.0005495 29.9682617,61.0143842 C29.9869793,61.0282189 30.0069172,61.0383913 30.0280762,61.0449017 L30.0280762,61.154765 L29.263916,61.154765 C29.2508951,61.1238404 29.2366537,61.0827438 29.2211914,61.031474 C29.2057291,60.9802042 29.197998,60.917949 29.197998,60.8447064 C29.1442868,60.9000453 29.0917971,60.9513143 29.0405273,60.998515 C28.9892576,61.0457158 28.9318851,61.0868124 28.8684082,61.121806 C28.8049313,61.1567997 28.7316899,61.1844687 28.6486816,61.2048139 C28.5656734,61.225159 28.4655768,61.2353314 28.3483887,61.2353314 C28.229573,61.2353314 28.1201177,61.2178349 28.0200195,61.1828412 C27.9199214,61.1478475 27.8332523,61.0961716 27.7600098,61.0278119 C27.6867672,60.9594522 27.6298016,60.8740038 27.5891113,60.7714642 C27.548421,60.6689247 27.5280762,60.5501108 27.5280762,60.4150189 C27.5280762,60.3059689 27.5451658,60.2046516 27.5793457,60.1110639 C27.6135256,60.0174761 27.6619463,59.935283 27.7246094,59.8644818 C27.7872724,59.7936807 27.8637691,59.7350875 27.9541016,59.6887006 C28.044434,59.6423136 28.1457514,59.6109826 28.2580566,59.5947064 L28.9343262,59.4946088 C28.9587404,59.4913536 28.9851887,59.4864708 29.0136719,59.4799603 C29.0421551,59.4734499 29.0686034,59.4624637 29.0930176,59.4470014 C29.1174318,59.431539 29.1377766,59.4103804 29.1540527,59.3835248 C29.1703289,59.3566692 29.1784668,59.3204554 29.1784668,59.2748822 C29.1784668,59.2309367 29.1715495,59.1906539 29.1577148,59.1540326 C29.1438801,59.1174113 29.120687,59.0856734 29.0881348,59.0588178 C29.0555825,59.0319622 29.0120445,59.0112104 28.9575195,58.9965619 C28.9029945,58.9819134 28.8350427,58.9745892 28.7536621,58.9745892 C28.6608882,58.9745892 28.5864261,58.9839479 28.5302734,59.0026654 C28.4741208,59.021383 28.429769,59.0474244 28.3972168,59.0807904 C28.3646646,59.1141565 28.3410645,59.1532186 28.326416,59.1979779 C28.3117675,59.2427373 28.3011882,59.2903442 28.2946777,59.3408002 L27.6037598,59.3408002 C27.6037598,59.3082479 27.6090494,59.2630824 27.6196289,59.2053021 C27.6302084,59.1475219 27.6497394,59.0844529 27.6782227,59.0160932 C27.7067059,58.9477334 27.7465818,58.878561 27.7978516,58.8085736 C27.8491214,58.7385863 27.9166662,58.6747035 28.0004883,58.6169232 C28.0843103,58.559143 28.1864415,58.511536 28.3068848,58.474101 C28.4273281,58.4366659 28.5713696,58.4171348 28.7390137,58.4155072 C28.9766451,58.4155072 29.1691073,58.4395141 29.3164062,58.4875287 C29.4637052,58.5355433 29.5784501,58.5982054 29.6606445,58.675517 C29.742839,58.7528286 29.7981769,58.8390907 29.8266602,58.934306 C29.8551434,59.0295214 29.8693848,59.1243284 29.8693848,59.2187299 L29.8693848,60.6298627 Z M29.1784668,59.8559369 C29.1361489,59.8787235 29.0938316,59.8994752 29.0515137,59.9181928 C29.0091958,59.9369103 28.953044,59.9527793 28.8830566,59.9658002 L28.6999512,59.9999799 C28.6201982,60.0146284 28.5502119,60.0317181 28.4899902,60.0512494 C28.4297686,60.0707808 28.3797203,60.0964153 28.3398438,60.1281537 C28.2999672,60.1598921 28.2698569,60.1985474 28.2495117,60.2441205 C28.2291666,60.2896936 28.2189941,60.3466592 28.2189941,60.4150189 C28.2189941,60.4719854 28.2279459,60.5212199 28.2458496,60.562724 C28.2637533,60.6042281 28.2885741,60.6384075 28.3203125,60.6652631 C28.3520509,60.6921187 28.3890786,60.7120566 28.4313965,60.7250775 C28.4737144,60.7380984 28.5192869,60.7446088 28.5681152,60.7446088 C28.594157,60.7446088 28.6275226,60.7417605 28.6682129,60.7360639 C28.7089032,60.7303672 28.7520343,60.719381 28.7976074,60.7031049 C28.8431806,60.6868287 28.888753,60.6644494 28.9343262,60.6359662 C28.9798993,60.607483 29.020589,60.5704554 29.0563965,60.5248822 C29.092204,60.4793091 29.1215005,60.4235642 29.1442871,60.3576459 C29.1670737,60.2917276 29.1784668,60.2140103 29.1784668,60.1244916 L29.1784668,59.8559369 Z M30.4992676,58.4936322 L31.1901855,58.4936322 L31.1901855,59.4555463 L32.2058105,59.4555463 L32.2058105,58.4936322 L32.8942871,58.4936322 L32.8942871,61.154765 L32.2058105,61.154765 L32.2058105,60.0146283 L31.1901855,60.0146283 L31.1901855,61.154765 L30.4992676,61.154765 L30.4992676,58.4936322 Z M35.9973145,57.5658978 L36.854248,57.5658978 L38.1237793,61.154765 L37.3083496,61.154765 L37.0788574,60.4150189 L35.7531738,60.4150189 L35.5041504,61.154765 L34.7131348,61.154765 L35.9973145,57.5658978 Z M35.9533691,59.7949017 L36.8688965,59.7949017 L36.4221191,58.3740033 L36.4123535,58.3740033 L35.9533691,59.7949017 Z M38.5534668,58.4936322 L39.2443848,58.4936322 L39.2443848,59.4555463 L40.2600098,59.4555463 L40.2600098,58.4936322 L40.9484863,58.4936322 L40.9484863,61.154765 L40.2600098,61.154765 L40.2600098,60.0146283 L39.2443848,60.0146283 L39.2443848,61.154765 L38.5534668,61.154765 L38.5534668,58.4936322 Z M42.1838379,59.0551557 L41.3781738,59.0551557 L41.3781738,58.4936322 L43.6779785,58.4936322 L43.6779785,59.0551557 L42.8723145,59.0551557 L42.8723145,61.154765 L42.1838379,61.154765 L42.1838379,59.0551557 Z M43.9489746,59.8241986 C43.9489746,59.6191195 43.9803057,59.4303193 44.0429688,59.2577924 C44.1056318,59.0852655 44.195963,58.9367481 44.3139648,58.8122357 C44.4319667,58.6877234 44.5747876,58.590475 44.7424316,58.5204877 C44.9100757,58.4505004 45.0988759,58.4155072 45.3088379,58.4155072 C45.5220551,58.4155072 45.7128898,58.4505004 45.8813477,58.5204877 C46.0498055,58.590475 46.1922195,58.6877234 46.3085938,58.8122357 C46.424968,58.9367481 46.5140785,59.0852655 46.5759277,59.2577924 C46.637777,59.4303193 46.6687012,59.6191195 46.6687012,59.8241986 C46.6687012,60.0292778 46.637777,60.218078 46.5759277,60.3906049 C46.5140785,60.5631318 46.424968,60.7120561 46.3085938,60.8373822 C46.1922195,60.9627084 46.0498055,61.0603636 45.8813477,61.130351 C45.7128898,61.2003383 45.5220551,61.2353314 45.3088379,61.2353314 C45.0988759,61.2353314 44.9100757,61.2003383 44.7424316,61.130351 C44.5747876,61.0603636 44.4319667,60.9627084 44.3139648,60.8373822 C44.195963,60.7120561 44.1056318,60.5631318 44.0429688,60.3906049 C43.9803057,60.218078 43.9489746,60.0292778 43.9489746,59.8241986 L43.9489746,59.8241986 Z M44.6691895,59.8241986 C44.6691895,59.9251106 44.6801757,60.0248003 44.7021484,60.1232709 C44.7241212,60.2217414 44.760335,60.3096312 44.810791,60.3869428 C44.861247,60.4642543 44.9271643,60.5265096 45.0085449,60.5737103 C45.0899255,60.6209111 45.1900222,60.6445111 45.3088379,60.6445111 C45.4325364,60.6445111 45.5354814,60.621318 45.6176758,60.574931 C45.6998702,60.5285441 45.7653806,60.4675095 45.814209,60.3918256 C45.8630374,60.3161416 45.8976236,60.2290657 45.9179688,60.1305951 C45.9383139,60.0321246 45.9484863,59.9299934 45.9484863,59.8241986 C45.9484863,59.7200314 45.9383139,59.6183072 45.9179688,59.5190228 C45.8976236,59.4197385 45.8630374,59.3322556 45.814209,59.2565717 C45.7653806,59.1808877 45.6998702,59.1198532 45.6176758,59.0734662 C45.5354814,59.0270792 45.4325364,59.0038861 45.3088379,59.0038861 C45.1900222,59.0038861 45.0899255,59.0274861 45.0085449,59.0746869 C44.9271643,59.1218877 44.861247,59.1841429 44.810791,59.2614545 C44.760335,59.3387661 44.7241212,59.4266558 44.7021484,59.5251264 C44.6801757,59.6235969 44.6691895,59.7232867 44.6691895,59.8241986 L44.6691895,59.8241986 Z M47.166748,58.4936322 L47.857666,58.4936322 L47.857666,59.4555463 L48.873291,59.4555463 L48.873291,58.4936322 L49.5617676,58.4936322 L49.5617676,61.154765 L48.873291,61.154765 L48.873291,60.0146283 L47.857666,60.0146283 L47.857666,61.154765 L47.166748,61.154765 L47.166748,58.4936322 Z M51.685791,61.1108197 C51.6337074,61.2638153 51.5865074,61.3968706 51.5441895,61.5099896 C51.5018715,61.6231087 51.4599611,61.720764 51.418457,61.8029584 C51.3769529,61.8851528 51.333008,61.9526977 51.2866211,62.0055951 C51.2402341,62.0584925 51.1861168,62.1004029 51.1242676,62.1313275 C51.0624183,62.1622522 50.9899906,62.1838177 50.9069824,62.1960248 C50.8239742,62.2082319 50.7255051,62.2143353 50.6115723,62.2143353 C50.5659991,62.2143353 50.5232749,62.2131146 50.4833984,62.2106732 C50.4435219,62.2082318 50.395915,62.2045697 50.3405762,62.1996869 L50.3405762,61.6406049 C50.3682456,61.6438601 50.4024249,61.6471153 50.4431152,61.6503705 C50.4838055,61.6536257 50.5179849,61.6552533 50.5456543,61.6552533 C50.6188969,61.6552533 50.6807452,61.6414188 50.7312012,61.6137494 C50.7816572,61.58608 50.82194,61.5531213 50.8520508,61.5148725 C50.8821616,61.4766236 50.9037271,61.4371546 50.916748,61.3964642 C50.9297689,61.3557739 50.9362793,61.3215946 50.9362793,61.2939252 L49.9621582,58.4936322 L50.736084,58.4936322 L51.307373,60.4540814 L51.3171387,60.4540814 L51.8615723,58.4936322 L52.6013184,58.4936322 L51.685791,61.1108197 Z M55.4455566,57.5658978 L56.3024902,57.5658978 L57.5720215,61.154765 L56.7565918,61.154765 L56.5270996,60.4150189 L55.201416,60.4150189 L54.9523926,61.154765 L54.161377,61.154765 L55.4455566,57.5658978 Z M55.4016113,59.7949017 L56.3171387,59.7949017 L55.8703613,58.3740033 L55.8605957,58.3740033 L55.4016113,59.7949017 Z M58.001709,58.4936322 L58.692627,58.4936322 L58.692627,59.4555463 L59.708252,59.4555463 L59.708252,58.4936322 L60.3967285,58.4936322 L60.3967285,61.154765 L59.708252,61.154765 L59.708252,60.0146283 L58.692627,60.0146283 L58.692627,61.154765 L58.001709,61.154765 L58.001709,58.4936322 Z M60.826416,60.595683 L61.1022949,60.595683 C61.1673994,60.4736121 61.2215167,60.3454395 61.2646484,60.2111615 C61.3077802,60.0768835 61.3423664,59.9413868 61.3684082,59.8046674 C61.39445,59.6679479 61.4131673,59.5340788 61.4245605,59.403056 C61.4359538,59.2720333 61.4440918,59.1487435 61.4489746,59.033183 C61.4538574,58.9176225 61.4558919,58.8134569 61.4550781,58.720683 C61.4542643,58.6279091 61.4546712,58.5522263 61.4562988,58.4936322 L63.536377,58.4936322 L63.536377,60.595683 L63.8708496,60.595683 L63.8708496,61.7944135 L63.2214355,61.7944135 L63.2214355,61.154765 L61.4758301,61.154765 L61.4758301,61.7944135 L60.826416,61.7944135 L60.826416,60.595683 Z M62.8479004,60.595683 L62.8479004,59.0551557 L62.0568848,59.0551557 C62.0568848,59.103984 62.0564779,59.1642048 62.0556641,59.2358197 C62.0548503,59.3074347 62.0515951,59.3867796 62.0458984,59.4738568 C62.0402018,59.5609341 62.0320639,59.6532997 62.0214844,59.7509564 C62.0109049,59.8486132 61.9954428,59.9462684 61.9750977,60.0439252 C61.9547525,60.1415819 61.9303387,60.2376096 61.9018555,60.3320111 C61.8733723,60.4264126 61.8379722,60.5143024 61.7956543,60.595683 L62.8479004,60.595683 Z M64.2321777,58.4936322 L64.8913574,58.4936322 L64.8913574,58.8744916 L64.901123,58.8744916 C64.9483238,58.7947386 64.9979652,58.725973 65.0500488,58.6681928 C65.1021324,58.6104125 65.1599118,58.5628056 65.2233887,58.5253705 C65.2868656,58.4879354 65.3572587,58.4602664 65.4345703,58.4423627 C65.5118819,58.4244589 65.5993647,58.4155072 65.6970215,58.4155072 C65.7784021,58.4155072 65.8622229,58.4252727 65.9484863,58.4448041 C66.0347498,58.4643354 66.1189775,58.4956665 66.2011719,58.5387982 C66.2833663,58.58193 66.3610836,58.6380817 66.4343262,58.7072553 C66.5075687,58.7764288 66.5718584,58.8614703 66.6271973,58.9623822 C66.6825361,59.0632942 66.726481,59.1808874 66.7590332,59.3151654 C66.7915854,59.4494434 66.8078613,59.6028436 66.8078613,59.7753705 C66.8078613,59.9902153 66.7846682,60.1871535 66.7382812,60.3661908 C66.6918943,60.5452282 66.621908,60.6990352 66.5283203,60.8276166 C66.4347326,60.956198 66.3167325,61.0562946 66.1743164,61.1279096 C66.0319003,61.1995245 65.8646657,61.2353314 65.6726074,61.2353314 C65.6058753,61.2353314 65.5383304,61.2288211 65.4699707,61.2158002 C65.401611,61.2027793 65.3348799,61.1808068 65.2697754,61.1498822 C65.2046709,61.1189576 65.1432295,61.0770472 65.0854492,61.0241498 C65.027669,60.9712524 64.9768069,60.9049282 64.9328613,60.8251752 L64.9230957,60.8251752 L64.9230957,62.1850385 L64.2321777,62.1850385 L64.2321777,58.4936322 Z M65.4919434,59.0356244 C65.3812657,59.0356244 65.2880863,59.0592244 65.2124023,59.1064252 C65.1367184,59.1536259 65.0756838,59.2146605 65.0292969,59.2895307 C64.9829099,59.3644008 64.9491375,59.4490354 64.9279785,59.5434369 C64.9068196,59.6378384 64.8962402,59.7314247 64.8962402,59.8241986 C64.8962402,59.8746546 64.8990885,59.9295857 64.9047852,59.9889935 C64.9104818,60.0484014 64.921468,60.1086221 64.9377441,60.1696576 C64.9540203,60.2306931 64.9763996,60.2896931 65.0048828,60.3466596 C65.033366,60.403626 65.0695799,60.4540812 65.1135254,60.4980267 C65.1574709,60.5419723 65.2103675,60.5773723 65.2722168,60.6042279 C65.3340661,60.6310835 65.4073075,60.6445111 65.4919434,60.6445111 C65.5765792,60.6445111 65.6498207,60.6310835 65.7116699,60.6042279 C65.7735192,60.5773723 65.8264158,60.5419723 65.8703613,60.4980267 C65.9143069,60.4540812 65.9505207,60.403626 65.9790039,60.3466596 C66.0074871,60.2896931 66.0298665,60.2306931 66.0461426,60.1696576 C66.0624187,60.1086221 66.0734049,60.0484014 66.0791016,59.9889935 C66.0847982,59.9295857 66.0876465,59.8746546 66.0876465,59.8241986 C66.0876465,59.7314247 66.0770672,59.6378384 66.0559082,59.5434369 C66.0347492,59.4490354 66.0009768,59.3644008 65.9545898,59.2895307 C65.9082029,59.2146605 65.8467615,59.1536259 65.7702637,59.1064252 C65.6937659,59.0592244 65.6009934,59.0356244 65.4919434,59.0356244 L65.4919434,59.0356244 Z M67.3059082,58.4936322 L67.9968262,58.4936322 L67.9968262,60.1342572 L68.0065918,60.1342572 L68.9758301,58.4936322 L69.7009277,58.4936322 L69.7009277,61.154765 L69.0124512,61.154765 L69.0124512,59.5507611 L69.0002441,59.5507611 L68.0603027,61.154765 L67.3059082,61.154765 L67.3059082,58.4936322 Z M72.5109863,60.6298627 C72.5109863,60.7096157 72.5154622,60.7751261 72.5244141,60.8263959 C72.5333659,60.8776657 72.5451659,60.9183554 72.5598145,60.9484662 C72.574463,60.978577 72.5911457,61.0005495 72.6098633,61.0143842 C72.6285808,61.0282189 72.6485188,61.0383913 72.6696777,61.0449017 L72.6696777,61.154765 L71.9055176,61.154765 C71.8924967,61.1238404 71.8782553,61.0827438 71.862793,61.031474 C71.8473307,60.9802042 71.8395996,60.917949 71.8395996,60.8447064 C71.7858884,60.9000453 71.7333987,60.9513143 71.6821289,60.998515 C71.6308591,61.0457158 71.5734866,61.0868124 71.5100098,61.121806 C71.4465329,61.1567997 71.3732914,61.1844687 71.2902832,61.2048139 C71.207275,61.225159 71.1071783,61.2353314 70.9899902,61.2353314 C70.8711745,61.2353314 70.7617193,61.2178349 70.6616211,61.1828412 C70.5615229,61.1478475 70.4748539,61.0961716 70.4016113,61.0278119 C70.3283688,60.9594522 70.2714032,60.8740038 70.2307129,60.7714642 C70.1900226,60.6689247 70.1696777,60.5501108 70.1696777,60.4150189 C70.1696777,60.3059689 70.1867674,60.2046516 70.2209473,60.1110639 C70.2551271,60.0174761 70.3035479,59.935283 70.3662109,59.8644818 C70.428874,59.7936807 70.5053706,59.7350875 70.5957031,59.6887006 C70.6860356,59.6423136 70.787353,59.6109826 70.8996582,59.5947064 L71.5759277,59.4946088 C71.6003419,59.4913536 71.6267902,59.4864708 71.6552734,59.4799603 C71.6837567,59.4734499 71.710205,59.4624637 71.7346191,59.4470014 C71.7590333,59.431539 71.7793782,59.4103804 71.7956543,59.3835248 C71.8119304,59.3566692 71.8200684,59.3204554 71.8200684,59.2748822 C71.8200684,59.2309367 71.8131511,59.1906539 71.7993164,59.1540326 C71.7854817,59.1174113 71.7622886,59.0856734 71.7297363,59.0588178 C71.6971841,59.0319622 71.6536461,59.0112104 71.5991211,58.9965619 C71.5445961,58.9819134 71.4766443,58.9745892 71.3952637,58.9745892 C71.3024898,58.9745892 71.2280276,58.9839479 71.171875,59.0026654 C71.1157224,59.021383 71.0713706,59.0474244 71.0388184,59.0807904 C71.0062661,59.1141565 70.9826661,59.1532186 70.9680176,59.1979779 C70.9533691,59.2427373 70.9427897,59.2903442 70.9362793,59.3408002 L70.2453613,59.3408002 C70.2453613,59.3082479 70.250651,59.2630824 70.2612305,59.2053021 C70.2718099,59.1475219 70.291341,59.0844529 70.3198242,59.0160932 C70.3483074,58.9477334 70.3881833,58.878561 70.4394531,58.8085736 C70.4907229,58.7385863 70.5582678,58.6747035 70.6420898,58.6169232 C70.7259119,58.559143 70.828043,58.511536 70.9484863,58.474101 C71.0689296,58.4366659 71.2129712,58.4171348 71.3806152,58.4155072 C71.6182466,58.4155072 71.8107089,58.4395141 71.9580078,58.4875287 C72.1053067,58.5355433 72.2200517,58.5982054 72.3022461,58.675517 C72.3844405,58.7528286 72.4397785,58.8390907 72.4682617,58.934306 C72.4967449,59.0295214 72.5109863,59.1243284 72.5109863,59.2187299 L72.5109863,60.6298627 Z M71.8200684,59.8559369 C71.7777504,59.8787235 71.7354332,59.8994752 71.6931152,59.9181928 C71.6507973,59.9369103 71.5946455,59.9527793 71.5246582,59.9658002 L71.3415527,59.9999799 C71.2617997,60.0146284 71.1918135,60.0317181 71.1315918,60.0512494 C71.0713701,60.0707808 71.0213218,60.0964153 70.9814453,60.1281537 C70.9415688,60.1598921 70.9114584,60.1985474 70.8911133,60.2441205 C70.8707681,60.2896936 70.8605957,60.3466592 70.8605957,60.4150189 C70.8605957,60.4719854 70.8695474,60.5212199 70.8874512,60.562724 C70.9053549,60.6042281 70.9301756,60.6384075 70.9619141,60.6652631 C70.9936525,60.6921187 71.0306801,60.7120566 71.072998,60.7250775 C71.115316,60.7380984 71.1608884,60.7446088 71.2097168,60.7446088 C71.2357586,60.7446088 71.2691241,60.7417605 71.3098145,60.7360639 C71.3505048,60.7303672 71.3936358,60.719381 71.439209,60.7031049 C71.4847821,60.6868287 71.5303546,60.6644494 71.5759277,60.6359662 C71.6215009,60.607483 71.6621906,60.5704554 71.697998,60.5248822 C71.7338055,60.4793091 71.7631021,60.4235642 71.7858887,60.3576459 C71.8086752,60.2917276 71.8200684,60.2140103 71.8200684,60.1244916 L71.8200684,59.8559369 Z M73.1408691,58.4936322 L73.8317871,58.4936322 L73.8317871,59.4555463 L74.8474121,59.4555463 L74.8474121,58.4936322 L75.5358887,58.4936322 L75.5358887,61.154765 L74.8474121,61.154765 L74.8474121,60.0146283 L73.8317871,60.0146283 L73.8317871,61.154765 L73.1408691,61.154765 L73.1408691,58.4936322 Z M76.036377,59.8241986 C76.036377,59.6191195 76.067708,59.4303193 76.1303711,59.2577924 C76.1930342,59.0852655 76.2833653,58.9367481 76.4013672,58.8122357 C76.5193691,58.6877234 76.6621899,58.590475 76.829834,58.5204877 C76.9974781,58.4505004 77.1862782,58.4155072 77.3962402,58.4155072 C77.6094574,58.4155072 77.8002921,58.4505004 77.96875,58.5204877 C78.1372079,58.590475 78.2796218,58.6877234 78.3959961,58.8122357 C78.5123704,58.9367481 78.6014808,59.0852655 78.6633301,59.2577924 C78.7251793,59.4303193 78.7561035,59.6191195 78.7561035,59.8241986 C78.7561035,60.0292778 78.7251793,60.218078 78.6633301,60.3906049 C78.6014808,60.5631318 78.5123704,60.7120561 78.3959961,60.8373822 C78.2796218,60.9627084 78.1372079,61.0603636 77.96875,61.130351 C77.8002921,61.2003383 77.6094574,61.2353314 77.3962402,61.2353314 C77.1862782,61.2353314 76.9974781,61.2003383 76.829834,61.130351 C76.6621899,61.0603636 76.5193691,60.9627084 76.4013672,60.8373822 C76.2833653,60.7120561 76.1930342,60.5631318 76.1303711,60.3906049 C76.067708,60.218078 76.036377,60.0292778 76.036377,59.8241986 L76.036377,59.8241986 Z M76.7565918,59.8241986 C76.7565918,59.9251106 76.767578,60.0248003 76.7895508,60.1232709 C76.8115235,60.2217414 76.8477374,60.3096312 76.8981934,60.3869428 C76.9486493,60.4642543 77.0145667,60.5265096 77.0959473,60.5737103 C77.1773279,60.6209111 77.2774245,60.6445111 77.3962402,60.6445111 C77.5199388,60.6445111 77.6228837,60.621318 77.7050781,60.574931 C77.7872725,60.5285441 77.852783,60.4675095 77.9016113,60.3918256 C77.9504397,60.3161416 77.9850259,60.2290657 78.0053711,60.1305951 C78.0257162,60.0321246 78.0358887,59.9299934 78.0358887,59.8241986 C78.0358887,59.7200314 78.0257162,59.6183072 78.0053711,59.5190228 C77.9850259,59.4197385 77.9504397,59.3322556 77.9016113,59.2565717 C77.852783,59.1808877 77.7872725,59.1198532 77.7050781,59.0734662 C77.6228837,59.0270792 77.5199388,59.0038861 77.3962402,59.0038861 C77.2774245,59.0038861 77.1773279,59.0274861 77.0959473,59.0746869 C77.0145667,59.1218877 76.9486493,59.1841429 76.8981934,59.2614545 C76.8477374,59.3387661 76.8115235,59.4266558 76.7895508,59.5251264 C76.767578,59.6235969 76.7565918,59.7232867 76.7565918,59.8241986 L76.7565918,59.8241986 Z M79.9645996,59.5385541 L80.4968262,59.5385541 C80.5749516,59.5385541 80.6400551,59.5324506 80.6921387,59.5202435 C80.7442223,59.5080365 80.7853189,59.490133 80.8154297,59.4665326 C80.8455405,59.4429322 80.8666992,59.4136356 80.8789062,59.378642 C80.8911133,59.3436483 80.8972168,59.3025517 80.8972168,59.255351 C80.8972168,59.2162883 80.8911133,59.1800744 80.8789062,59.1467084 C80.8666992,59.1133423 80.8459474,59.0848595 80.8166504,59.0612592 C80.7873534,59.0376588 80.7482913,59.0189415 80.6994629,59.0051068 C80.6506345,58.9912721 80.5896,58.9843549 80.5163574,58.9843549 L79.9645996,58.9843549 L79.9645996,59.5385541 Z M79.2736816,58.4936322 L80.6506348,58.4936322 C80.7727057,58.4936322 80.8902989,58.5042115 81.003418,58.5253705 C81.116537,58.5465295 81.2162268,58.5835571 81.3024902,58.6364545 C81.3887537,58.6893519 81.4575193,58.7609657 81.5087891,58.8512982 C81.5600589,58.9416307 81.5856934,59.0559688 81.5856934,59.1943158 C81.5856934,59.2740688 81.5771485,59.3432413 81.5600586,59.4018353 C81.5429687,59.4604294 81.5197755,59.5104777 81.4904785,59.5519818 C81.4611815,59.5934859 81.427409,59.6284791 81.3891602,59.6569623 C81.3509113,59.6854455 81.3114423,59.7094524 81.270752,59.7289838 C81.4042162,59.7761845 81.5059404,59.8514605 81.5759277,59.9548139 C81.6459151,60.0581672 81.6809082,60.181457 81.6809082,60.3246869 C81.6809082,60.4500131 81.6593427,60.5635373 81.6162109,60.6652631 C81.5730792,60.7669888 81.5120447,60.8540648 81.4331055,60.9264935 C81.3541663,60.9989223 81.2581386,61.0550741 81.1450195,61.0949506 C81.0319005,61.1348271 80.9053555,61.154765 80.7653809,61.154765 L79.2736816,61.154765 L79.2736816,58.4936322 Z M79.9645996,60.6640424 L80.4968262,60.6640424 C80.5961105,60.6640424 80.6762692,60.6534631 80.7373047,60.6323041 C80.7983401,60.6111451 80.8455402,60.5842899 80.8789062,60.5517377 C80.9122723,60.5191854 80.9342447,60.4833785 80.9448242,60.4443158 C80.9554037,60.4052531 80.9606934,60.3686324 80.9606934,60.3344525 C80.9606934,60.269348 80.9521485,60.2152307 80.9350586,60.172099 C80.9179687,60.1289673 80.8911135,60.094381 80.8544922,60.0683392 C80.8178709,60.0422975 80.7698571,60.024394 80.7104492,60.0146283 C80.6510414,60.0048626 80.5798344,59.9999799 80.4968262,59.9999799 L79.9645996,59.9999799 L79.9645996,60.6640424 Z M83.6999512,61.1108197 C83.6478676,61.2638153 83.6006675,61.3968706 83.5583496,61.5099896 C83.5160317,61.6231087 83.4741213,61.720764 83.4326172,61.8029584 C83.3911131,61.8851528 83.3471682,61.9526977 83.3007812,62.0055951 C83.2543943,62.0584925 83.200277,62.1004029 83.1384277,62.1313275 C83.0765785,62.1622522 83.0041508,62.1838177 82.9211426,62.1960248 C82.8381344,62.2082319 82.7396653,62.2143353 82.6257324,62.2143353 C82.5801593,62.2143353 82.5374351,62.2131146 82.4975586,62.2106732 C82.4576821,62.2082318 82.4100751,62.2045697 82.3547363,62.1996869 L82.3547363,61.6406049 C82.3824057,61.6438601 82.4165851,61.6471153 82.4572754,61.6503705 C82.4979657,61.6536257 82.532145,61.6552533 82.5598145,61.6552533 C82.633057,61.6552533 82.6949053,61.6414188 82.7453613,61.6137494 C82.7958173,61.58608 82.8361001,61.5531213 82.8662109,61.5148725 C82.8963218,61.4766236 82.9178873,61.4371546 82.9309082,61.3964642 C82.9439291,61.3557739 82.9504395,61.3215946 82.9504395,61.2939252 L81.9763184,58.4936322 L82.7502441,58.4936322 L83.3215332,60.4540814 L83.3312988,60.4540814 L83.8757324,58.4936322 L84.6154785,58.4936322 L83.6999512,61.1108197 Z M24.9719238,66.3183392 C24.9719238,66.4599415 24.9947101,66.5771278 25.0402832,66.6699017 C25.124919,66.840801 25.2787261,66.9262494 25.501709,66.9262494 C25.6384284,66.9262494 25.7576492,66.8794563 25.859375,66.7858685 C25.9611008,66.6922808 26.0119629,66.5575979 26.0119629,66.3818158 C26.0119629,66.1490672 25.9175628,65.9936326 25.7287598,65.9155072 C25.6213374,65.8715617 25.4520682,65.8495892 25.2209473,65.8495892 L25.2209473,65.3515424 C25.4471854,65.3482871 25.6050614,65.3263147 25.6945801,65.2856244 C25.8492032,65.2172647 25.9265137,65.0789197 25.9265137,64.8705853 C25.9265137,64.7354935 25.8870447,64.6256313 25.8081055,64.5409955 C25.7291663,64.4563597 25.6180834,64.4140424 25.4748535,64.4140424 C25.3104647,64.4140424 25.1896163,64.4661252 25.1123047,64.5702924 C25.0349931,64.6744596 24.9979655,64.8136183 25.0012207,64.9877728 L24.3518066,64.9877728 C24.3583171,64.8119907 24.3884275,64.645163 24.4421387,64.4872846 C24.4991051,64.3489375 24.5886224,64.2211719 24.7106934,64.1039838 C24.8018396,64.0209756 24.9100742,63.9574996 25.0354004,63.9135541 C25.1607265,63.8696086 25.3145336,63.8476361 25.4968262,63.8476361 C25.8353695,63.8476361 26.1083974,63.935119 26.315918,64.1100873 C26.5234385,64.2850556 26.6271973,64.5198352 26.6271973,64.814433 C26.6271973,65.0227674 26.5653489,65.1985469 26.4416504,65.3417767 C26.363525,65.4312954 26.2821456,65.49233 26.1975098,65.5248822 C26.2609866,65.5248822 26.3521316,65.5794064 26.4709473,65.6884564 C26.648357,65.8528453 26.7370605,66.0774524 26.7370605,66.3622846 C26.7370605,66.6617652 26.6333018,66.9250276 26.4257812,67.1520795 C26.2182607,67.3791314 25.9110535,67.4926557 25.5041504,67.4926557 C25.0028458,67.4926557 24.654542,67.3290831 24.4592285,67.001933 C24.3566889,66.8277785 24.2997234,66.5999162 24.2883301,66.3183392 L24.9719238,66.3183392 Z M27.2839355,64.9633588 L27.2839355,64.489726 C27.5036632,64.4799603 27.6574703,64.465312 27.7453613,64.4457807 C27.885336,64.414856 27.9992671,64.3530077 28.0871582,64.2602338 C28.1473799,64.1967569 28.1929523,64.1121223 28.223877,64.0063275 C28.2417807,63.9428506 28.2507324,63.8956506 28.2507324,63.864726 L28.8293457,63.864726 L28.8293457,67.404765 L28.1164551,67.404765 L28.1164551,64.9633588 L27.2839355,64.9633588 Z M31.2780762,66.0741986 C31.2780762,65.8691195 31.3094072,65.6803193 31.3720703,65.5077924 C31.4347334,65.3352655 31.5250645,65.1867481 31.6430664,65.0622357 C31.7610683,64.9377234 31.9038891,64.840475 32.0715332,64.7704877 C32.2391773,64.7005004 32.4279775,64.6655072 32.6379395,64.6655072 C32.8511567,64.6655072 33.0419913,64.7005004 33.2104492,64.7704877 C33.3789071,64.840475 33.521321,64.9377234 33.6376953,65.0622357 C33.7540696,65.1867481 33.84318,65.3352655 33.9050293,65.5077924 C33.9668786,65.6803193 33.9978027,65.8691195 33.9978027,66.0741986 C33.9978027,66.2792778 33.9668786,66.468078 33.9050293,66.6406049 C33.84318,66.8131318 33.7540696,66.9620561 33.6376953,67.0873822 C33.521321,67.2127084 33.3789071,67.3103636 33.2104492,67.380351 C33.0419913,67.4503383 32.8511567,67.4853314 32.6379395,67.4853314 C32.4279775,67.4853314 32.2391773,67.4503383 32.0715332,67.380351 C31.9038891,67.3103636 31.7610683,67.2127084 31.6430664,67.0873822 C31.5250645,66.9620561 31.4347334,66.8131318 31.3720703,66.6406049 C31.3094072,66.468078 31.2780762,66.2792778 31.2780762,66.0741986 L31.2780762,66.0741986 Z M31.998291,66.0741986 C31.998291,66.1751106 32.0092772,66.2748003 32.03125,66.3732709 C32.0532228,66.4717414 32.0894366,66.5596312 32.1398926,66.6369428 C32.1903486,66.7142543 32.2562659,66.7765096 32.3376465,66.8237103 C32.4190271,66.8709111 32.5191238,66.8945111 32.6379395,66.8945111 C32.761638,66.8945111 32.8645829,66.871318 32.9467773,66.824931 C33.0289718,66.7785441 33.0944822,66.7175095 33.1433105,66.6418256 C33.1921389,66.5661416 33.2267252,66.4790657 33.2470703,66.3805951 C33.2674155,66.2821246 33.2775879,66.1799934 33.2775879,66.0741986 C33.2775879,65.9700314 33.2674155,65.8683072 33.2470703,65.7690228 C33.2267252,65.6697385 33.1921389,65.5822556 33.1433105,65.5065717 C33.0944822,65.4308877 33.0289718,65.3698532 32.9467773,65.3234662 C32.8645829,65.2770792 32.761638,65.2538861 32.6379395,65.2538861 C32.5191238,65.2538861 32.4190271,65.2774861 32.3376465,65.3246869 C32.2562659,65.3718877 32.1903486,65.4341429 32.1398926,65.5114545 C32.0894366,65.5887661 32.0532228,65.6766558 32.03125,65.7751264 C32.0092772,65.8735969 31.998291,65.9732867 31.998291,66.0741986 L31.998291,66.0741986 Z M34.5153809,64.7436322 L35.2062988,64.7436322 L35.2062988,65.7543744 L36.2023926,64.7436322 L37.1203613,64.7436322 L36.0217285,65.8495892 L37.166748,67.404765 L36.2658691,67.404765 L35.4846191,66.2817182 L35.2062988,66.5624799 L35.2062988,67.404765 L34.5153809,67.404765 L34.5153809,64.7436322 Z M38.1262207,65.3051557 L37.3205566,65.3051557 L37.3205566,64.7436322 L39.6203613,64.7436322 L39.6203613,65.3051557 L38.8146973,65.3051557 L38.8146973,67.404765 L38.1262207,67.404765 L38.1262207,65.3051557 Z M42.4499512,67.404765 L41.7565918,67.404765 L41.7565918,66.4257611 L41.3049316,66.4257611 C41.2056473,66.4257611 41.1206058,66.4294232 41.0498047,66.4367475 C40.9790036,66.4440717 40.9208173,66.4611614 40.8752441,66.488017 C40.829671,66.5148726 40.7950848,66.5543416 40.7714844,66.6064252 C40.747884,66.6585088 40.7344564,66.7293089 40.7312012,66.8188275 L40.7214355,67.0751752 C40.7181803,67.1126103 40.7137045,67.1614379 40.7080078,67.2216596 C40.7023112,67.2818812 40.6864422,67.3429158 40.6604004,67.404765 L39.9304199,67.404765 C39.9515789,67.3689576 39.9686686,67.3343713 39.9816895,67.3010053 C39.9947104,67.2676392 40.0048828,67.2350875 40.012207,67.203349 C40.0195313,67.1716106 40.0252278,67.1394657 40.0292969,67.1069135 C40.0333659,67.0743612 40.037028,67.0401819 40.0402832,67.0043744 L40.0744629,66.6845502 C40.082601,66.6129352 40.0923665,66.5510869 40.1037598,66.4990033 C40.1151531,66.4469197 40.1338703,66.4017542 40.1599121,66.3635053 C40.1859539,66.3252564 40.2217608,66.2922977 40.267334,66.2646283 C40.3129071,66.2369589 40.3739417,66.2117313 40.4504395,66.1889447 C40.4260253,66.1824343 40.3987632,66.1730756 40.3686523,66.1608685 C40.3385415,66.1486615 40.3068036,66.1323856 40.2734375,66.1120404 C40.2400714,66.0916953 40.2067059,66.0656539 40.1733398,66.0339154 C40.1399738,66.002177 40.1086427,65.962708 40.0793457,65.9155072 C40.0581867,65.8845826 40.041504,65.8516239 40.0292969,65.8166303 C40.0170898,65.7816366 40.0077312,65.7474573 40.0012207,65.7140912 C39.9947103,65.6807251 39.9906413,65.6493941 39.9890137,65.6200971 C39.9873861,65.5908 39.9865723,65.5655724 39.9865723,65.5444135 C39.9865723,65.450012 39.9979654,65.3657843 40.020752,65.2917279 C40.0435385,65.2176716 40.0728351,65.1529749 40.1086426,65.0976361 C40.14445,65.0422973 40.1851397,64.9950973 40.2307129,64.9560346 C40.276286,64.9169719 40.3226723,64.8852339 40.369873,64.8608197 C40.4219566,64.8315227 40.479736,64.8091434 40.5432129,64.793681 C40.6066898,64.7782187 40.6685381,64.7668256 40.7287598,64.7595014 C40.7889814,64.7521771 40.8451332,64.7477012 40.8972168,64.7460736 C40.9493004,64.744446 40.9899901,64.7436322 41.0192871,64.7436322 L42.4499512,64.7436322 L42.4499512,67.404765 Z M41.7565918,65.2636517 L41.1999512,65.2636517 C41.1413571,65.2636517 41.082764,65.2652793 41.0241699,65.2685346 C40.9655759,65.2717898 40.9130862,65.2844036 40.8666992,65.3063764 C40.8203123,65.3283491 40.7828777,65.3625285 40.7543945,65.4089154 C40.7259113,65.4553024 40.7116699,65.5208128 40.7116699,65.6054486 C40.7116699,65.6884568 40.7259113,65.7519328 40.7543945,65.7958783 C40.7828777,65.8398238 40.8194985,65.8723756 40.8642578,65.8935346 C40.9090172,65.9146935 40.9590655,65.9269004 41.0144043,65.9301557 C41.0697431,65.9334109 41.1250811,65.9350385 41.1804199,65.9350385 L41.7565918,65.9350385 L41.7565918,65.2636517 Z M45.4284668,63.7743939 C45.4300944,63.9111134 45.4064944,64.02301 45.357666,64.1100873 C45.3088376,64.1971646 45.244141,64.2671508 45.1635742,64.3200482 C45.0830074,64.3729456 44.9902349,64.4111939 44.8852539,64.4347943 C44.7802729,64.4583947 44.6724452,64.4742637 44.5617676,64.4824017 C44.4852698,64.4889122 44.4063318,64.4990846 44.3249512,64.5129193 C44.2435706,64.526754 44.1638187,64.5479127 44.0856934,64.5763959 C44.007568,64.6048791 43.9335127,64.6423136 43.8635254,64.6887006 C43.7935381,64.7350875 43.7308759,64.79246 43.6755371,64.8608197 C43.6201983,64.9291794 43.5746258,65.0105588 43.5388184,65.1049603 C43.5030109,65.1993619 43.4810385,65.3100378 43.4729004,65.4369916 C43.4989422,65.3523558 43.5404457,65.272197 43.5974121,65.1965131 C43.6543785,65.1208291 43.7255855,65.0549118 43.8110352,64.9987592 C43.8964848,64.9426065 43.9953608,64.8978479 44.107666,64.8644818 C44.2199713,64.8311158 44.3444817,64.814433 44.4812012,64.814433 C44.6634938,64.814433 44.8278801,64.8449503 44.9743652,64.9059857 C45.1208503,64.9670212 45.2453608,65.0528765 45.3479004,65.1635541 C45.45044,65.2742317 45.5289711,65.4076939 45.5834961,65.5639447 C45.6380211,65.7201955 45.6652832,65.8935336 45.6652832,66.0839642 C45.6652832,66.2955538 45.6339521,66.4876092 45.5712891,66.6601361 C45.508626,66.832663 45.4191087,66.9803666 45.3027344,67.1032514 C45.1863601,67.2261361 45.0443531,67.32135 44.876709,67.3888959 C44.7090649,67.4564418 44.5202647,67.4902142 44.3103027,67.4902142 C44.0043116,67.4902142 43.7512217,67.4275521 43.5510254,67.302226 C43.3508291,67.1768998 43.197022,66.9726375 43.0895996,66.689433 C43.0537921,66.5934039 43.0261231,66.4916796 43.0065918,66.3842572 C42.9870604,66.2768348 42.9728191,66.1759244 42.9638672,66.0815228 C42.9549153,65.9871213 42.9496257,65.9049281 42.947998,65.8349408 C42.9463704,65.7649535 42.9455566,65.7185672 42.9455566,65.6957807 C42.9455566,65.4418731 42.9748532,65.209535 43.0334473,64.9987592 C43.0920413,64.7879834 43.1852207,64.6044728 43.3129883,64.4482221 C43.4407558,64.2919713 43.6051422,64.1658332 43.8061523,64.0698041 C44.0071625,63.973775 44.2508937,63.9127404 44.5373535,63.8866986 C44.6284998,63.8785606 44.6931964,63.8635054 44.7314453,63.8415326 C44.7696942,63.8195598 44.7937011,63.7971805 44.8034668,63.7743939 L45.4284668,63.7743939 Z M43.6706543,66.0741986 C43.6706543,66.1751106 43.6816405,66.2748003 43.7036133,66.3732709 C43.725586,66.4717414 43.7617999,66.5596312 43.8122559,66.6369428 C43.8627118,66.7142543 43.9286292,66.7765096 44.0100098,66.8237103 C44.0913904,66.8709111 44.191487,66.8945111 44.3103027,66.8945111 C44.4356289,66.8945111 44.5393876,66.871318 44.621582,66.824931 C44.7037765,66.7785441 44.7692869,66.7175095 44.8181152,66.6418256 C44.8669436,66.5661416 44.9011229,66.4790657 44.9206543,66.3805951 C44.9401856,66.2821246 44.9499512,66.1799934 44.9499512,66.0741986 C44.9499512,65.9700314 44.9385581,65.8723762 44.9157715,65.7812299 C44.8929849,65.6900836 44.857178,65.6107387 44.8083496,65.5431928 C44.7595212,65.4756469 44.6960453,65.4227502 44.6179199,65.3845014 C44.5397945,65.3462525 44.4453944,65.3271283 44.3347168,65.3271283 C44.2159011,65.3271283 44.1145838,65.3470663 44.0307617,65.3869428 C43.9469397,65.4268193 43.8781741,65.4809366 43.8244629,65.5492963 C43.7707517,65.617656 43.7316896,65.6970009 43.7072754,65.7873334 C43.6828612,65.8776659 43.6706543,65.9732867 43.6706543,66.0741986 L43.6706543,66.0741986 Z M46.138916,64.7436322 L46.7980957,64.7436322 L46.7980957,65.1244916 L46.8078613,65.1244916 C46.8550621,65.0447386 46.9047035,64.975973 46.9567871,64.9181928 C47.0088707,64.8604125 47.0666501,64.8128056 47.130127,64.7753705 C47.1936038,64.7379354 47.263997,64.7102664 47.3413086,64.6923627 C47.4186202,64.6744589 47.506103,64.6655072 47.6037598,64.6655072 C47.6851404,64.6655072 47.7689612,64.6752727 47.8552246,64.6948041 C47.9414881,64.7143354 48.0257157,64.7456665 48.1079102,64.7887982 C48.1901046,64.83193 48.2678219,64.8880817 48.3410645,64.9572553 C48.414307,65.0264288 48.4785967,65.1114703 48.5339355,65.2123822 C48.5892744,65.3132942 48.6332192,65.4308874 48.6657715,65.5651654 C48.6983237,65.6994434 48.7145996,65.8528436 48.7145996,66.0253705 C48.7145996,66.2402153 48.6914065,66.4371535 48.6450195,66.6161908 C48.5986326,66.7952282 48.5286463,66.9490352 48.4350586,67.0776166 C48.3414709,67.206198 48.2234708,67.3062946 48.0810547,67.3779096 C47.9386386,67.4495245 47.771404,67.4853314 47.5793457,67.4853314 C47.5126136,67.4853314 47.4450687,67.4788211 47.376709,67.4658002 C47.3083493,67.4527793 47.2416182,67.4308068 47.1765137,67.3998822 C47.1114092,67.3689576 47.0499677,67.3270472 46.9921875,67.2741498 C46.9344073,67.2212524 46.8835451,67.1549282 46.8395996,67.0751752 L46.829834,67.0751752 L46.829834,68.4350385 L46.138916,68.4350385 L46.138916,64.7436322 Z M47.3986816,65.2856244 C47.288004,65.2856244 47.1948246,65.3092244 47.1191406,65.3564252 C47.0434567,65.4036259 46.9824221,65.4646605 46.9360352,65.5395307 C46.8896482,65.6144008 46.8558758,65.6990354 46.8347168,65.7934369 C46.8135578,65.8878384 46.8029785,65.9814247 46.8029785,66.0741986 C46.8029785,66.1246546 46.8058268,66.1795857 46.8115234,66.2389935 C46.8172201,66.2984014 46.8282063,66.3586221 46.8444824,66.4196576 C46.8607585,66.4806931 46.8831379,66.5396931 46.9116211,66.5966596 C46.9401043,66.653626 46.9763181,66.7040812 47.0202637,66.7480267 C47.0642092,66.7919723 47.1171058,66.8273723 47.1789551,66.8542279 C47.2408043,66.8810835 47.3140458,66.8945111 47.3986816,66.8945111 C47.4833175,66.8945111 47.5565589,66.8810835 47.6184082,66.8542279 C47.6802575,66.8273723 47.7331541,66.7919723 47.7770996,66.7480267 C47.8210451,66.7040812 47.857259,66.653626 47.8857422,66.5966596 C47.9142254,66.5396931 47.9366047,66.4806931 47.9528809,66.4196576 C47.969157,66.3586221 47.9801432,66.2984014 47.9858398,66.2389935 C47.9915365,66.1795857 47.9943848,66.1246546 47.9943848,66.0741986 C47.9943848,65.9814247 47.9838054,65.8878384 47.9626465,65.7934369 C47.9414875,65.6990354 47.9077151,65.6144008 47.8613281,65.5395307 C47.8149412,65.4646605 47.7534997,65.4036259 47.677002,65.3564252 C47.6005042,65.3092244 47.5077317,65.2856244 47.3986816,65.2856244 L47.3986816,65.2856244 Z M51.6125488,67.404765 L50.9191895,67.404765 L50.9191895,66.4257611 L50.4675293,66.4257611 C50.3682449,66.4257611 50.2832035,66.4294232 50.2124023,66.4367475 C50.1416012,66.4440717 50.0834149,66.4611614 50.0378418,66.488017 C49.9922687,66.5148726 49.9576824,66.5543416 49.934082,66.6064252 C49.9104817,66.6585088 49.8970541,66.7293089 49.8937988,66.8188275 L49.8840332,67.0751752 C49.880778,67.1126103 49.8763021,67.1614379 49.8706055,67.2216596 C49.8649088,67.2818812 49.8490398,67.3429158 49.822998,67.404765 L49.0930176,67.404765 C49.1141765,67.3689576 49.1312662,67.3343713 49.1442871,67.3010053 C49.157308,67.2676392 49.1674804,67.2350875 49.1748047,67.203349 C49.1821289,67.1716106 49.1878255,67.1394657 49.1918945,67.1069135 C49.1959636,67.0743612 49.1996256,67.0401819 49.2028809,67.0043744 L49.2370605,66.6845502 C49.2451986,66.6129352 49.2549641,66.5510869 49.2663574,66.4990033 C49.2777507,66.4469197 49.296468,66.4017542 49.3225098,66.3635053 C49.3485516,66.3252564 49.3843585,66.2922977 49.4299316,66.2646283 C49.4755048,66.2369589 49.5365393,66.2117313 49.6130371,66.1889447 C49.5886229,66.1824343 49.5613608,66.1730756 49.53125,66.1608685 C49.5011392,66.1486615 49.4694012,66.1323856 49.4360352,66.1120404 C49.4026691,66.0916953 49.3693036,66.0656539 49.3359375,66.0339154 C49.3025714,66.002177 49.2712404,65.962708 49.2419434,65.9155072 C49.2207844,65.8845826 49.2041016,65.8516239 49.1918945,65.8166303 C49.1796874,65.7816366 49.1703288,65.7474573 49.1638184,65.7140912 C49.1573079,65.6807251 49.1532389,65.6493941 49.1516113,65.6200971 C49.1499837,65.5908 49.1491699,65.5655724 49.1491699,65.5444135 C49.1491699,65.450012 49.160563,65.3657843 49.1833496,65.2917279 C49.2061362,65.2176716 49.2354328,65.1529749 49.2712402,65.0976361 C49.3070477,65.0422973 49.3477374,64.9950973 49.3933105,64.9560346 C49.4388837,64.9169719 49.4852699,64.8852339 49.5324707,64.8608197 C49.5845543,64.8315227 49.6423337,64.8091434 49.7058105,64.793681 C49.7692874,64.7782187 49.8311358,64.7668256 49.8913574,64.7595014 C49.9515791,64.7521771 50.0077309,64.7477012 50.0598145,64.7460736 C50.111898,64.744446 50.1525877,64.7436322 50.1818848,64.7436322 L51.6125488,64.7436322 L51.6125488,67.404765 Z M50.9191895,65.2636517 L50.3625488,65.2636517 C50.3039548,65.2636517 50.2453616,65.2652793 50.1867676,65.2685346 C50.1281735,65.2717898 50.0756838,65.2844036 50.0292969,65.3063764 C49.9829099,65.3283491 49.9454754,65.3625285 49.9169922,65.4089154 C49.888509,65.4553024 49.8742676,65.5208128 49.8742676,65.6054486 C49.8742676,65.6884568 49.888509,65.7519328 49.9169922,65.7958783 C49.9454754,65.8398238 49.9820961,65.8723756 50.0268555,65.8935346 C50.0716148,65.9146935 50.1216631,65.9269004 50.177002,65.9301557 C50.2323408,65.9334109 50.2876788,65.9350385 50.3430176,65.9350385 L50.9191895,65.9350385 L50.9191895,65.2636517 Z M53.6462402,66.7089642 C53.7455246,66.4729605 53.9798972,66.2231257 54.3493652,65.9594525 C54.6700049,65.7299592 54.8775223,65.5655728 54.9719238,65.4662885 C55.1167813,65.3116653 55.189209,65.1423962 55.189209,64.958476 C55.189209,64.8087356 55.1477055,64.6842252 55.0646973,64.5849408 C54.981689,64.4856565 54.8628751,64.436015 54.708252,64.436015 C54.4966624,64.436015 54.3526208,64.514953 54.276123,64.6728314 C54.2321775,64.7639777 54.2061361,64.908833 54.197998,65.1074017 L53.5217285,65.1074017 C53.5331218,64.8062935 53.587646,64.5629691 53.6853027,64.3774213 C53.8708505,64.0242294 54.2004371,63.8476361 54.6740723,63.8476361 C55.0484231,63.8476361 55.3462717,63.9513948 55.567627,64.1589154 C55.7889822,64.366436 55.8996582,64.6410914 55.8996582,64.98289 C55.8996582,65.2449356 55.821534,65.4776807 55.6652832,65.6811322 C55.5627436,65.816224 55.3942883,65.9667759 55.1599121,66.1327924 L54.8815918,66.3305463 C54.7074373,66.4542448 54.5882165,66.5437621 54.5239258,66.599101 C54.4596351,66.6544398 54.4055178,66.7187295 54.3615723,66.7919721 L55.9069824,66.7919721 L55.9069824,67.404765 L53.482666,67.404765 C53.4891765,67.1508575 53.5437007,66.9189262 53.6462402,66.7089642 L53.6462402,66.7089642 Z M57.0739746,66.6027631 C57.1407067,66.8184217 57.2774241,66.9262494 57.4841309,66.9262494 C57.6908376,66.9262494 57.8263343,66.8184217 57.890625,66.6027631 C57.9549157,66.3871044 57.9870605,66.0758283 57.9870605,65.6689252 C57.9870605,65.2424908 57.9549157,64.9267387 57.890625,64.7216596 C57.8263343,64.5165804 57.6908376,64.4140424 57.4841309,64.4140424 C57.2774241,64.4140424 57.1407067,64.5165804 57.0739746,64.7216596 C57.0072425,64.9267387 56.973877,65.2424908 56.973877,65.6689252 C56.973877,66.0758283 57.0072425,66.3871044 57.0739746,66.6027631 L57.0739746,66.6027631 Z M58.4326172,64.3163861 C58.614096,64.6337705 58.704834,65.0846124 58.704834,65.6689252 C58.704834,66.253238 58.614096,66.7032661 58.4326172,67.0190228 C58.2511384,67.3347796 57.9349795,67.4926557 57.4841309,67.4926557 C57.0332823,67.4926557 56.7171233,67.3347796 56.5356445,67.0190228 C56.3541658,66.7032661 56.2634277,66.253238 56.2634277,65.6689252 C56.2634277,65.0846124 56.3541658,64.6337705 56.5356445,64.3163861 C56.7171233,63.9990017 57.0332823,63.8403119 57.4841309,63.8403119 C57.9349795,63.8403119 58.2511384,63.9990017 58.4326172,64.3163861 L58.4326172,64.3163861 Z M59.2346191,64.9633588 L59.2346191,64.489726 C59.4543468,64.4799603 59.6081539,64.465312 59.6960449,64.4457807 C59.8360196,64.414856 59.9499507,64.3530077 60.0378418,64.2602338 C60.0980635,64.1967569 60.1436359,64.1121223 60.1745605,64.0063275 C60.1924643,63.9428506 60.201416,63.8956506 60.201416,63.864726 L60.7800293,63.864726 L60.7800293,67.404765 L60.0671387,67.404765 L60.0671387,64.9633588 L59.2346191,64.9633588 Z M64.3054199,64.4555463 C64.2012527,64.5580859 64.0563974,64.7407826 63.8708496,65.003642 C63.6853018,65.2665014 63.5298672,65.5379016 63.404541,65.817851 C63.3052567,66.0375786 63.2157393,66.3061306 63.1359863,66.623515 C63.0562333,66.9408994 63.0163574,67.2013135 63.0163574,67.404765 L62.2937012,67.404765 C62.3148601,66.7699962 62.5231914,66.1100093 62.9187012,65.4247846 C63.1742363,64.9999777 63.3882641,64.7037568 63.560791,64.5361127 L61.7956543,64.5361127 L61.8054199,63.9111127 L64.3054199,63.9111127 L64.3054199,64.4555463 Z M66.1682129,64.7436322 L67.9577637,64.7436322 L67.9577637,65.3051557 L66.8591309,65.3051557 L66.8591309,67.404765 L66.1682129,67.404765 L66.1682129,64.7436322 Z M68.2287598,66.0741986 C68.2287598,65.8691195 68.2600908,65.6803193 68.3227539,65.5077924 C68.385417,65.3352655 68.4757481,65.1867481 68.59375,65.0622357 C68.7117519,64.9377234 68.8545727,64.840475 69.0222168,64.7704877 C69.1898609,64.7005004 69.3786611,64.6655072 69.588623,64.6655072 C69.8018403,64.6655072 69.9926749,64.7005004 70.1611328,64.7704877 C70.3295907,64.840475 70.4720046,64.9377234 70.5883789,65.0622357 C70.7047532,65.1867481 70.7938636,65.3352655 70.8557129,65.5077924 C70.9175622,65.6803193 70.9484863,65.8691195 70.9484863,66.0741986 C70.9484863,66.2792778 70.9175622,66.468078 70.8557129,66.6406049 C70.7938636,66.8131318 70.7047532,66.9620561 70.5883789,67.0873822 C70.4720046,67.2127084 70.3295907,67.3103636 70.1611328,67.380351 C69.9926749,67.4503383 69.8018403,67.4853314 69.588623,67.4853314 C69.3786611,67.4853314 69.1898609,67.4503383 69.0222168,67.380351 C68.8545727,67.3103636 68.7117519,67.2127084 68.59375,67.0873822 C68.4757481,66.9620561 68.385417,66.8131318 68.3227539,66.6406049 C68.2600908,66.468078 68.2287598,66.2792778 68.2287598,66.0741986 L68.2287598,66.0741986 Z M68.9489746,66.0741986 C68.9489746,66.1751106 68.9599608,66.2748003 68.9819336,66.3732709 C69.0039064,66.4717414 69.0401202,66.5596312 69.0905762,66.6369428 C69.1410322,66.7142543 69.2069495,66.7765096 69.2883301,66.8237103 C69.3697107,66.8709111 69.4698073,66.8945111 69.588623,66.8945111 C69.7123216,66.8945111 69.8152665,66.871318 69.8974609,66.824931 C69.9796554,66.7785441 70.0451658,66.7175095 70.0939941,66.6418256 C70.1428225,66.5661416 70.1774088,66.4790657 70.1977539,66.3805951 C70.2180991,66.2821246 70.2282715,66.1799934 70.2282715,66.0741986 C70.2282715,65.9700314 70.2180991,65.8683072 70.1977539,65.7690228 C70.1774088,65.6697385 70.1428225,65.5822556 70.0939941,65.5065717 C70.0451658,65.4308877 69.9796554,65.3698532 69.8974609,65.3234662 C69.8152665,65.2770792 69.7123216,65.2538861 69.588623,65.2538861 C69.4698073,65.2538861 69.3697107,65.2774861 69.2883301,65.3246869 C69.2069495,65.3718877 69.1410322,65.4341429 69.0905762,65.5114545 C69.0401202,65.5887661 69.0039064,65.6766558 68.9819336,65.7751264 C68.9599608,65.8735969 68.9489746,65.9732867 68.9489746,66.0741986 L68.9489746,66.0741986 Z M71.217041,66.845683 L71.4929199,66.845683 C71.5580244,66.7236121 71.6121417,66.5954395 71.6552734,66.4611615 C71.6984052,66.3268835 71.7329914,66.1913868 71.7590332,66.0546674 C71.785075,65.9179479 71.8037923,65.7840788 71.8151855,65.653056 C71.8265788,65.5220333 71.8347168,65.3987435 71.8395996,65.283183 C71.8444824,65.1676225 71.8465169,65.0634569 71.8457031,64.970683 C71.8448893,64.8779091 71.8452962,64.8022263 71.8469238,64.7436322 L73.927002,64.7436322 L73.927002,66.845683 L74.2614746,66.845683 L74.2614746,68.0444135 L73.6120605,68.0444135 L73.6120605,67.404765 L71.8664551,67.404765 L71.8664551,68.0444135 L71.217041,68.0444135 L71.217041,66.845683 Z M73.2385254,66.845683 L73.2385254,65.3051557 L72.4475098,65.3051557 C72.4475098,65.353984 72.4471029,65.4142048 72.4462891,65.4858197 C72.4454753,65.5574347 72.4422201,65.6367796 72.4365234,65.7238568 C72.4308268,65.8109341 72.4226889,65.9032997 72.4121094,66.0009564 C72.4015299,66.0986132 72.3860678,66.1962684 72.3657227,66.2939252 C72.3453775,66.3915819 72.3209637,66.4876096 72.2924805,66.5820111 C72.2639973,66.6764126 72.2285972,66.7643024 72.1862793,66.845683 L73.2385254,66.845683 Z M76.7932129,66.8798627 C76.7932129,66.9596157 76.7976888,67.0251261 76.8066406,67.0763959 C76.8155925,67.1276657 76.8273925,67.1683554 76.842041,67.1984662 C76.8566895,67.228577 76.8733723,67.2505495 76.8920898,67.2643842 C76.9108074,67.2782189 76.9307453,67.2883913 76.9519043,67.2949017 L76.9519043,67.404765 L76.1877441,67.404765 C76.1747232,67.3738404 76.1604818,67.3327438 76.1450195,67.281474 C76.1295572,67.2302042 76.1218262,67.167949 76.1218262,67.0947064 C76.068115,67.1500453 76.0156253,67.2013143 75.9643555,67.248515 C75.9130857,67.2957158 75.8557132,67.3368124 75.7922363,67.371806 C75.7287594,67.4067997 75.655518,67.4344687 75.5725098,67.4548139 C75.4895015,67.475159 75.3894049,67.4853314 75.2722168,67.4853314 C75.1534011,67.4853314 75.0439458,67.4678349 74.9438477,67.4328412 C74.8437495,67.3978475 74.7570804,67.3461716 74.6838379,67.2778119 C74.6105953,67.2094522 74.5536298,67.1240038 74.5129395,67.0214642 C74.4722491,66.9189247 74.4519043,66.8001108 74.4519043,66.6650189 C74.4519043,66.5559689 74.468994,66.4546516 74.5031738,66.3610639 C74.5373537,66.2674761 74.5857744,66.185283 74.6484375,66.1144818 C74.7111006,66.0436807 74.7875972,65.9850875 74.8779297,65.9387006 C74.9682622,65.8923136 75.0695795,65.8609826 75.1818848,65.8447064 L75.8581543,65.7446088 C75.8825685,65.7413536 75.9090168,65.7364708 75.9375,65.7299603 C75.9659832,65.7234499 75.9924315,65.7124637 76.0168457,65.6970014 C76.0412599,65.681539 76.0616047,65.6603804 76.0778809,65.6335248 C76.094157,65.6066692 76.1022949,65.5704554 76.1022949,65.5248822 C76.1022949,65.4809367 76.0953777,65.4406539 76.081543,65.4040326 C76.0677083,65.3674113 76.0445151,65.3356734 76.0119629,65.3088178 C75.9794106,65.2819622 75.9358727,65.2612104 75.8813477,65.2465619 C75.8268226,65.2319134 75.7588708,65.2245892 75.6774902,65.2245892 C75.5847163,65.2245892 75.5102542,65.2339479 75.4541016,65.2526654 C75.3979489,65.271383 75.3535972,65.2974244 75.3210449,65.3307904 C75.2884927,65.3641565 75.2648927,65.4032186 75.2502441,65.4479779 C75.2355956,65.4927373 75.2250163,65.5403442 75.2185059,65.5908002 L74.5275879,65.5908002 C74.5275879,65.5582479 74.5328776,65.5130824 74.543457,65.4553021 C74.5540365,65.3975219 74.5735676,65.3344529 74.6020508,65.2660932 C74.630534,65.1977334 74.6704099,65.128561 74.7216797,65.0585736 C74.7729495,64.9885863 74.8404944,64.9247035 74.9243164,64.8669232 C75.0081384,64.809143 75.1102696,64.761536 75.2307129,64.724101 C75.3511562,64.6866659 75.4951977,64.6671348 75.6628418,64.6655072 C75.9004732,64.6655072 76.0929355,64.6895141 76.2402344,64.7375287 C76.3875333,64.7855433 76.5022782,64.8482054 76.5844727,64.925517 C76.6666671,65.0028286 76.7220051,65.0890907 76.7504883,65.184306 C76.7789715,65.2795214 76.7932129,65.3743284 76.7932129,65.4687299 L76.7932129,66.8798627 Z M76.1022949,66.1059369 C76.059977,66.1287235 76.0176597,66.1494752 75.9753418,66.1681928 C75.9330239,66.1869103 75.8768721,66.2027793 75.8068848,66.2158002 L75.6237793,66.2499799 C75.5440263,66.2646284 75.47404,66.2817181 75.4138184,66.3012494 C75.3535967,66.3207808 75.3035484,66.3464153 75.2636719,66.3781537 C75.2237954,66.4098921 75.193685,66.4485474 75.1733398,66.4941205 C75.1529947,66.5396936 75.1428223,66.5966592 75.1428223,66.6650189 C75.1428223,66.7219854 75.151774,66.7712199 75.1696777,66.812724 C75.1875815,66.8542281 75.2124022,66.8884075 75.2441406,66.9152631 C75.2758791,66.9421187 75.3129067,66.9620566 75.3552246,66.9750775 C75.3975425,66.9880984 75.443115,66.9946088 75.4919434,66.9946088 C75.5179852,66.9946088 75.5513507,66.9917605 75.592041,66.9860639 C75.6327313,66.9803672 75.6758624,66.969381 75.7214355,66.9531049 C75.7670087,66.9368287 75.8125812,66.9144494 75.8581543,66.8859662 C75.9037274,66.857483 75.9444171,66.8204554 75.9802246,66.7748822 C76.0160321,66.7293091 76.0453287,66.6735642 76.0681152,66.6076459 C76.0909018,66.5417276 76.1022949,66.4640103 76.1022949,66.3744916 L76.1022949,66.1059369 Z" id="Выдан-Антону-Андриан" fill="#000000"></path>
                    </g>
                </g>
            </g>
        </g>
    </g>
</svg>