<?xml version="1.0" encoding="UTF-8"?>
<svg width="16px" height="12px" viewBox="0 0 16 12" version="1.1" xmlns="http://www.w3.org/2000/svg" xmlns:xlink="http://www.w3.org/1999/xlink">
    <!-- Generator: sketchtool 41.2 (35397) - http://www.bohemiancoding.com/sketch -->
    <title>2AD6362A-F4DE-4021-B009-E4CCCBE3C865</title>
    <desc>Created with sketchtool.</desc>
    <defs></defs>
    <g id="Главная-страница" stroke="none" stroke-width="1" fill="none" fill-rule="evenodd">
        <g id="Main_page/Main_page_1440px" transform="translate(-1000.000000, -7055.000000)" fill="#000000">
            <g id="Детский-центр" transform="translate(0.000000, 6822.000000)">
                <g id="Преимущества" transform="translate(1000.000000, 228.000000)">
                    <g id="Group-2">
                        <g id="ico_check" transform="translate(0.000000, 5.000000)">
                            <path d="M14.458154,0.000623003644 C14.0689636,0.0119655841 13.6994632,0.174321805 13.4278789,0.453319653 C11.0695354,2.8167833 8.35530367,5.52388678 5.90374839,7.97744018 L2.46170532,5.10516798 C2.050558,4.76072895 1.48671208,4.66220631 0.983123317,4.84681051 C0.479534554,5.03141471 0.112951042,5.47101165 0.0218256334,5.99957245 C-0.0692997751,6.52813324 0.128920642,7.06510401 0.541622138,7.4076793 L5.03736817,11.1541343 C5.63375474,11.6512411 6.51103873,11.6105949 7.05890535,11.0604729 C9.72063677,8.39302195 12.8843182,5.24082961 15.5508701,2.56851821 C15.9910127,2.13665904 16.1217293,1.47929404 15.8802871,0.911902181 C15.6388449,0.344510319 15.0745256,-0.0170961277 14.458154,0.000623003644 L14.458154,0.000623003644 Z" id="Shape"></path>
                        </g>
                    </g>
                </g>
            </g>
        </g>
    </g>
</svg>