<?xml version="1.0" encoding="UTF-8"?>
<svg width="40px" height="32px" viewBox="0 0 40 32" version="1.1" xmlns="http://www.w3.org/2000/svg" xmlns:xlink="http://www.w3.org/1999/xlink">
    <!-- Generator: sketchtool 41.2 (35397) - http://www.bohemiancoding.com/sketch -->
    <title>CB6637E7-D696-4DB3-9993-3866C36C253F</title>
    <desc>Created with sketchtool.</desc>
    <defs></defs>
    <g id="Symbols" stroke="none" stroke-width="1" fill="none" fill-rule="evenodd">
        <g id="Фотоотчёт" transform="translate(-20.000000, -244.000000)" fill="#FFFFFF">
            <g id="фотографии-количество" transform="translate(20.000000, 244.000000)">
                <g id="ico_photo">
                    <path d="M25.2476312,18.8230474 C25.2476312,21.7485275 22.8793854,24.1167734 19.9539052,24.1167734 C17.0284251,24.1167734 14.6601793,21.7485275 14.6601793,18.8230474 C14.6601793,15.8975672 17.0284251,13.5293214 19.9539052,13.5293214 C22.8793854,13.5293214 25.2476312,15.8975672 25.2476312,18.8230474 Z M36.0809219,5.55595391 C38.1951344,5.55595391 39.9078105,7.26862996 39.9078105,9.38284251 L39.9078105,19.4130602 L39.9078105,27.9190781 C39.9078105,30.1725992 38.0804097,32 35.8268886,32 L4.0809219,32 C1.82740077,32 0,30.1725992 0,27.9190781 L0,19.4048656 L0,9.38284251 L0,9.38284251 C0,7.26862996 1.71267606,5.55595391 3.8268886,5.55595391 L11.4806658,5.55595391 L11.8412292,4.03175416 C12.3902689,1.67170294 14.4962868,-3.55271368e-15 16.921895,-3.55271368e-15 L22.9941101,-3.55271368e-15 C25.4197183,-3.55271368e-15 27.5257362,1.67170294 28.0747759,4.03175416 L28.4271447,5.55595391 L36.0809219,5.55595391 L36.0809219,5.55595391 Z M7.9815621,11.0791293 C7.9815621,10.022023 7.12112676,9.16158771 6.06402049,9.16158771 C4.99871959,9.16158771 4.13828425,10.022023 4.13828425,11.0791293 C4.13828425,12.1362356 4.99871959,12.9966709 6.05582586,12.9966709 C7.12112676,13.0048656 7.9815621,12.1444302 7.9815621,11.0791293 Z M29.3941101,18.8230474 C29.3941101,13.6112676 25.165685,9.38284251 19.9539052,9.38284251 C14.7421255,9.38284251 10.5137004,13.6112676 10.5137004,18.8230474 C10.5137004,24.0348271 14.7421255,28.2632522 19.9539052,28.2632522 C25.165685,28.2632522 29.3941101,24.0348271 29.3941101,18.8230474 Z" id="Shape"></path>
                </g>
            </g>
        </g>
    </g>
</svg>