<?xml version="1.0" encoding="UTF-8"?>
<svg width="48px" height="48px" viewBox="0 0 48 48" version="1.1" xmlns="http://www.w3.org/2000/svg" xmlns:xlink="http://www.w3.org/1999/xlink">
    <!-- Generator: sketchtool 41.2 (35397) - http://www.bohemiancoding.com/sketch -->
    <title>EF16DC78-2B50-4F5D-9CC4-E5D8AB2BD78B</title>
    <desc>Created with sketchtool.</desc>
    <defs></defs>
    <g id="Главная-страница" stroke="none" stroke-width="1" fill="none" fill-rule="evenodd">
        <g id="Main_page/Main_page_1440px" transform="translate(-1124.000000, -10016.000000)">
            <g id="Инстаграм" transform="translate(0.000000, 8927.000000)">
                <g id="Ссылки-на-соцсети" transform="translate(1064.000000, 1089.000000)">
                    <g id="ico_social-vk" transform="translate(60.000000, 0.000000)">
                        <ellipse id="background" fill="#46678E" cx="24" cy="24" rx="24" ry="24"></ellipse>
                        <path d="M32.7005328,25.8450039 C32.7005328,25.8450039 36.3011429,20.7660309 36.6589344,19.0968726 C36.7781313,18.5007877 36.5158379,18.1667953 35.8957529,18.1667953 L32.7721313,18.1667953 C32.0567491,18.1667953 31.7944556,18.4767876 31.579861,18.9298764 C31.579861,18.9298764 29.8910207,22.5283777 27.8361545,24.7959305 C27.1765046,25.5289865 26.8411064,25.7496062 26.4769884,25.7496062 C26.183264,25.7496062 26.0477993,25.5047856 26.0477993,24.843529 L26.0477993,19.0491737 C26.0477993,18.2384942 25.9524016,18 25.2848186,18 L20.2773437,18 C19.8957529,18 19.6572587,18.2218247 19.6572587,18.5244865 C19.6572587,19.2879692 20.8257298,19.460388 20.8257298,21.5290116 L20.8257298,25.797305 C20.8257298,26.6557838 20.7780309,26.9895753 20.3726409,26.9895753 C19.299668,26.9895753 16.7482317,23.293668 15.3175676,19.0968726 C15.0313745,18.2384942 14.7213823,18 13.9106023,18 L10.7869807,18 C10.3338919,18 10,18.3098919 10,18.7628803 C10,19.5974594 10.9776757,23.4604633 14.81678,28.6349344 C17.3920155,32.1162471 20.7780309,34 23.8301545,34 C25.6901081,34 26.143197,33.6901081 26.143197,32.9031274 L26.143197,30.2324942 C26.143197,29.5648108 26.4054904,29.2787182 26.7869807,29.2787182 C27.2161699,29.2787182 27.973728,29.4165929 29.743807,31.1624711 C31.8421545,33.1655213 31.985251,34 33.1299229,34 L36.6350348,34 C36.9927259,34 37.3265174,33.8331043 37.3265174,33.2370193 C37.3265174,32.4500386 36.3011429,31.0432741 34.7273823,29.3740154 C34.0835985,28.5156371 33.0344248,27.5857606 32.7005328,27.1565715 C32.2237452,26.6557838 32.3667414,26.3694903 32.7005328,25.8450039" id="Fill-4" fill="#FFFFFF"></path>
                    </g>
                </g>
            </g>
        </g>
    </g>
</svg>