<?xml version="1.0" encoding="UTF-8"?>
<svg width="198px" height="135px" viewBox="0 0 198 135" version="1.1" xmlns="http://www.w3.org/2000/svg" xmlns:xlink="http://www.w3.org/1999/xlink">
    <!-- Generator: sketchtool 41.2 (35397) - http://www.bohemiancoding.com/sketch -->
    <title>3A58DADE-2465-4556-A917-1570E39A1192</title>
    <desc>Created with sketchtool.</desc>
    <defs></defs>
    <g id="Страница-Спасибо" stroke="none" stroke-width="1" fill="none" fill-rule="evenodd">
        <g id="Forms/Thankyou_page_1440px" transform="translate(-1182.000000, -40.000000)" fill="#FFFFFF">
            <g id="logo_vauprazdnik-copy" transform="translate(1181.000000, 40.000000)">
                <g id="Логотип">
                    <g id="logo_vauprazdnik">
                        <path d="M95.6843672,49.4862222 C95.1785843,48.2468888 94.740131,46.1613409 94.7048303,44.8195097 L94.3721812,32.1750606 C94.3369804,30.8370399 95.271976,29.2455652 96.4497301,28.6260942 L100.566675,26.4606787 C101.749274,25.8386593 103.553508,26.0185022 104.591623,26.8583878 L114.020369,34.4866992 C115.060687,35.3283672 116.419858,36.9655103 117.057904,38.1465862 L126.235773,55.1355758 C126.873039,56.3152076 126.410729,57.7403674 125.206692,58.3170756 L120.965924,60.3483116 C119.760312,60.925774 118.241227,60.4504559 117.578023,59.2954905 L115.16435,55.0920978 L108.364179,58.2477318 L110.151963,62.3147296 C110.689634,63.5378672 110.155189,65.0154587 108.963926,65.6121784 L105.564004,67.315243 C104.370199,67.9132356 102.991807,67.3918489 102.486628,66.1539924 L95.6843672,49.4862222 L95.6843672,49.4862222 Z M104.859504,47.5980526 C105.30699,48.4962198 106.41757,48.9008092 107.336266,48.5033669 L109.071369,47.7527346 C109.991761,47.3545587 110.392129,46.2899302 109.945183,45.396194 C109.945183,45.396194 106.879731,38.2426213 103.981748,39.5379192 C101.083766,40.8332172 104.859504,47.5980526 104.859504,47.5980526 L104.859504,47.5980526 Z" id="Combined-Shape"></path>
                        <path d="M65.9472624,64.0791614 C61.8615478,55.529485 61.1053297,47.252909 61.1053297,47.252909 C60.9278461,45.9294783 61.7616445,44.3763068 62.9626016,43.7862935 L77.8248452,36.4846826 C78.7265191,36.0417029 80.0779537,36.2078494 80.8414235,36.8541435 L86.5117457,41.6541963 C87.2760822,42.3012236 87.8919258,43.6383949 87.8872432,44.6471441 L87.8580534,50.9348115 C87.8533835,51.9407436 88.5612165,53.1425533 89.4500531,53.6251062 L94.7922164,56.5253881 C95.9665093,57.1629165 96.8506996,58.7643044 96.7675494,60.0951749 L96.2413324,68.5175444 C96.1579856,69.8515549 95.117029,71.3989915 93.9030518,71.9801787 L79.6861436,78.7864704 C78.4780939,79.3648197 76.7325071,79.0603706 75.8187433,78.0930077 C75.8187433,78.0930077 70.0329769,72.6288372 65.9472624,64.0791614 L65.9472624,64.0791614 Z M84.0114587,67.2539315 C83.0755825,67.6187354 81.9547409,67.1830964 81.5098324,66.2846273 L80.1704206,63.5797547 C79.7246865,62.6796189 80.0836772,61.5835344 80.9855551,61.1248138 L82.4168305,60.3968262 C83.3127506,59.9411356 84.3912024,60.299553 84.8311118,61.2087246 L86.3698527,64.3888808 C86.8073031,65.2929705 86.404892,66.3209718 85.4673732,66.6864162 L84.0114587,67.2539315 L84.0114587,67.2539315 Z M74.677996,52.9579466 C75.1321602,53.8541979 76.2541014,54.2638537 77.1772341,53.8757502 L78.3268352,53.3924348 C79.2529619,53.0030725 79.6578132,51.9546671 79.2300288,51.048494 L77.8617122,48.150001 C77.434406,47.2448406 76.3470543,46.8487906 75.4360981,47.264007 L74.128202,47.8601494 C73.2158792,48.2759889 72.8440784,49.3388795 73.2986323,50.2359 L74.677996,52.9579466 L74.677996,52.9579466 Z" id="Combined-Shape"></path>
                        <path d="M105.904756,80.294644 C105.651613,79.6743605 105.432263,78.634134 105.414569,77.961573 L105.309,73.9487359 C105.29142,73.2805002 105.759875,72.4848951 106.348995,72.1750326 L107.294668,71.6776308 C107.886621,71.3662773 108.788719,71.455476 109.308051,71.8756401 L112.278428,74.2788191 C112.798435,74.6995302 113.477879,75.517969 113.798509,76.1114819 L116.865845,81.7893724 C117.185356,82.3808132 116.956696,83.0938561 116.354978,83.3820657 L115.368244,83.8546902 C114.766589,84.1428694 114.00952,83.9074457 113.675697,83.3260949 L113.551086,83.1090851 C113.217972,82.5289703 112.453796,82.2879993 111.850916,82.5677667 L111.543855,82.710259 C110.937991,82.9914114 110.667213,83.7206515 110.936796,84.3339216 L110.972495,84.4151314 C111.243089,85.0307032 110.980593,85.7710911 110.380464,86.0717033 L109.703905,86.4106005 C109.10634,86.7099282 108.418445,86.4540045 108.163562,85.8294587 L105.904756,80.294644 L105.904756,80.294644 Z M109.185416,79.3612645 C109.334764,79.6590982 109.699527,79.7951156 110.015111,79.6585887 L110.760609,79.3360746 C111.069489,79.2024485 111.203126,78.8428823 111.056408,78.5471467 C111.056408,78.5471467 109.900863,75.8614896 108.834991,76.3378977 C107.769118,76.8143058 109.185416,79.3612645 109.185416,79.3612645 L109.185416,79.3612645 Z" id="Combined-Shape"></path>
                        <path d="M127.148951,41.2636264 C125.618281,41.9352012 123.786728,41.256138 123.058479,39.7477562 L114.93409,22.9201581 C114.351621,21.7137225 114.82603,20.2104263 115.997924,19.5601153 L120.375897,17.1306752 C121.545906,16.4814103 122.987538,16.9266172 123.591448,18.1163519 L128.450906,27.6897543 C128.906395,28.5870927 130.031018,29.0142885 130.966408,28.6424978 L133.597195,27.5968344 C134.530979,27.2256816 134.936638,26.1948981 134.499748,25.28722 L129.803342,15.5300216 C129.223509,14.3253674 129.755569,12.9416661 130.99954,12.4362661 L135.317964,10.6817778 C136.558439,10.177798 138.03424,10.7478029 138.612175,11.9505866 L150.769937,37.2529864 C151.348805,38.4577099 151.604502,40.4961431 151.341037,41.8060309 L150.433338,46.3189016 C150.16988,47.6287552 148.936224,49.0720552 147.689867,49.5381243 L134.87374,54.3306502 C132.995464,55.0330221 130.72238,54.1569079 129.79821,52.3767713 L127.683214,48.3028659 C127.066703,47.1153418 127.57954,45.7595852 128.821896,45.2773277 L137.78433,41.7982906 C139.029717,41.3148561 139.57601,39.9466714 139.001649,38.736336 L138.989417,38.7105606 C138.416336,37.5029242 136.953609,36.9618768 135.733023,37.4974034 L127.148951,41.2636264 L127.148951,41.2636264 Z" id="Path-3"></path>
                        <path d="M153.428995,26.8107473 L144.448381,9.14312698 C143.842575,7.95132137 144.361166,6.58200021 145.602109,6.08649066 L151.532334,3.71854669 C152.775326,3.22221867 154.418907,3.70010657 155.199201,4.78016515 L167.277705,21.4988377 C168.059867,22.5814814 167.686363,23.850955 166.433302,24.3382367 L156.786537,28.0896032 C155.538024,28.5751162 154.034957,28.0028587 153.428995,26.8107473 Z" id="Path-4"></path>
                        <path d="M159.066215,37.0174148 C158.458111,35.8253564 158.970139,34.4461216 160.208842,33.9372266 L168.947958,30.3469457 C170.187118,29.8378632 171.6473,30.4161697 172.204081,31.627135 L174.592205,36.8211607 C175.151352,38.0372723 174.595876,39.406931 173.341361,39.8842418 L164.874552,43.1056485 C163.624583,43.5812299 162.118464,43.0006972 161.510214,41.8083522 L159.066215,37.0174148 L159.066215,37.0174148 Z" id="Path-5"></path>
                        <path d="M194.952801,32.1663444 C191.802536,42.7800233 189.505991,48.5224812 189.505991,48.5224812 C187.777167,53.2307425 185.333112,53.1177645 183.956695,48.2870344 C183.956695,48.2870344 180.987689,35.4708506 174.64124,23.4360627 C168.294791,11.4012747 161.985657,5.75564391 161.985657,5.75564391 C158.796537,2.33165136 159.981066,-0.0613322473 164.633505,0.479418623 C164.633505,0.479418623 171.263171,0.916189951 181.110431,3.19645869 C190.957692,5.47672743 195.12095,7.51971459 195.12095,7.51971459 C197.599951,8.52224769 199.313694,11.4872725 198.908259,14.125748 C198.908259,14.125748 198.103066,21.5526655 194.952801,32.1663444 L194.952801,32.1663444 Z" id="Path-6"></path>
                        <path d="M69.1666709,113.045296 C69.3158271,111.71317 70.4184842,110.163929 71.6228233,109.588175 L103.954619,94.1314148 C105.161959,93.5542257 106.163861,94.1677805 106.192551,95.507411 L106.357771,103.222094 C106.386407,104.559225 105.550299,106.298966 104.482473,107.113866 L69.4807996,133.82503 C67.8860582,135.042041 66.7743773,134.411092 66.9976465,132.417056 L69.1666709,113.045296 L69.1666709,113.045296 Z" id="Path-10"></path>
                        <path d="M37.7872706,44.2517265 C39.5822884,45.1414694 42.5401945,45.2574127 44.4054024,44.5060754 L73.5004452,32.7861009 C74.7435996,32.2853371 75.0463858,31.0508068 74.1830641,30.0361377 L67.6255074,22.3289859 C66.7593526,21.3109869 65.0038299,20.7439992 63.6999464,21.0636845 L19.7696858,31.8344775 C17.1706678,32.471703 17.0053735,33.9506891 19.4038455,35.1395483 L37.7872706,44.2517265 L37.7872706,44.2517265 Z" id="Path-11"></path>
                        <path d="M170.292098,7.57653907 C170.451657,8.55587641 174.068686,9.45255655 178.829325,10.4597121 C184.949054,11.7543954 192.171601,12.8225501 188.045357,10.1567809 C180.709238,5.41726545 169.927429,5.33827839 170.292098,7.57653907 L170.292098,7.57653907 Z" id="Path-12"></path>
                        <path d="M190.407582,12.2882465 C188.922899,13.8940195 192.490543,14.5553507 193.155755,13.9453462 C193.820966,13.3353417 191.892266,10.6824734 190.407582,12.2882465 L190.407582,12.2882465 Z" id="Path-13"></path>
                        <path d="M11.3520696,82.1521121 C9.48896782,82.1521115 7.17236944,86.8715421 5.24950779,85.2850758 C3.32664611,83.6986102 7.32359193,81.4301127 6.39068844,78.6038439 C5.45778496,75.7775752 0.744732927,75.7535794 1.47791713,73.8588901 C2.21110135,71.9642008 6.76534468,73.8426827 8.28576744,72.8626257 C9.80619019,71.8825693 9.15199242,66.7971194 11.3520696,66.7971194 C13.5521469,66.7971194 12.8617203,71.5902672 14.4183719,72.8626257 C15.9750235,74.1349848 20.2074603,71.8698213 21.2262221,73.8588901 C22.2449841,75.8479595 17.2678158,75.712557 16.3134509,78.6038439 C15.3590859,81.4951308 19.4150194,83.8342417 17.4546315,85.2850758 C15.4942436,86.7359106 13.2151715,82.1521121 11.3520696,82.1521121 L11.3520696,82.1521121 Z" id="Star" transform="translate(11.381879, 76.204097) rotate(8.000000) translate(-11.381879, -76.204097) "></path>
                        <path d="M38.3511614,105.870617 C36.7107412,105.870617 34.6710273,110.025971 32.9779899,108.629123 C31.2849524,107.232274 34.8041753,105.234912 33.9827743,102.746444 C33.1613733,100.257977 29.0116346,100.236849 29.6571872,98.568617 C30.3027398,96.9003847 34.3126509,98.5543465 35.6513497,97.6914282 C36.9900485,96.82851 36.4140418,92.3508828 38.3511614,92.3508828 C40.288281,92.3508828 39.6803755,96.5711443 41.0509731,97.6914282 C42.4215706,98.8117121 46.1481381,96.8172857 47.0451356,98.568617 C47.942133,100.319949 43.5598458,100.20073 42.7195485,102.746444 C41.8792511,105.292159 45.4504114,107.351695 43.7243329,108.629123 C41.9982545,109.90655 39.9915816,105.870617 38.3511614,105.870617 L38.3511614,105.870617 Z" id="Star" transform="translate(38.377407, 100.633520) rotate(30.000000) translate(-38.377407, -100.633520) "></path>
                        <path d="M64.4304287,98.6440899 C63.1319952,98.6440899 61.5175115,101.933155 60.1774302,100.827515 C58.8373491,99.7218756 61.6229011,98.1409136 60.972742,96.17123 C60.3225827,94.2015471 57.0379618,94.1848234 57.5489326,92.8643764 C58.0599035,91.5439293 61.2338472,92.8530807 62.2934604,92.17006 C63.3530741,91.4870388 62.8971505,87.9428863 64.4304287,87.9428863 C65.9637068,87.9428863 65.4825346,91.2833271 66.5673964,92.17006 C67.6522581,93.0567924 70.6019286,91.4781544 71.3119241,92.8643764 C72.0219202,94.2505989 68.5532312,94.156234 67.8881147,96.17123 C67.2229988,98.1862267 70.0496605,99.8163999 68.6834265,100.827515 C67.317193,101.838631 65.7288615,98.6440899 64.4304287,98.6440899 L64.4304287,98.6440899 Z" id="Star" transform="translate(64.451203, 94.498798) rotate(9.000000) translate(-64.451203, -94.498798) "></path>
                        <path d="M50.4590989,76.3035217 C47.8017741,76.3035217 44.4976313,83.0348009 41.7550716,80.7720397 C39.0125119,78.5092778 44.7133185,75.2737409 43.3827269,71.2426601 C42.0521354,67.2115798 35.3299531,67.1773547 36.3756869,64.474977 C37.4214207,61.7725993 43.9170957,64.4518597 46.0856605,63.0540142 C48.2542254,61.6561688 47.3211492,54.4028385 50.4590989,54.4028385 C53.5970486,54.4028385 52.6122995,61.2392607 54.8325372,63.0540142 C57.0527749,64.8687678 63.0894601,61.6379863 64.5425107,64.474977 C65.9955613,67.3119677 58.8966727,67.1188447 57.5354708,71.2426601 C56.1742689,75.3664761 61.9592091,78.7027274 59.1631262,80.7720397 C56.3670431,82.8413513 53.1164237,76.3035223 50.4590989,76.3035217 L50.4590989,76.3035217 Z" id="Star" transform="translate(50.501615, 67.819923) rotate(30.000000) translate(-50.501615, -67.819923) "></path>
                        <ellipse id="Oval" cx="23.3010233" cy="60.283348" rx="3.32871761" ry="3.33224536"></ellipse>
                        <ellipse id="Oval" cx="52.3516497" cy="114.810999" rx="5.14438176" ry="5.14983374"></ellipse>
                        <ellipse id="Oval" cx="5.74960314" cy="116.022725" rx="3.32871761" ry="3.33224536"></ellipse>
                        <ellipse id="Oval" cx="14.8279239" cy="99.6644295" rx="3.32871761" ry="3.33224536"></ellipse>
                        <ellipse id="Oval" cx="31.4715119" cy="83.0032027" rx="4.84177107" ry="4.84690235"></ellipse>
                        <ellipse id="Oval" cx="27.2349623" cy="121.172559" rx="6.05221384" ry="6.05862793"></ellipse>
                        <path d="M84.8280936,97.8815104 C84.2027383,98.1257586 83.4639652,97.8359477 83.1739994,97.225787 L78.3955702,87.170762 C78.1073946,86.5643685 78.3580041,85.8340275 78.9593902,85.5374953 L87.1147634,81.5162312 C87.7143284,81.2205968 88.4393382,81.466725 88.7368142,82.0714548 L93.9558089,92.6809896 C94.2520775,93.2832651 93.9978306,93.995744 93.3864057,94.2730474 L91.4306976,95.1600323 C90.8199566,95.4370255 90.0869469,95.1727136 89.793112,94.5689302 L86.0591496,86.896225 C85.7654774,86.2927747 85.0310964,86.0192719 84.4148309,86.2870911 L83.6747577,86.6087146 C83.0602976,86.8757492 82.8161907,87.5719438 83.1299168,88.1644388 L87.116659,95.6936969 C87.4302121,96.2858647 87.1792371,96.9632145 86.5520903,97.2081618 L84.8280936,97.8815104 L84.8280936,97.8815104 Z" id="Path-14"></path>
                        <path d="M98.5621549,91.0445366 C97.9337281,91.2683018 97.1920892,90.957705 96.9067848,90.3531878 L92.1103297,80.1902193 C91.8245206,79.5846328 92.0813626,78.8691646 92.6887386,78.5899994 L98.499253,75.9193434 C99.1045089,75.6411531 100.06706,75.6725113 100.636566,76.0247115 C100.636566,76.0247115 102.038234,76.6062919 103.202261,78.4890281 C104.366288,80.3717643 104.336626,82.0644425 104.336626,82.0644425 C104.398391,82.7277805 103.969328,83.5230996 103.38081,83.8394806 L100.423151,85.4294851 C99.8335041,85.7464731 99.6453432,86.4647986 99.9973823,87.0251538 L101.156667,88.8704356 C101.511169,89.4347113 101.288205,90.0738663 100.660683,90.2973097 L98.5621549,91.0445366 L98.5621549,91.0445366 Z M98.3451231,82.5502021 C99.3478866,82.5502021 100.160787,81.8720672 100.160787,81.0355451 C100.160787,80.1990231 99.3478866,79.5208882 98.3451231,79.5208882 C97.3423597,79.5208882 96.529459,80.1990231 96.529459,81.0355451 C96.529459,81.8720672 97.3423597,82.5502021 98.3451231,82.5502021 L98.3451231,82.5502021 Z" id="Combined-Shape"></path>
                        <path d="M115.106925,67.9824088 C114.489041,68.2372171 114.215344,68.9330275 114.498771,69.5433622 L114.973435,70.5655066 C115.255446,71.1727889 115.963615,71.4002783 116.546074,71.0786445 L118.464145,70.0194849 C119.050679,69.6956009 119.530208,69.9758337 119.53522,70.6476459 L119.557517,73.6367548 C119.560028,73.9734339 119.807802,74.3592716 120.111651,74.4988763 L122.806443,75.7370133 C123.411201,76.0148723 123.406985,76.4500411 122.782475,76.7151679 L119.863492,77.9543772 C119.245497,78.2167376 119.020741,78.8952536 119.363696,79.4736103 L120.082253,80.6853831 C120.424218,81.2620718 121.18995,81.4856 121.782467,81.1896906 L126.893698,78.637084 C127.490736,78.3389165 127.914999,77.5587318 127.8413,76.8943378 L127.720442,75.8048214 C127.64675,75.1404971 127.127684,74.3114454 126.560378,73.9526407 L124.413915,72.5950676 C124.130891,72.416063 123.923813,72.0064513 123.952665,71.6651367 L124.156459,69.254299 C124.213026,68.5851144 123.94881,67.6047266 123.559138,67.0544045 L122.857199,66.0630797 C122.470741,65.5172967 121.658724,65.2805218 121.038675,65.5362232 L115.106925,67.9824088 L115.106925,67.9824088 Z" id="Path-16"></path>
                        <path d="M130.242862,73.3711288 C129.631082,73.6389238 129.29052,74.3718645 129.48541,75.0188678 L130.436516,78.1763974 C130.629966,78.8186235 131.307973,79.1844065 131.949298,78.9938693 L133.429963,78.5539639 C134.071999,78.3632152 134.466784,77.683133 134.310571,77.030079 L134.171337,76.4480011 C134.015647,75.7971312 134.375264,75.0327414 134.975767,74.740103 L140.385215,72.1039564 C140.985179,71.8115804 141.614475,72.094139 141.791627,72.7381276 L141.857755,72.9785188 C142.034531,73.621138 142.665726,73.9014193 143.264642,73.6059878 L144.496285,72.9984486 C145.096512,72.7023708 145.350976,71.9730125 145.065869,71.3719572 L143.633033,68.351292 C143.347379,67.7490831 142.656957,67.5464099 142.08265,67.9037617 L142.747623,67.4899944 C142.177024,67.8450391 141.480294,67.6490612 141.186524,67.0421279 L137.520315,59.4676617 C137.228743,58.8652674 136.493348,58.6027018 135.885132,58.877873 L127.753232,62.5569287 C127.141718,62.8335917 126.919123,63.533079 127.248646,64.1063894 L129.92762,68.7673264 C130.26046,69.3464071 130.576443,70.3619452 130.632789,71.0285076 L130.707328,71.9102809 C130.763944,72.5800168 130.316431,73.3389247 129.702115,73.6078303 L130.242862,73.3711288 L130.242862,73.3711288 Z M135.696331,70.5990593 C135.092317,70.8807316 134.416253,70.6008145 134.183414,69.965983 L132.646251,65.7749307 C132.414703,65.1436205 132.722268,64.3978737 133.324205,64.1135162 L133.520089,64.0209797 C134.126059,63.7347162 134.871736,63.9803276 135.189539,64.5769588 L137.287628,68.5158207 C137.603668,69.1091427 137.365172,69.8208207 136.766208,70.1001379 L135.696331,70.5990593 L135.696331,70.5990593 Z" id="Combined-Shape"></path>
                        <path d="M146.947092,69.1197895 C146.322867,69.3629277 145.581207,69.06999 145.293939,68.4725475 L140.329035,58.1468599 C140.040248,57.5462597 140.298755,56.8320612 140.903918,56.5528103 L142.725784,55.7121157 C143.33207,55.4323468 144.030126,55.7110044 144.279932,56.3222754 L145.649481,59.6735289 C145.901526,60.2902798 146.580938,60.5251092 147.164647,60.1993422 L147.84768,59.8181426 C148.432437,59.4917904 148.679819,58.7395956 148.397581,58.1323829 L146.95932,55.0380832 C146.678264,54.433416 146.952172,53.725053 147.561587,53.4600513 L149.568423,52.5873853 C150.182102,52.3205295 150.906784,52.5901559 151.190398,53.1967792 L156.346583,64.2253766 C156.628697,64.8287912 156.355866,65.5289159 155.742832,65.7867802 L153.599914,66.6881665 C152.984358,66.9470917 152.272035,66.6539437 152.012973,66.0430117 L150.964457,63.5703578 C150.70357,62.9551235 149.989195,62.6602858 149.373145,62.9100788 L148.437296,63.2895434 C147.819325,63.5401155 147.57714,64.2223479 147.895489,64.8117379 L149.075976,66.9972922 C149.394715,67.587405 149.151578,68.2611323 148.522845,68.5060263 L146.947092,69.1197895 L146.947092,69.1197895 Z" id="Path-19"></path>
                        <path d="M160.156952,63.9799065 C159.555306,64.2768574 158.838107,64.0288723 158.55026,63.4158301 L153.638326,52.9546449 C153.35262,52.3461632 153.621305,51.6569189 154.252977,51.4094841 L155.939236,50.7489524 C156.564404,50.5040653 157.292058,50.8009011 157.562891,51.408348 L159.068221,54.7846377 C159.339773,55.393699 159.635074,55.3487545 159.728138,54.6817901 L160.370289,50.0796673 C160.463199,49.4138049 161.02805,48.6458094 161.635832,48.3624768 L162.909259,47.7688378 C163.515288,47.4863221 164.238569,47.7488318 164.522104,48.349562 L169.599404,59.1069198 C169.884124,59.7101606 169.61084,60.3826409 168.979008,60.6125853 L166.702836,61.4409597 C166.075481,61.6692748 165.329238,61.3671771 165.036017,60.7661261 L163.310178,57.2284631 C163.016974,56.6274478 162.76226,56.6842683 162.741369,57.3518573 L162.609157,61.5766724 C162.588216,62.2458363 162.084071,63.0287498 161.481865,63.3259776 L160.156952,63.9799065 L160.156952,63.9799065 Z" id="Path-20"></path>
                        <path d="M172.787607,58.5797972 C172.178015,58.8552642 171.438246,58.5998758 171.133356,58.0056027 L165.96934,47.9402158 C165.665315,47.3476299 165.907977,46.6336545 166.515213,46.3436576 L168.184476,45.5464694 C168.789979,45.2573006 169.514409,45.5154962 169.799827,46.1174517 L171.024034,48.6993359 C171.310666,49.3038495 171.662206,49.2695604 171.811065,48.6146361 L172.793806,44.2909325 C172.941838,43.6396405 173.566517,42.9225829 174.199197,42.6855429 L175.784844,42.0914651 C176.412987,41.8561249 177.011701,42.2018123 177.121805,42.8617731 L177.530094,45.3090132 C177.640334,45.9697827 177.495757,46.9982328 177.21024,47.5996579 L176.75192,48.5650857 C176.465029,49.1694043 176.774557,49.6593013 177.446501,49.6593013 L178.09018,49.6593013 C178.760677,49.6593013 179.585274,50.1239208 179.931552,50.6963707 L181.722357,53.6568393 C182.068821,54.2295969 181.847361,54.891988 181.226947,55.1366325 L179.441852,55.8405393 C178.82178,56.0850489 177.864021,55.9860491 177.301573,55.6187216 L174.30841,53.6639277 C173.746438,53.2969116 173.48956,53.5029174 173.733988,54.1223593 L174.640365,56.4193486 C174.885092,57.0395495 174.589146,57.7657061 173.979717,58.041099 L172.787607,58.5797972 L172.787607,58.5797972 Z" id="Path-21"></path>
                    </g>
                </g>
            </g>
        </g>
    </g>
</svg>