<?xml version="1.0" encoding="UTF-8"?>
<svg width="648px" height="774px" viewBox="0 0 648 774" version="1.1" xmlns="http://www.w3.org/2000/svg" xmlns:xlink="http://www.w3.org/1999/xlink">
    <!-- Generator: sketchtool 41.2 (35397) - http://www.bohemiancoding.com/sketch -->
    <title>A3CEBE46-A2D6-4C58-8E7A-45CEF4C08930</title>
    <desc>Created with sketchtool.</desc>
    <defs></defs>
    <g id="Symbols" stroke="none" stroke-width="1" fill="none" fill-rule="evenodd">
        <g id="Акция" transform="translate(-482.000000, -68.000000)" fill="#009BB1">
            <g id="texture">
                <g transform="translate(358.000000, 0.000000)">
                    <path d="M203.147029,357.002736 C186.614266,354.679202 160.311929,392.670351 145.180203,376.530143 C130.048477,360.38994 168.278136,345.724663 163.440397,320.07975 C158.602658,294.434836 116.809264,288.349198 125.621941,272.851559 C134.434618,257.35392 172.561161,279.305272 187.246167,272.71207 C201.931172,266.118874 202.316891,221.252257 221.839901,223.996037 C241.362911,226.739818 229.401129,267.397559 241.665574,280.360219 C253.930019,293.322884 294.245315,278.980175 300.864134,297.480243 C307.482952,315.980316 263.481472,308.600274 251.492847,332.454714 C239.504222,356.309155 272.648111,381.629072 253.485835,391.751507 C234.323557,401.873947 219.679792,359.326264 203.147029,357.002736 Z M807.829209,517.455297 C800.828868,519.46261 797.088029,539.268131 788.194655,535.521099 C779.301282,531.774069 791.933447,519.147499 785.455793,509.786617 C778.978139,500.425736 761.24428,505.415592 762.006461,497.676443 C762.768642,489.937294 781.856172,491.920297 786.538213,486.6876 C791.220255,481.454905 783.413806,463.507674 791.680283,461.137299 C799.94676,458.766925 802.393559,477.090776 809.580602,480.080301 C816.767646,483.069829 830.288141,470.201768 836.207908,476.39952 C842.127675,482.597275 823.28427,487.463081 822.739161,499.095784 C822.194052,510.728487 839.8937,514.937835 834.053672,522.371238 C828.213643,529.804643 814.829549,515.447982 807.829209,517.455297 Z M350.718435,609.739709 C338.573293,602.727708 304.625783,626.651369 298.426323,608.441493 C292.226866,590.231612 327.340859,589.584277 332.545627,566.524991 C337.750395,543.465705 307.122891,525.561616 319.468428,515.216215 C331.813964,504.870815 354.0007,535.003963 367.82566,533.947583 C381.65062,532.891204 397.69381,495.254985 412.035618,503.535232 C426.377427,511.815479 402.736185,542.369307 407.802729,557.028355 C412.869273,571.687402 449.505066,571.949424 448.203186,589.541263 C446.901303,607.133106 414.996965,587.464429 397.229883,603.870463 C379.462798,620.276502 396.561732,651.720193 377.988779,654.376898 C359.415826,657.033604 362.863577,616.75171 350.718435,609.739709 Z M575.725132,580.805485 C563.852549,578.925053 544.597605,604.951249 533.854377,593.475648 C523.11115,582.000052 550.741013,572.400228 547.486457,554.472431 C544.231899,536.544639 514.220911,531.643526 520.696685,520.996219 C527.17246,510.348912 554.40614,526.235416 565.027928,521.879727 C575.649721,517.524034 576.321748,486.299582 590.341697,488.520124 C604.361646,490.740666 595.399273,518.851211 604.107833,528.069376 C612.816393,537.287536 641.943744,527.945436 646.542369,540.928217 C651.140998,553.911003 619.552981,548.073751 610.719063,564.487492 C601.885148,580.901239 625.504882,599.053236 611.631284,605.7943 C597.757691,612.535369 587.597708,582.685917 575.725132,580.805485 Z M518.729594,307.843475 C498.487691,296.156807 443.703375,332.920773 432.767585,303.616024 C421.831797,274.31127 479.492379,274.726688 487.09212,238.156277 C494.691858,201.585872 443.636894,171.761527 463.49221,155.767272 C483.347526,139.773017 521.039836,188.757524 543.708705,187.64248 C566.377574,186.527436 591.182152,127.150317 615.085166,140.950729 C638.988181,154.75114 601.409017,202.516821 610.337153,226.110433 C619.26529,249.704045 679.46347,251.632864 678.05014,279.64235 C676.63681,307.651837 623.41142,274.959902 594.899214,300.398732 C566.387006,325.837567 595.774829,376.702886 565.371679,380.175033 C534.96853,383.647175 538.971495,319.530148 518.729594,307.843475 Z M477.703231,816.079702 C495.177285,816.079702 509.342805,801.914183 509.342805,784.440129 C509.342805,766.966075 495.177285,752.800556 477.703231,752.800556 C460.229178,752.800556 446.063658,766.966075 446.063658,784.440129 C446.063658,801.914183 460.229178,816.079702 477.703231,816.079702 Z M726.021407,677.677947 C743.495461,677.677947 757.66098,663.512428 757.66098,646.038374 C757.66098,628.56432 743.495461,614.398801 726.021407,614.398801 C708.547353,614.398801 694.381834,628.56432 694.381834,646.038374 C694.381834,663.512428 708.547353,677.677947 726.021407,677.677947 Z M117.99381,720.434253 C129.624145,720.434253 139.052395,711.006003 139.052395,699.375667 C139.052395,687.745332 129.624145,678.317082 117.99381,678.317082 C106.363474,678.317082 96.9352243,687.745332 96.9352243,699.375667 C96.9352243,711.006003 106.363474,720.434253 117.99381,720.434253 Z M368.390616,417.101208 C376.772521,417.101208 383.567397,410.306332 383.567397,401.924427 C383.567397,393.542523 376.772521,386.747646 368.390616,386.747646 C360.008711,386.747646 353.213835,393.542523 353.213835,401.924427 C353.213835,410.306332 360.008711,417.101208 368.390616,417.101208 Z M728.579703,410.15895 C736.961607,410.15895 743.756484,403.364074 743.756484,394.982169 C743.756484,386.600265 736.961607,379.805388 728.579703,379.805388 C720.197798,379.805388 713.402921,386.600265 713.402921,394.982169 C713.402921,403.364074 720.197798,410.15895 728.579703,410.15895 Z M113.164322,576.334039 C138.833621,576.334039 159.642698,555.524961 159.642698,529.855663 C159.642698,504.186364 138.833621,483.377286 113.164322,483.377286 C87.4950236,483.377286 66.6859456,504.186364 66.6859456,529.855663 C66.6859456,555.524961 87.4950236,576.334039 113.164322,576.334039 Z M263.193958,819.255785 C292.831876,819.255785 316.858155,795.229506 316.858155,765.591588 C316.858155,735.953671 292.831876,711.927392 263.193958,711.927392 C233.556041,711.927392 209.529761,735.953671 209.529761,765.591588 C209.529761,795.229506 233.556041,819.255785 263.193958,819.255785 Z" id="Combined-Shape" transform="translate(452.021697, 479.063699) rotate(470.000000) translate(-452.021697, -479.063699) "></path>
                </g>
            </g>
        </g>
    </g>
</svg>