<?xml version="1.0" encoding="UTF-8"?>
<svg width="270px" height="176px" viewBox="0 0 270 176" version="1.1" xmlns="http://www.w3.org/2000/svg" xmlns:xlink="http://www.w3.org/1999/xlink">
    <!-- Generator: sketchtool 41.2 (35397) - http://www.bohemiancoding.com/sketch -->
    <title>1FFD1147-8B30-411A-A55F-32805EC272CC</title>
    <desc>Created with sketchtool.</desc>
    <defs></defs>
    <g id="Symbols" stroke="none" stroke-width="1" fill="none" fill-rule="evenodd">
        <g id="Калькулятор" transform="translate(-835.000000, -21.000000)" fill="#FFFFFF">
            <g transform="translate(0.000000, -31.000000)" id="ico_calculator">
                <g transform="translate(965.133291, 154.484417) rotate(23.000000) translate(-965.133291, -154.484417) translate(835.133291, 41.984417)">
                    <path d="M254.182464,76.6648978 L212.182464,76.6648978 C208.31647,76.6648978 205.182464,73.5308911 205.182464,69.6648978 C205.182464,65.7989046 208.31647,62.6648978 212.182464,62.6648978 L254.182464,62.6648978 C258.048457,62.6648978 261.182464,65.7989046 261.182464,69.6648978 C261.182464,73.5308911 258.048457,76.6648978 254.182464,76.6648978 L254.182464,76.6648978 Z" id="Shape" opacity="0.300000012" transform="translate(233.182464, 69.664898) rotate(-37.000000) translate(-233.182464, -69.664898) "></path>
                    <path d="M190.170103,18.8505155 L177.056701,18.8505155 L177.056701,6.82989691 C177.056701,3.057849 173.998852,-1.20792265e-13 170.226804,-1.20792265e-13 C166.454756,-1.20792265e-13 163.396907,3.057849 163.396907,6.82989691 L163.396907,18.8505155 L150.829897,18.8505155 C147.057849,18.8505155 144,21.9083645 144,25.6804124 C144,29.4524603 147.057849,32.5103093 150.829897,32.5103093 L163.396907,32.5103093 L163.396907,46.1701031 C163.396907,49.942151 166.454756,53 170.226804,53 C173.998852,53 177.056701,49.942151 177.056701,46.1701031 L177.056701,32.5103093 L190.170103,32.5103093 C193.942151,32.5103093 197,29.4524603 197,25.6804124 C197,21.9083645 193.942151,18.8505155 190.170103,18.8505155 L190.170103,18.8505155 Z" id="Shape" opacity="0.64526721"></path>
                    <path d="M60.5860425,193.970971 L70.6572308,184.130084 C72.4615823,182.372178 73.169093,179.807209 72.5132505,177.401375 C71.857408,174.995541 69.9378503,173.114346 67.4776563,172.466417 C65.0174623,171.818488 62.390394,172.502262 60.5860425,174.260167 L50.4851457,184.130084 L40.4139575,174.289196 C38.6472928,172.384 35.9504158,171.584341 33.3981231,172.208909 C30.8458304,172.833478 28.8529831,174.780754 28.2137982,177.274683 C27.5746133,179.768611 28.3929868,182.403818 30.3427692,184.130084 L40.4139575,193.970971 L30.3427692,203.811858 C28.5331107,205.569763 27.8206962,208.137499 28.4738852,210.547824 C29.1270743,212.958149 31.046632,214.844877 33.5094795,215.497297 C35.972327,216.149716 38.6042991,215.468709 40.4139575,213.710804 L50.4851457,203.869916 L60.5860425,213.710804 C62.3527072,215.616 65.0495842,216.415659 67.6018769,215.791091 C70.1541696,215.166522 72.1470169,213.219246 72.7862018,210.725317 C73.4253867,208.231389 72.6070132,205.596182 70.6572308,203.869916 L60.5860425,193.970971 Z" id="Shape" opacity="0.699999988" transform="translate(50.500000, 194.000000) rotate(-33.000000) translate(-50.500000, -194.000000) "></path>
                    <path d="M201,148 L159,148 C155.134007,148 152,144.865993 152,141 C152,137.134007 155.134007,134 159,134 L201,134 C204.865993,134 208,137.134007 208,141 C208,144.865993 204.865993,148 201,148 Z" id="Shape" opacity="0.400000006"></path>
                    <circle id="Oval" opacity="0.400000006" cx="179.5" cy="120.5" r="7.5"></circle>
                    <ellipse id="Oval" opacity="0.400000006" cx="179.5" cy="162.5" rx="7.5" ry="7.5"></ellipse>
                    <path d="M98.9194775,130.341931 C115.81062,130.341931 124.819229,120.142695 124.819229,106.856847 C124.819229,93.7052003 115.649752,83.3717634 98.9194775,83.3717634 C82.1892034,83.3717634 73.0197262,93.7052003 73.0197262,106.856847 C73.0197262,120.142695 82.0283354,130.341931 98.9194775,130.341931 Z M105.675934,44.9904263 C105.99767,44.4536244 106.480274,43.3800206 106.641142,42.5748177 C107.928087,38.5488033 104.549858,34.7911899 99.7238176,33.5833856 C94.736909,32.3755813 89.7500004,33.7175861 87.015244,37.340999 L32.8027212,117.324485 L31.9983811,118.80069 C30.5505689,123.095105 33.2853252,127.657921 38.4331019,129.134127 C43.7417466,130.07353 48.8895232,128.731525 51.4634115,125.108112 L105.675934,44.9904263 Z M98.9194775,115.311477 C94.2543049,115.311477 92.0021526,112.224866 92.0021526,106.588446 C92.0021526,101.488828 94.2543049,98.402217 98.9194775,98.402217 C103.58465,98.402217 105.836802,101.488828 105.836802,106.588446 C105.836802,112.224866 103.58465,115.311477 98.9194775,115.311477 Z M39.237442,65.1204982 C34.5722694,65.1204982 32.3201171,62.0338872 32.3201171,56.3974671 C32.3201171,51.2978489 34.5722694,48.2112378 39.237442,48.2112378 C43.9026146,48.2112378 46.1547669,51.2978489 46.1547669,56.3974671 C46.1547669,62.0338872 43.9026146,65.1204982 39.237442,65.1204982 Z M39.237442,80.1509519 C55.9677161,80.1509519 65.1371933,69.9517155 65.1371933,56.665868 C65.1371933,43.3800206 56.1285841,33.1807842 39.237442,33.1807842 C22.3462999,33.1807842 13.3376907,43.3800206 13.3376907,56.665868 C13.3376907,69.9517155 22.5071679,80.1509519 39.237442,80.1509519 Z" id="%" transform="translate(69.078460, 81.746297) rotate(-20.000000) translate(-69.078460, -81.746297) "></path>
                </g>
            </g>
        </g>
    </g>
</svg>