<?xml version="1.0" encoding="UTF-8"?>
<svg width="108px" height="77px" viewBox="0 0 108 77" version="1.1" xmlns="http://www.w3.org/2000/svg" xmlns:xlink="http://www.w3.org/1999/xlink">
    <!-- Generator: sketchtool 41.2 (35397) - http://www.bohemiancoding.com/sketch -->
    <title>BA3CB440-BD21-47E2-9880-4415C47CFCF0</title>
    <desc>Created with sketchtool.</desc>
    <defs></defs>
    <g id="Главная-страница" stroke="none" stroke-width="1" fill="none" fill-rule="evenodd">
        <g id="Main_page/Main_page_1440px" transform="translate(-100.000000, -8401.000000)" fill="#00B4CE">
            <g id="Авторы-проекта-Ваупраздник" transform="translate(60.000000, 8073.000000)">
                <g id="Антон" transform="translate(0.000000, 128.000000)">
                    <g id="ico_quote-blue" transform="translate(40.000000, 200.000000)">
                        <path d="M9,65 C7.2754491,75.3846154 15.3592814,77 20,77 C33.1437126,77 45,37.9615385 45,22 C45,8.61538462 34.491018,0 23,0 C9.97005988,0 0,9.42307692 0,21 C0,30.4230769 7.2754491,38.7692308 18,41 C15.3592814,52.7692308 9.43113772,56 9,65 L9,65 Z M72,65 C70.2754491,75.3846154 78.3592814,77 83,77 C96.1437126,77 108,37.9615385 108,22 C108,8.61538462 97.491018,0 86,0 C72.9700599,0 63,9.42307692 63,21 C63,30.4230769 70.2754491,38.7692308 81,41 C78.3592814,52.7692308 72.4311377,56 72,65 L72,65 Z" id="’’"></path>
                    </g>
                </g>
            </g>
        </g>
    </g>
</svg>