<?xml version="1.0" encoding="UTF-8"?>
<svg width="48px" height="48px" viewBox="0 0 48 48" version="1.1" xmlns="http://www.w3.org/2000/svg" xmlns:xlink="http://www.w3.org/1999/xlink">
    <!-- Generator: sketchtool 41.2 (35397) - http://www.bohemiancoding.com/sketch -->
    <title>0C48263C-8384-4121-8F4F-CD34728CAA84</title>
    <desc>Created with sketchtool.</desc>
    <defs></defs>
    <g id="Главная-страница" stroke="none" stroke-width="1" fill="none" fill-rule="evenodd">
        <g id="Main_page/Main_page_1440px" transform="translate(-1244.000000, -10016.000000)">
            <g id="Инстаграм" transform="translate(0.000000, 8927.000000)">
                <g id="Ссылки-на-соцсети" transform="translate(1064.000000, 1089.000000)">
                    <g id="ico_social-odnoklassniki" transform="translate(180.000000, 0.000000)">
                        <ellipse id="background" fill="#EC760B" cx="24" cy="24" rx="24" ry="24"></ellipse>
                        <g id="Group-27" transform="translate(15.239583, 9.500000)" fill="#FFFFFF">
                            <path d="M7.24004093,20.3163412 C5.00402009,20.0831329 2.98791593,19.5324349 1.26181176,18.1824245 C1.04763468,18.0144662 0.826509677,17.8525495 0.63106176,17.6649558 C-0.124448656,16.9393516 -0.200573656,16.1083204 0.39724926,15.2519141 C0.908676344,14.5190599 1.76719718,14.3230079 2.65955134,14.7438099 C2.83234301,14.8253724 2.99697843,14.9271745 3.15466593,15.0365287 C6.37155134,17.2468724 10.7907284,17.3078933 14.0196972,15.1359141 C14.3396034,14.8906224 14.6815618,14.6906433 15.0778951,14.5885391 C15.8485097,14.3906745 16.5671659,14.6737266 16.980718,15.3479766 C17.4531763,16.117987 17.4471347,16.8695704 16.8650201,17.4673933 C15.9720618,18.3839141 14.8981555,19.046987 13.7049263,19.5097787 C12.5766451,19.9471954 11.3408222,20.1674141 10.1176868,20.3136224 C10.3022597,20.5145079 10.3892597,20.6132891 10.5046555,20.7292891 C12.1655097,22.3979974 13.8336138,24.0597579 15.4890305,25.7336016 C16.0530201,26.3039349 16.1708326,27.011112 15.8602909,27.674487 C15.5207493,28.399487 14.7607076,28.8764766 14.015468,28.8254245 C13.5433118,28.7927995 13.1750722,28.5577787 12.8479159,28.2282058 C11.5945722,26.9670079 10.3176659,25.7290704 9.08969718,24.4440079 C8.73233259,24.0703308 8.56044718,24.1410183 8.24507218,24.4654558 C6.98417634,25.7635079 5.70273884,27.0416224 4.41374926,28.312487 C3.83495759,28.8831224 3.14620759,28.9858308 2.47497843,28.6598829 C1.76145759,28.3139974 1.30742634,27.5856745 1.34246801,26.8537266 C1.36663468,26.358612 1.61011384,25.9804037 1.94995759,25.6411641 C3.59359301,23.9999454 5.23269718,22.3544974 6.87240551,20.7105599 C6.98085343,20.6012058 7.08205134,20.4852058 7.24004093,20.3163412 Z" id="Shape"></path>
                            <path d="M8.60213468,14.5994141 C4.61312426,14.5858204 1.34216593,11.2789141 1.36542634,7.28355995 C1.38838468,3.24410161 4.66145759,-0.0111483865 8.68973884,2.86968106e-05 C12.7261763,0.0109036968 15.9660201,3.31297661 15.9457805,7.39442453 C15.9252388,11.3816224 12.6316243,14.6133099 8.60213468,14.5994141 Z M12.2274368,7.29322661 C12.2204888,5.30944536 10.640593,3.7301537 8.66073884,3.7283412 C6.66427009,3.72622661 5.07017634,5.3342162 5.08558259,7.33612245 C5.10038468,9.31235161 6.69387426,10.8804662 8.67916593,10.8732162 C10.6584159,10.8662683 12.2340826,9.27670578 12.2274368,7.29322661 Z" id="Shape"></path>
                        </g>
                    </g>
                </g>
            </g>
        </g>
    </g>
</svg>