<?xml version="1.0" encoding="utf-8"?>
<!-- Generator: Adobe Illustrator 19.0.1, SVG Export Plug-In . SVG Version: 6.00 Build 0)  -->
<svg version="1.1" id="Layer_1" xmlns="http://www.w3.org/2000/svg" xmlns:xlink="http://www.w3.org/1999/xlink" x="0px" y="0px"
	 viewBox="0 0 16 16" style="enable-background:new 0 0 16 16;" xml:space="preserve">
<style type="text/css">
	.st0{fill:#BFB2A5;}
</style>
<g>
	<path class="st0" d="M14,15.6L0.4,2c-0.2-0.2-0.2-0.4,0-0.5l1-1c0.2-0.2,0.4-0.2,0.5,0L15.6,14c0.2,0.2,0.2,0.4,0,0.5l-1,1
		C14.4,15.7,14.2,15.7,14,15.6z"/>
	<path class="st0" d="M0.4,14L14,0.4c0.2-0.2,0.4-0.2,0.5,0l1,1c0.2,0.2,0.2,0.4,0,0.5L2,15.6c-0.2,0.2-0.4,0.2-0.5,0l-1-1
		C0.3,14.4,0.3,14.2,0.4,14z"/>
</g>
</svg>
