<?xml version="1.0" encoding="UTF-8"?>
<svg width="48px" height="48px" viewBox="0 0 48 48" version="1.1" xmlns="http://www.w3.org/2000/svg" xmlns:xlink="http://www.w3.org/1999/xlink">
    <!-- Generator: sketchtool 41.2 (35397) - http://www.bohemiancoding.com/sketch -->
    <title>F17668B3-0E10-4578-B7A1-55C2CEC75916</title>
    <desc>Created with sketchtool.</desc>
    <defs>
        <linearGradient x1="66.8139539%" y1="-10.5072748%" x2="98.3430837%" y2="111.45127%" id="linearGradient-1">
            <stop stop-color="#4E5FD3" offset="0%"></stop>
            <stop stop-color="#913BAF" offset="14.2763214%"></stop>
            <stop stop-color="#D52D88" offset="76.145798%"></stop>
            <stop stop-color="#F26D4F" offset="100%"></stop>
        </linearGradient>
        <radialGradient cx="30.2743283%" cy="100%" fx="30.2743283%" fy="100%" r="93.3946263%" id="radialGradient-2">
            <stop stop-color="#FED276" offset="0%"></stop>
            <stop stop-color="#FDBD61" stop-opacity="0.975005661" offset="17.0240041%"></stop>
            <stop stop-color="#F6804D" offset="45.4081253%"></stop>
            <stop stop-color="#E83D5C" stop-opacity="0" offset="100%"></stop>
        </radialGradient>
        <ellipse id="path-3" cx="24" cy="24" rx="24" ry="24"></ellipse>
    </defs>
    <g id="Главная-страница" stroke="none" stroke-width="1" fill="none" fill-rule="evenodd">
        <g id="Main_page/Main_page_1440px" transform="translate(-1184.000000, -10016.000000)">
            <g id="Инстаграм" transform="translate(0.000000, 8927.000000)">
                <g id="Ссылки-на-соцсети" transform="translate(1064.000000, 1089.000000)">
                    <g id="ico_social-instagram" transform="translate(120.000000, 0.000000)">
                        <g id="background">
                            <use fill="#FFFFFF" xlink:href="#path-3"></use>
                            <use fill="url(#linearGradient-1)" xlink:href="#path-3"></use>
                            <use fill="url(#radialGradient-2)" xlink:href="#path-3"></use>
                        </g>
                        <g id="Group" transform="translate(11.000000, 11.000000)" fill="#FFFFFF">
                            <g id="Group-4">
                                <path d="M13.5,2.43594643 C17.1035357,2.43594643 17.5303393,2.44966071 18.9534107,2.51458929 C20.2692321,2.57464286 20.9838214,2.7945 21.4594286,2.97926786 C22.0893214,3.22408929 22.5389464,3.51658929 23.0111786,3.98882143 C23.4834107,4.46105357 23.7759107,4.91067857 24.0206786,5.54057143 C24.2055,6.01617857 24.4253571,6.73076786 24.4854107,8.04653571 C24.5503393,9.46966071 24.5640536,9.89646429 24.5640536,13.5 C24.5640536,17.1035357 24.5503393,17.5303393 24.4854107,18.9534107 C24.4253571,20.2692321 24.2055,20.9838214 24.0206786,21.4594286 C23.7759107,22.0893214 23.4834107,22.5389464 23.0111786,23.0111786 C22.5389464,23.4834107 22.0893214,23.7759107 21.4594286,24.0206786 C20.9838214,24.2055 20.2692321,24.4253571 18.9534107,24.4854107 C17.5305536,24.5503393 17.10375,24.5640536 13.5,24.5640536 C9.89625,24.5640536 9.46944643,24.5503393 8.04658929,24.4854107 C6.73076786,24.4253571 6.01617857,24.2055 5.540625,24.0206786 C4.91067857,23.7759107 4.46105357,23.4834107 3.98882143,23.0111786 C3.51658929,22.5389464 3.22408929,22.0893214 2.97932143,21.4594286 C2.7945,20.9838214 2.57464286,20.2692321 2.51458929,18.9534643 C2.44966071,17.5303393 2.43594643,17.1035357 2.43594643,13.5 C2.43594643,9.89646429 2.44966071,9.46966071 2.51458929,8.04658929 C2.57464286,6.73076786 2.7945,6.01617857 2.97932143,5.54057143 C3.22408929,4.91067857 3.51658929,4.46105357 3.98882143,3.98882143 C4.46105357,3.51658929 4.91067857,3.22408929 5.540625,2.97926786 C6.01617857,2.7945 6.73076786,2.57464286 8.04653571,2.51458929 C9.46966071,2.44966071 9.89646429,2.43594643 13.5,2.43594643 M13.5,0.00423214286 C9.83475,0.00423214286 9.37521429,0.0197678571 7.93575,0.0854464286 C6.49923214,0.151017857 5.51823214,0.379125 4.65975,0.712767857 C3.77228571,1.05766071 3.01966071,1.519125 2.26939286,2.26939286 C1.519125,3.01966071 1.05766071,3.77228571 0.712767857,4.65975 C0.379125,5.51823214 0.151017857,6.49923214 0.0854464286,7.93575 C0.0197678571,9.37516071 0.00428571429,9.83475 0.00428571429,13.5 C0.00428571429,17.16525 0.0197678571,17.6248393 0.0854464286,19.06425 C0.151017857,20.5007679 0.379125,21.4817679 0.712767857,22.34025 C1.05766071,23.2276607 1.519125,23.9803393 2.26939286,24.7306071 C3.01966071,25.480875 3.77228571,25.9423393 4.65975,26.2872321 C5.51823214,26.620875 6.49923214,26.8489821 7.93575,26.9145536 C9.37521429,26.9802321 9.83475,26.9957143 13.5,26.9957143 C17.16525,26.9957143 17.6248393,26.9802321 19.06425,26.9145536 C20.5007679,26.8489821 21.4817679,26.620875 22.34025,26.2872321 C23.2277143,25.9423393 23.9803393,25.480875 24.7306071,24.7306071 C25.480875,23.9803393 25.9423393,23.2277143 26.2872321,22.34025 C26.620875,21.4817679 26.8489821,20.5007679 26.9145536,19.06425 C26.9802321,17.6248393 26.9957679,17.16525 26.9957679,13.5 C26.9957679,9.83475 26.9802321,9.37516071 26.9145536,7.93575 C26.8489821,6.49923214 26.620875,5.51823214 26.2872321,4.65975 C25.9423393,3.77228571 25.480875,3.01966071 24.7306071,2.26939286 C23.9803393,1.519125 23.2277143,1.05766071 22.34025,0.712767857 C21.4817679,0.379125 20.5007679,0.151017857 19.06425,0.0854464286 C17.6248393,0.0197678571 17.16525,0.00423214286 13.5,0.00423214286" id="Fill-1"></path>
                                <path d="M13.5,6.56973214 C9.67253571,6.56973214 6.56973214,9.67253571 6.56973214,13.5 C6.56973214,17.3274643 9.67253571,20.4302679 13.5,20.4302679 C17.3274643,20.4302679 20.4302679,17.3274643 20.4302679,13.5 C20.4302679,9.67253571 17.3274643,6.56973214 13.5,6.56973214 L13.5,6.56973214 Z M13.5,17.9986071 C11.0155179,17.9986071 9.00139286,15.9844821 9.00139286,13.5 C9.00139286,11.0155179 11.0155179,9.00139286 13.5,9.00139286 C15.9844821,9.00139286 17.9986071,11.0155179 17.9986071,13.5 C17.9986071,15.9844821 15.9844821,17.9986071 13.5,17.9986071 L13.5,17.9986071 Z" id="Fill-2"></path>
                                <path d="M22.3235357,6.29592857 C22.3235357,7.19035714 21.5985,7.91544643 20.7040714,7.91544643 C19.8096429,7.91544643 19.0845536,7.19035714 19.0845536,6.29592857 C19.0845536,5.4015 19.8096429,4.67646429 20.7040714,4.67646429 C21.5985,4.67646429 22.3235357,5.4015 22.3235357,6.29592857" id="Fill-3"></path>
                            </g>
                        </g>
                    </g>
                </g>
            </g>
        </g>
    </g>
</svg>