<?xml version="1.0" encoding="UTF-8"?>
<svg width="147px" height="100px" viewBox="0 0 147 100" version="1.1" xmlns="http://www.w3.org/2000/svg" xmlns:xlink="http://www.w3.org/1999/xlink">
    <!-- Generator: Sketch 41.2 (35397) - http://www.bohemiancoding.com/sketch -->
    <title>img_logo-vaupradnik</title>
    <desc>Created with Sketch.</desc>
    <defs></defs>
    <g id="Symbols" stroke="none" stroke-width="1" fill="none" fill-rule="evenodd">
        <g id="Шапка" transform="translate(-61.000000, -10.000000)">
            <g id="img_logo-vaupradnik">
                <g transform="translate(60.000000, 10.000000)">
                    <g id="Логотип">
                        <g id="logo_vauprazdnik">
                            <path d="M70.8064317,36.6564609 C70.4321524,35.7384361 70.107697,34.1935858 70.0815744,33.1996368 L69.8354141,23.8333782 C69.8093655,22.8422518 70.5012622,21.6633816 71.3728003,21.2045142 L74.4193393,19.6005027 C75.2944625,19.1397476 76.6295961,19.2729646 77.3978013,19.8951021 L84.3750731,25.5457031 C85.1449085,26.1691609 86.1506951,27.3818594 86.6228492,28.2567305 L93.4144717,40.8411673 C93.8860486,41.7149686 93.5439397,42.7706425 92.6529518,43.1978338 L89.5147839,44.702453 C88.6226311,45.1302029 87.4985081,44.7781155 87.0077367,43.9225856 L85.221619,40.8089613 L80.1894928,43.146468 L81.5124525,46.1590589 C81.9103289,47.0650868 81.5148401,48.159599 80.6333052,48.6016136 L78.117363,49.8631429 C77.2339471,50.3061004 76.2139373,49.919888 75.8401044,49.0029573 L70.8064317,36.6564609 L70.8064317,36.6564609 Z M77.5960329,35.2578168 C77.9271723,35.9231258 78.7490015,36.2228216 79.4288368,35.92842 L80.7128131,35.372396 C81.3939034,35.0774509 81.6901756,34.2888372 81.3594353,33.6268104 C81.3594353,33.6268104 79.091001,28.3278676 76.9464938,29.2873476 C74.8019866,30.2468276 77.5960329,35.2578168 77.5960329,35.2578168 L77.5960329,35.2578168 Z" id="Combined-Shape" fill="#00BCD4"></path>
                            <path d="M48.8009741,47.4660454 C45.7775453,41.1329519 45.217944,35.0021548 45.217944,35.0021548 C45.0866061,34.0218358 45.7036169,32.8713384 46.5923252,32.4342915 L57.5903854,27.0256908 C58.2576242,26.6975577 59.2576857,26.8206292 59.8226534,27.2993655 L64.0186918,30.8549602 C64.5843008,31.3342397 65.0400251,32.324737 65.03656,33.0719586 L65.0149595,37.72949 C65.0115038,38.4746249 65.5353002,39.3648543 66.1930393,39.7223009 L70.1462401,41.8706579 C71.0152169,42.3429011 71.6695177,43.5291144 71.6079866,44.5149444 L71.218586,50.7537366 C71.1569093,51.7418925 70.3866015,52.8881418 69.4882583,53.3186509 L58.9677463,58.3603484 C58.0737895,58.7887553 56.7820553,58.5632375 56.10587,57.8466724 C56.10587,57.8466724 51.8244029,53.7991387 48.8009741,47.4660454 L48.8009741,47.4660454 Z M62.1684794,49.817727 C61.475931,50.0879521 60.6465083,49.7652566 60.317276,49.099724 L59.3261112,47.0961146 C58.996268,46.4293473 59.2619212,45.6174329 59.9293108,45.2776399 L60.9884546,44.7383898 C61.6514354,44.4008412 62.4494898,44.6663355 62.7750228,45.339796 L63.913691,47.6954673 C64.2374043,48.3651633 63.9396201,49.1266458 63.2458562,49.3973453 L62.1684794,49.817727 L62.1684794,49.817727 Z M55.261717,39.2281086 C55.5977985,39.8919984 56.428035,40.1954472 57.1111532,39.9079631 L57.961858,39.5499517 C58.6471918,39.2615352 58.9467818,38.4849386 58.6302213,37.8136993 L57.6176671,35.6666674 C57.3014604,34.9961782 56.4968202,34.7028079 55.8227126,35.0103756 L54.8548695,35.4519625 C54.1797506,35.7599918 53.904618,36.5473181 54.2409879,37.2117778 L55.261717,39.2281086 L55.261717,39.2281086 Z" id="Combined-Shape" fill="#00BCD4"></path>
                            <path d="M78.3695197,59.4775141 C78.182194,59.0180448 78.0198747,58.2475067 78.0067814,57.7493134 L77.9286601,54.7768414 C77.915651,54.281852 78.2623079,53.6925149 78.6982563,53.4629871 L79.3980542,53.0945413 C79.8360995,52.8639091 80.5036522,52.9299823 80.8879575,53.2412149 L83.0860364,55.0213475 C83.4708419,55.3329853 83.9736308,55.9392363 84.210897,56.3788755 L86.4807255,60.5847203 C86.7171631,61.0228246 86.5479548,61.5510045 86.1026841,61.7644931 L85.3725008,62.1145853 C84.9272762,62.3280514 84.3670451,62.1536635 84.120016,61.7230332 L84.0278035,61.5622853 C83.7812993,61.1325706 83.2158089,60.9540735 82.7696779,61.1613087 L82.5424529,61.2668585 C82.0941134,61.4751196 81.8937373,62.0152974 82.0932293,62.4695715 L82.1196461,62.529727 C82.319886,62.985706 82.1256385,63.5341416 81.681543,63.7568172 L81.1808895,64.0078522 C80.7386916,64.2295765 80.2296491,64.0400033 80.0410358,63.5773768 L78.3695197,59.4775141 L78.3695197,59.4775141 Z M80.7972081,58.7861219 C80.9077253,59.0067394 81.1776497,59.107493 81.4111824,59.006362 L81.9628503,58.7674626 C82.1914217,58.6684804 82.2903131,58.402135 82.181742,58.1830716 C82.181742,58.1830716 81.3266387,56.193696 80.5378932,56.5465909 C79.7491477,56.8994858 80.7972081,58.7861219 80.7972081,58.7861219 L80.7972081,58.7861219 Z" id="Combined-Shape" fill="#DC0E85"></path>
                            <path d="M94.0902239,30.5656492 C92.9575279,31.063112 91.6021786,30.5601022 91.0632744,29.4427823 L85.0512266,16.9778949 C84.6201997,16.0842389 84.9712623,14.9706862 85.8384637,14.4889743 L89.0781641,12.689389 C89.9439704,12.2084521 91.0107785,12.538235 91.4576713,13.4195199 L95.0536707,20.5109291 C95.3907326,21.1756242 96.2229536,21.4920655 96.9151419,21.216665 L98.8619245,20.4420995 C99.5529246,20.1671716 99.8531121,19.4036282 99.5298135,18.7312741 L96.0544731,11.5037197 C95.6253967,10.6113832 96.0191214,9.58641933 96.9396593,9.21204895 L100.135294,7.91242802 C101.053245,7.53910963 102.145337,7.96133546 102.57301,8.85228636 L111.569754,27.5948047 C111.998116,28.4871925 112.187331,29.997143 111.992367,30.9674303 L111.32067,34.3102975 C111.125711,35.2805594 110.212806,36.3496705 109.290502,36.6949069 L99.8065678,40.244926 C98.4166435,40.7652016 96.734561,40.116228 96.0506752,38.7976084 L94.4855783,35.7799007 C94.0293601,34.9002532 94.4088597,33.895989 95.3282028,33.5387612 L101.960404,30.9616967 C102.881991,30.6035971 103.286248,29.590127 102.86122,28.6935822 L102.852169,28.6744893 C102.428089,27.7799439 101.345671,27.379168 100.442437,27.7758544 L94.0902239,30.5656492 L94.0902239,30.5656492 Z" id="Path-3" fill="#00BCD4"></path>
                            <path d="M113.537456,19.8598128 L106.891802,6.77268665 C106.443505,5.88986768 106.827263,4.87555571 107.745561,4.5085116 L112.133927,2.75447903 C113.053742,2.38682864 114.269991,2.74081968 114.847409,3.54086307 L123.785502,15.9250649 C124.364302,16.7270233 124.087909,17.6673741 123.160644,18.0283235 L116.022037,20.8071135 C115.098138,21.1667528 113.985868,20.7428583 113.537456,19.8598128 Z" id="Path-4" fill="#00BCD4"></path>
                            <path d="M117.708999,27.4203072 C117.259002,26.537301 117.637903,25.5156456 118.554543,25.1386864 L125.021489,22.4792191 C125.938468,22.1021209 127.019002,22.5304961 127.43102,23.4275074 L129.198231,27.2749339 C129.612,28.1757573 129.200948,29.1903192 128.272607,29.5438828 L122.007168,31.93011 C121.082191,32.2823925 119.967663,31.8523683 119.517558,30.9691498 L117.708999,27.4203072 L117.708999,27.4203072 Z" id="Path-5" fill="#00BCD4"></path>
                            <path d="M144.265073,23.8269218 C141.933877,31.6889061 140.234433,35.9425787 140.234433,35.9425787 C138.955104,39.4301797 137.146503,39.3464922 136.127954,35.7681736 C136.127954,35.7681736 133.93089,26.2747042 129.234518,17.3600464 C124.538146,8.44538869 119.869386,4.26343994 119.869386,4.26343994 C117.509437,1.72714916 118.385989,-0.0454312943 121.828793,0.355124906 C121.828793,0.355124906 126.734747,0.678659223 134.021719,2.36774717 C141.308692,4.05683513 144.389503,5.57015896 144.389503,5.57015896 C146.223964,6.31277607 147.492134,8.50909072 147.192111,10.463517 C147.192111,10.463517 146.596269,15.9649374 144.265073,23.8269218 L144.265073,23.8269218 Z" id="Path-6" fill="#DC0E85"></path>
                            <path d="M51.1833365,83.7372562 C51.2937121,82.750496 52.1096783,81.6029106 53.0008893,81.1764259 L76.9264179,69.7269739 C77.8198493,69.2994264 78.561257,69.7539115 78.5824875,70.7462304 L78.7047503,76.4608104 C78.7259414,77.4512776 78.1072216,78.7399747 77.3170304,79.3436047 L51.4157917,99.1296519 C50.2356831,100.031141 49.4130392,99.5637719 49.5782584,98.0867085 L51.1833365,83.7372562 L51.1833365,83.7372562 Z" id="Path-10" fill="#00BCD4"></path>
                            <path d="M27.9625803,32.7790566 C29.2908934,33.4381255 31.4797439,33.5240094 32.8599978,32.9674633 L54.3903294,24.2860007 C55.3102637,23.9150645 55.5343255,23.0005976 54.8954674,22.2489909 L50.0428754,16.5399895 C49.401921,15.7859162 48.1028342,15.3659253 47.1379604,15.6027293 L14.6295675,23.5810944 C12.7062942,24.0531134 12.5839764,25.1486586 14.3588457,26.029295 L27.9625803,32.7790566 L27.9625803,32.7790566 Z" id="Path-11" fill="#DC0E85"></path>
                            <path d="M126.016153,5.61225116 C126.134226,6.33768623 128.810827,7.00189374 132.3337,7.74793492 C136.8623,8.70695958 142.206985,9.49818524 139.153564,7.52354138 C133.724836,4.01278922 125.746297,3.95428029 126.016153,5.61225116 L126.016153,5.61225116 Z" id="Path-12" fill="#FFFFFF"></path>
                            <path d="M140.901611,9.10240479 C139.802945,10.2918663 142.443002,10.7817412 142.935258,10.3298861 C143.427515,9.87803092 142.000277,7.91294322 140.901611,9.10240479 L140.901611,9.10240479 Z" id="Path-13" fill="#FFFFFF"></path>
                            <path d="M8.40053154,60.8534164 C7.02183619,60.8534159 5.30755338,64.3492905 3.88463576,63.1741303 C2.46171812,61.9989705 5.41945803,60.318602 4.72910944,58.2250696 C4.03876087,56.1315372 0.551102366,56.1137625 1.09365868,54.710289 C1.636215,53.3068154 5.00635506,54.6982835 6.1314679,53.9723153 C7.25658074,53.2463476 6.77247439,49.4793477 8.40053154,49.4793477 C10.0285887,49.4793477 9.51767299,53.0298275 10.6695952,53.9723153 C11.8215174,54.9148036 14.9535206,53.2369047 15.7074044,54.710289 C16.4612882,56.1836737 12.7781837,56.0833756 12.0719536,58.2250696 C11.3657236,60.3667636 14.3671144,62.0994383 12.9164273,63.1741303 C11.4657403,64.2488227 9.77922689,60.8534164 8.40053154,60.8534164 L8.40053154,60.8534164 Z" id="Star" fill="#00BCD4" transform="translate(8.422590, 56.447479) rotate(8.000000) translate(-8.422590, -56.447479) "></path>
                            <path d="M28.3798594,78.4226789 C27.1659485,78.4226789 25.6565602,81.5007191 24.4037125,80.4660167 C23.1508648,79.4313139 25.7550897,77.9517866 25.147253,76.1084774 C24.5394163,74.2651681 21.4686096,74.249518 21.9463185,73.0137903 C22.4240274,71.7780627 25.3913616,73.0032196 26.3819988,72.3640209 C27.3726359,71.7248222 26.9463909,68.4080613 28.3798594,68.4080613 C29.813328,68.4080613 29.3634779,71.534181 30.3777201,72.3640209 C31.3919623,73.1938608 34.1496222,71.716508 34.8134003,73.0137903 C35.4771785,74.3110732 32.2342859,74.2227631 31.6124659,76.1084774 C30.9906458,77.9941921 33.6333044,79.5197739 32.3560064,80.4660167 C31.0787083,81.4122595 29.5937704,78.4226789 28.3798594,78.4226789 L28.3798594,78.4226789 Z" id="Star" fill="#DC0E85" transform="translate(28.399282, 74.543348) rotate(30.000000) translate(-28.399282, -74.543348) "></path>
                            <path d="M47.6785172,73.0696962 C46.7176764,73.0696962 45.5229585,75.5060411 44.5312983,74.6870483 C43.5396383,73.868056 45.6009468,72.696973 45.1198291,71.2379482 C44.6387112,69.7789238 42.2080917,69.7665359 42.5862101,68.788427 C42.9643286,67.810318 45.3130469,68.7800598 46.0971607,68.2741186 C46.8812748,67.7681769 46.5438914,65.1428787 47.6785172,65.1428787 C48.813143,65.1428787 48.4570756,67.6172794 49.2598733,68.2741186 C50.062671,68.9309573 52.2454272,67.7615959 52.7708238,68.788427 C53.296221,69.8152585 50.7293911,69.7453585 50.2372049,71.2379482 C49.7450191,72.7305383 51.8367487,73.938074 50.8257356,74.6870483 C49.8147229,75.4360231 48.6393575,73.0696962 47.6785172,73.0696962 L47.6785172,73.0696962 Z" id="Star" fill="#00BCD4" transform="translate(47.693890, 69.999110) rotate(9.000000) translate(-47.693890, -69.999110) "></path>
                            <path d="M37.3397332,56.5211272 C35.3733128,56.5211272 32.9282472,61.5072599 30.898753,59.8311405 C28.8692588,58.1550206 33.0878557,55.7583266 32.1032179,52.7723408 C31.1185802,49.7863554 26.1441653,49.7610034 26.9180083,47.7592422 C27.6918513,45.757481 32.4986508,47.7421183 34.1033888,46.7066772 C35.7081268,45.6712362 35.0176504,40.2983989 37.3397332,40.2983989 C39.661816,40.2983989 38.9331016,45.3624153 40.5760776,46.7066772 C42.2190535,48.0509391 46.6862005,45.6577676 47.7614579,47.7592422 C48.8367153,49.8607168 43.5835378,49.7176627 42.5762484,52.7723408 C41.568959,55.8270193 45.8498148,58.2983166 43.7807134,59.8311405 C41.7116119,61.3639639 39.3061536,56.5211276 37.3397332,56.5211272 L37.3397332,56.5211272 Z" id="Star" fill="#DC0E85" transform="translate(37.371195, 50.236980) rotate(30.000000) translate(-37.371195, -50.236980) "></path>
                            <ellipse id="Oval" fill="#DC0E85" cx="17.2427572" cy="44.6543318" rx="2.46325103" ry="2.4683299"></ellipse>
                            <ellipse id="Oval" fill="#DC0E85" cx="38.7402208" cy="85.0451847" rx="3.8068425" ry="3.81469166"></ellipse>
                            <ellipse id="Oval" fill="#DC0E85" cx="4.25470633" cy="85.9427592" rx="2.46325103" ry="2.4683299"></ellipse>
                            <ellipse id="Oval" fill="#00BCD4" cx="10.9726637" cy="73.8255034" rx="2.46325103" ry="2.4683299"></ellipse>
                            <ellipse id="Oval" fill="#00BCD4" cx="23.2889188" cy="61.4838539" rx="3.58291059" ry="3.59029804"></ellipse>
                            <ellipse id="Oval" fill="#00BCD4" cx="20.1538721" cy="89.7574509" rx="4.47863824" ry="4.48787254"></ellipse>
                            <path d="M62.7727893,72.5048225 C62.3100264,72.6857471 61.7633342,72.4710724 61.5487595,72.0191014 L58.0127219,64.5709348 C57.799472,64.1217544 57.984923,63.5807611 58.4299487,63.3611076 L64.4649249,60.3823935 C64.908603,60.1634051 65.4451103,60.3457222 65.6652425,60.7936702 L69.5272986,68.6525849 C69.7465373,69.0987149 69.5583947,69.626477 69.1059402,69.8318869 L67.6587162,70.4889128 C67.2067679,70.694093 66.6643407,70.4983064 66.4469029,70.0510594 L63.6837707,64.3675741 C63.4664533,63.9205739 62.9230113,63.7179792 62.4669749,63.9163638 L61.9193207,64.1546034 C61.4646202,64.3524068 61.2839811,64.8681065 61.5161385,65.3069917 L64.4663277,70.8842199 C64.6983569,71.3228628 64.5126354,71.8246033 64.0485468,72.0060458 L62.7727893,72.5048225 L62.7727893,72.5048225 Z" id="Path-14" fill="#DC0E85"></path>
                            <path d="M72.9359946,67.4403975 C72.4709588,67.6061494 71.922146,67.3760778 71.7110208,66.9282873 L68.161644,59.4001625 C67.9501452,58.9515799 68.1402083,58.4216034 68.5896666,58.2148143 L72.8894472,56.2365507 C73.3373366,56.0304838 74.0496242,56.0537121 74.4710591,56.3146011 C74.4710591,56.3146011 75.5082933,56.7454014 76.369673,58.1400208 C77.231053,59.5346402 77.2091032,60.788476 77.2091032,60.788476 C77.2548095,61.2798374 76.9373027,61.8689627 76.5017995,62.1033189 L74.313132,63.2811001 C73.8767931,63.515906 73.737554,64.0479989 73.9980629,64.4630769 L74.8559335,65.8299523 C75.1182649,66.2479343 74.9532718,66.7213824 74.4889051,66.8868961 L72.9359946,67.4403975 L72.9359946,67.4403975 Z M72.7753911,61.1482979 C73.5174361,61.1482979 74.1189826,60.6459757 74.1189826,60.0263297 C74.1189826,59.4066838 73.5174361,58.9043616 72.7753911,58.9043616 C72.0333461,58.9043616 71.4317996,59.4066838 71.4317996,60.0263297 C71.4317996,60.6459757 72.0333461,61.1482979 72.7753911,61.1482979 L72.7753911,61.1482979 Z" id="Combined-Shape" fill="#DC0E85"></path>
                            <path d="M85.1791244,50.3573398 C84.7218903,50.5460867 84.5193542,51.0615018 84.7290906,51.5136016 L85.0803422,52.2707456 C85.2890297,52.7205844 85.8130752,52.889095 86.2440948,52.6508478 L87.6634671,51.8662851 C88.0975027,51.6263711 88.4523537,51.8339509 88.4560625,52.3315895 L88.4725622,54.5457443 C88.4744208,54.7951362 88.6577736,55.0809419 88.8826219,55.1843528 L90.8767678,56.1014913 C91.324289,56.3073128 91.3211692,56.6296601 90.8590315,56.8260503 L88.6989842,57.7439831 C88.2416678,57.9383241 88.0753487,58.4409286 88.3291347,58.8693409 L88.8608669,59.7669504 C89.1139211,60.1941273 89.6805629,60.3597037 90.1190256,60.1405115 L93.9013368,58.2496918 C94.3431446,58.028827 94.6570994,57.4509125 94.6025617,56.9587688 L94.5131269,56.1517196 C94.458595,55.6596275 94.0744864,55.0455151 93.6546794,54.7797339 L92.0662972,53.7741242 C91.8568591,53.6415282 91.7036216,53.3381121 91.7249721,53.0852864 L91.8757795,51.2994807 C91.9176396,50.8037885 91.7221197,50.0775753 91.4337621,49.6699293 L90.9143274,48.9356146 C90.628348,48.5313309 90.0274558,48.3559421 89.5686198,48.5453505 L85.1791244,50.3573398 L85.1791244,50.3573398 Z" id="Path-16" fill="#DC0E85"></path>
                            <path d="M96.3797176,54.3489843 C95.9270007,54.5473509 95.6749851,55.09027 95.8192035,55.5695317 L96.5230219,57.9084425 C96.6661749,58.3841656 97.1679002,58.6551159 97.6424808,58.5139773 L98.738173,58.1881214 C99.2132795,58.0468261 99.5054201,57.5430615 99.3898229,57.0593178 L99.2867891,56.628149 C99.1715784,56.1460231 99.4376955,55.5798084 99.8820673,55.3630393 L103.885059,53.4103381 C104.329033,53.1937632 104.794711,53.403066 104.925804,53.8800945 L104.974739,54.0581621 C105.105553,54.5341763 105.572637,54.741792 106.015835,54.522954 L106.927251,54.0729249 C107.371419,53.853608 107.559723,53.3133426 107.348743,52.8681165 L106.288444,50.6305866 C106.07706,50.184506 105.566148,50.0343777 105.141161,50.2990828 L105.633241,49.9925884 C105.210998,50.2555845 104.695418,50.1104157 104.478028,49.6608355 L101.765033,44.0501198 C101.54927,43.6039018 101.005078,43.4094087 100.554998,43.6132392 L94.5373917,46.3384657 C94.084871,46.5434012 93.9201507,47.06154 94.1639978,47.4862144 L96.1464388,50.9387603 C96.3927401,51.3677089 96.6265676,52.1199594 96.6682642,52.6137093 L96.7234231,53.2668747 C96.7653185,53.7629754 96.434159,54.3251294 95.9795652,54.5243187 L96.3797176,54.3489843 L96.3797176,54.3489843 Z M100.415285,52.2955995 C99.9683147,52.5042456 99.4680275,52.2968996 99.2957267,51.826654 L98.1582256,48.7221709 C97.9868805,48.2545337 98.2144786,47.7021286 98.6599115,47.4914935 L98.8048657,47.422948 C99.253284,47.2109009 99.8050845,47.3928352 100.040259,47.8347843 L101.592844,50.7524598 C101.826714,51.1919576 101.650227,51.7191264 101.206994,51.9260281 L100.415285,52.2955995 L100.415285,52.2955995 Z" id="Combined-Shape" fill="#DC0E85"></path>
                            <path d="M108.740848,51.1998441 C108.278922,51.3799465 107.730093,51.1629556 107.517515,50.7204056 L103.843486,43.0717481 C103.629783,42.626859 103.821078,42.0978231 104.268899,41.8909706 L105.61708,41.2682339 C106.065732,41.0609976 106.582293,41.2674107 106.76715,41.720204 L107.780616,44.202614 C107.967129,44.6594665 108.469894,44.8334142 108.901839,44.5921054 L109.407283,44.3097352 C109.840003,44.0679929 110.023066,43.5108115 109.81421,43.0610244 L108.749897,40.7689506 C108.541916,40.3210489 108.744608,39.7963356 109.195574,39.600038 L110.680633,38.9536188 C111.134755,38.7559478 111.67102,38.955671 111.880895,39.4050216 L115.696472,47.5743531 C115.905236,48.0213268 115.703341,48.5399377 115.249695,48.7309483 L113.663936,49.3986418 C113.208425,49.5904383 112.681306,49.3732917 112.4896,48.9207494 L111.713698,47.0891539 C111.520642,46.6334248 110.992004,46.4150265 110.536127,46.6000584 L109.843599,46.8811433 C109.386301,47.0667522 109.207084,47.5721096 109.442662,48.0086948 L110.316222,49.6276239 C110.552089,50.0647445 110.372168,50.5638017 109.906905,50.7452047 L108.740848,51.1998441 L108.740848,51.1998441 Z" id="Path-19" fill="#DC0E85"></path>
                            <path d="M118.516144,47.3925233 C118.070927,47.612487 117.540199,47.4287943 117.327192,46.9746889 L113.692361,39.2256629 C113.480939,38.7749357 113.679766,38.2643844 114.147203,38.0810993 L115.395035,37.5918166 C115.857659,37.4104187 116.396123,37.6302971 116.596539,38.0802578 L117.710484,40.5812131 C117.911432,41.0323696 118.129955,40.9990774 118.198822,40.5050297 L118.674014,37.0960499 C118.742768,36.6028184 119.160757,36.0339329 119.610516,35.8240569 L120.552851,35.3843243 C121.001313,35.1750534 121.536541,35.369505 121.746357,35.8144904 L125.503559,43.7829035 C125.714252,44.2297486 125.512021,44.7278821 125.044466,44.8982113 L123.360099,45.511822 C122.895856,45.6809443 122.343636,45.4571682 122.126652,45.0119452 L120.849532,42.3914542 C120.632561,41.9462576 120.444072,41.9883469 120.428613,42.4828572 L120.330776,45.6123499 C120.31528,46.1080269 119.942213,46.6879628 119.49658,46.9081315 L118.516144,47.3925233 L118.516144,47.3925233 Z" id="Path-20" fill="#DC0E85"></path>
                            <path d="M127.86283,43.3924424 C127.411731,43.596492 126.864302,43.4073154 126.638684,42.9671131 L122.817311,35.511271 C122.592333,35.0723185 122.771903,34.5434478 123.221258,34.3286353 L124.456513,33.7381255 C124.904584,33.5239264 125.440662,33.7151824 125.651872,34.1610754 L126.557785,36.0735821 C126.769893,36.52137 127.030033,36.4959707 127.140188,36.0108415 L127.867416,32.8080982 C127.97696,32.3256596 128.439223,31.7945059 128.907406,31.6189207 L130.080784,31.178863 C130.54561,31.004537 130.988658,31.2606017 131.070136,31.7494616 L131.372269,33.562232 C131.453847,34.0516909 131.34686,34.8135058 131.135578,35.2590059 L130.79642,35.9741375 C130.584121,36.4217809 130.813172,36.7846676 131.310411,36.7846676 L131.786733,36.7846676 C132.282901,36.7846676 132.893103,37.1288302 133.149349,37.5528672 L134.474544,39.7458069 C134.730928,40.1700718 134.567047,40.6607318 134.107941,40.84195 L132.78697,41.3633624 C132.328117,41.5444807 131.619376,41.4711475 131.203164,41.199053 L128.988223,39.7510575 C128.572364,39.4791937 128.382275,39.6317907 128.563151,40.0906365 L129.23387,41.7921101 C129.414968,42.2515182 129.195968,42.7894119 128.744991,42.9934066 L127.86283,43.3924424 L127.86283,43.3924424 Z" id="Path-21" fill="#DC0E85"></path>
                        </g>
                    </g>
                </g>
            </g>
        </g>
    </g>
</svg>